<svg width="16" height="16" viewBox="0 0 16 16" fill="none" xmlns="http://www.w3.org/2000/svg">
    <path d="M10.081 14.2322C10.2172 14.5827 10.6255 14.7931 10.9658 14.5827C11.7825 14.162 12.5312 13.531 13.1438 12.7597C13.8924 11.8482 14.3688 10.7264 14.573 9.46432C14.7772 8.20224 14.6411 7.01028 14.2327 5.88843C13.8244 4.76658 13.1438 3.71485 12.259 2.94358C11.3742 2.17232 10.2852 1.61139 9.12818 1.40105C7.9031 1.26081 6.74607 1.33093 5.6571 1.68151C4.50007 2.1022 3.54723 2.80335 2.7305 3.71485C2.11796 4.41601 1.64154 5.32751 1.36929 6.23901C1.23317 6.58959 1.50541 6.94016 1.84572 7.01028C2.18602 7.08039 2.59438 6.87005 2.66244 6.44935C2.86662 5.7482 3.27499 5.11716 3.75141 4.55624C4.36395 3.85508 5.18068 3.29416 6.06546 2.94358C6.95025 2.66312 7.9031 2.52289 8.85594 2.73324C9.80879 2.94358 10.6255 3.36428 11.3742 3.99532C12.1228 4.62635 12.6673 5.39762 12.9396 6.30912C13.2799 7.22062 13.3479 8.20224 13.2118 9.18385C13.0757 10.1655 12.6673 11.077 12.0548 11.7781C11.5784 12.339 11.0339 12.8299 10.4213 13.1804C10.081 13.4609 9.94491 13.8816 10.081 14.2322Z"
          fill="currentColor"/>
</svg>
