<svg width="417" height="400" viewBox="0 0 417 400" fill="none" xmlns="http://www.w3.org/2000/svg">
<path d="M374.724 0L234.039 83.696H172.161L31.4754 0L0.23845 122.444L23.9642 199.106L0 288.644L30.9985 392.489L120.179 366.021L177.168 400H229.151L286.259 366.021L375.44 392.489L406.319 288.644L382.355 199.106L405.842 124.709L374.724 0Z" fill="#0A0A0A"/>
<path d="M369.704 198.869L357.186 205.665L377.454 281.373H281.12L229.973 320.121L236.769 327.632L244.16 326.679L276.47 302.118V336.217L290.301 340.27V295.084H377.216L393.669 288.288L369.585 198.631L369.704 198.869Z" fill="#D075FF"/>
<path d="M303.884 202.453V229.875L286.238 213.303H241.529L239.383 227.133H280.754L296.611 242.155L286.715 244.54V258.727L317.475 251.216L317.714 205.553L303.884 202.334V202.453Z" fill="#D075FF"/>
<path d="M274.699 232.955H243.82L235.116 255.369L233.328 267.053L241.435 270.153L286.622 259.065H286.86V244.758L274.818 232.955H274.699ZM244.178 259.185L250.497 242.851H270.646L278.753 250.72L244.178 259.185Z" fill="#BAF24A"/>
<path d="M36.2611 198.869L48.7797 205.665L28.3923 281.373H124.845L175.993 320.121L169.197 327.632L161.805 326.679L129.495 302.118V336.217L115.665 340.27V295.084H28.7499L12.2969 288.288L36.3803 198.631L36.2611 198.869Z" fill="#D075FF"/>
<path d="M102.199 202.453V229.875L119.844 213.303H164.554L166.7 227.133H125.329L109.472 242.155L119.368 244.54V258.727L88.4883 251.216V205.553L102.199 202.334V202.453Z" fill="#D075FF"/>
<path d="M377.343 295.331L357.909 360.547L244.168 326.806L236.776 327.76L233.915 338.133L266.344 347.79L221.873 374.258H184.079L139.608 347.79L172.037 338.133L169.176 327.76L161.784 326.806L48.043 360.547L28.6093 295.331L12.1562 288.654L38.7434 377.835L121.486 353.274L180.144 388.207H225.569L284.347 353.274L367.089 377.835L393.676 288.654L377.343 295.331Z" fill="#89B0FF"/>
<path d="M393.459 122.095L366.991 18.4883L237.275 95.6269H168.839L39.1225 18.4883L12.6546 122.095L12.2969 123.168L12.6546 124.241L36.2611 198.757L48.6605 205.552H88.124L101.954 202.333L156.798 164.777L180.166 315.239L184.458 310.47H193.4L168.959 152.616L173.251 109.219H232.744L237.036 152.616L212.595 310.47H221.537L225.829 315.239L249.197 164.777L304.041 202.333L317.871 205.552H357.334L369.734 198.757L393.34 124.241L393.698 123.168L393.34 122.095H393.459ZM93.0122 191.841H48.4221L26.4847 122.81L46.9914 42.8102L151.313 151.782L92.893 191.722L93.0122 191.841ZM156.559 137.356L83.5935 61.0516L159.659 106.238L156.678 137.236L156.559 137.356ZM246.216 106.357L322.282 61.1708L249.316 137.475L246.336 106.476L246.216 106.357ZM357.334 191.961H312.863L254.443 152.02L359.003 42.9294L379.51 122.929L357.573 191.961H357.334Z" fill="#FF5C16"/>
<path d="M221.398 310.707H184.558L169.059 327.756L176.808 356.013H228.91L236.659 327.756L221.16 310.707H221.398ZM218.537 342.182H187.419L184.439 331.452L190.519 324.656H215.318L221.398 331.452L218.418 342.182H218.537Z" fill="#BAF24A"/>
<path d="M119.363 244.641V258.829H119.602L164.788 270.036L172.895 266.936L171.107 255.252L162.404 232.838H131.524L119.482 244.641H119.363ZM127.351 250.602L135.459 242.734H155.608L161.927 259.067L127.351 250.602Z" fill="#BAF24A"/>
</svg>
