<svg xmlns="http://www.w3.org/2000/svg" fill="none" viewBox="0 0 66 34">
  <path fill="#0A0A0A" d="M37.173 25.901v7.1952h-3.6845v-4.985l-4.1988.4924c-.9222.1072-1.328.4114-1.328.9716 0 .8206.7703 1.1664 2.4216 1.1664 1.0069 0 2.1222-.151 3.1074-.4114l-1.9074 2.7223c-.7703.1728-1.5211.2582-2.3131.2582-3.3417 0-5.2491-1.3393-5.2491-3.7158 0-2.0964 1.4994-3.1971 4.9062-3.5866l4.5004-.5274c-.243-1.3196-1.2303-1.8929-3.1941-1.8929-1.8423 0-3.8777.4749-5.6982 1.3611l.5793-3.219c1.6926-.7134 3.6217-1.081 5.5703-1.081 4.2856 0 6.4924 1.7944 6.4924 5.2498l-.0044.0021ZM4.02739 16.8917 0 33.0962h4.02739l1.9985-8.1427 3.46538 4.1884h4.19883l3.4654-4.1884 1.9985 8.1427h4.0273L19.154 16.8896l-7.5644 9.0596-7.56438-9.0596.00217.0021ZM19.154.685059 11.5896 9.74469 4.02739.685059 0 16.8917h4.02739l1.9985-8.14269 3.46538 4.18839h4.19883l3.4654-4.18839 1.9985 8.14269h4.0273L19.154.685059ZM46.8574 25.75l-3.257-.4748c-.8138-.1291-1.1349-.3895-1.1349-.8425 0-.7353.792-1.0592 2.4216-1.0592 1.8857 0 3.5782.3896 5.3576 1.2321l-.4492-3.1753c-1.4365-.5186-3.0856-.7768-4.7999-.7768-4.0057 0-6.1929 1.4049-6.1929 3.9324 0 1.9673 1.1999 3.068 3.7496 3.4575l3.3005.4968c.8354.1291 1.1782.4529 1.1782.9716 0 .7352-.7703 1.081-2.3348 1.081-2.0571 0-4.2856-.4968-6.1062-1.383l.3646 3.1752c1.5645.5843 3.5999.9301 5.5072.9301 4.1142 0 6.2559-1.4487 6.2559-4.02 0-2.0526-1.1999-3.1555-3.8559-3.5429l-.0044-.0022Zm5.2925-7.4118v14.758h3.6845v-14.758h-3.6845Zm7.9897 8.1252 5.1232-5.5977h-4.5851l-4.8433 5.7903 5.1644 6.438h4.6502l-5.5094-6.6327v.0021Zm-8.504-13.073c0 2.3765 1.9074 3.7158 5.2491 3.7158.792 0 1.5428-.0875 2.3131-.2582l1.9074-2.7223c-.9852.2582-2.1005.4114-3.1074.4114-1.6491 0-2.4216-.3457-2.4216-1.1664 0-.5624.4079-.8644 1.328-.9716l4.1988-.4923v4.9849h3.6845V9.69655c0-3.45754-2.2068-5.24977-6.4924-5.24977-1.9507 0-3.8776.36763-5.5702 1.08102l-.5794 3.21902c1.8206-.88627 3.856-1.36113 5.6983-1.36113 1.9638 0 2.9511.57334 3.1941 1.89289l-4.5004.52739c-3.4068.38953-4.9062 1.49023-4.9062 3.58663l.0043-.0022Zm-10.305-.7768c0 2.9827 1.7143 4.4948 5.0994 4.4948 1.3497 0 2.465-.2167 3.5348-.7134l.4708-3.2628c-1.0285.6259-2.0788.9497-3.129.9497-1.5862 0-2.2936-.6477-2.2936-2.0964V7.6636h5.5919V4.66123H45.013V2.11184l-7.0067 3.73765V7.6636h3.32v4.9478l.0043.0022Zm-3.6216-1.3612v.7353h-9.9578c.4492 1.4968 1.7837 2.1818 4.1533 2.1818 1.8856 0 3.6433-.3895 5.2056-1.1445l-.4492 3.1555c-1.4365.604-3.257.9301-5.121.9301-4.9496 0-7.649-2.2037-7.649-6.2871 0-4.08337 2.7428-6.37454 6.985-6.37454s6.8353 2.48593 6.8353 6.80564l-.0022-.0022ZM27.7035 9.47991h6.2971c-.332-1.43335-1.4235-2.18176-3.1681-2.18176s-2.7797.72871-3.129 2.18176Z"/>
</svg>