<?xml version="1.0" encoding="utf-8"?>
<!-- Designed by Vexels.com - 2016 All Rights Reserved - https://vexels.com/terms-and-conditions/  -->

<svg version="1.1" id="Layer_1" xmlns="http://www.w3.org/2000/svg" xmlns:xlink="http://www.w3.org/1999/xlink" x="0px" y="0px"
	 width="1200px" height="1200px" viewBox="0 0 1200 1200" enable-background="new 0 0 1200 1200" xml:space="preserve">
<g>
	<path fill="#575756" d="M1050.658,858.446c0,0-113.958,325.236-284.482,288.69c0,0-34.481-5.296-53.258-17.765
		c0,0-93.077-48.154-194.412,2.027c0,0-101.489,46.012-160.081-10.442c0,0-163.162-129.693-202.901-376.502
		c0,0-37.712-207.109,73.166-338.832c0,0,108.774-123.385,255.186-77.373l96.227,33.466c0,0,16.754,12.546,56.493-2.104
		c0,0,108.701-50.219,184.043-41.842c0,0,119.216-2.065,200.797,106.708c0,0-133.939,64.793-117.185,232.124
		C904.25,656.599,893.807,777.957,1050.658,858.446z"/>
	<path fill="#575756" d="M596.856,305.22c0,0-14.723-211.236,223.782-255.22C820.638,50,824.845,298.951,596.856,305.22z"/>
</g>
</svg>
