<svg width="494" height="498" viewBox="0 0 494 498" fill="none" xmlns="http://www.w3.org/2000/svg">
<path d="M490 254.562C490 388.767 381.205 497.562 247 497.562C112.795 497.562 4 388.767 4 254.562C4 120.357 112.795 11.562 247 11.562C381.205 11.562 490 120.357 490 254.562Z" fill="url(#paint0_radial_2630_2009)"/>
<path d="M276.066 369.579C276.066 383.752 264.372 395.241 249.948 395.241C235.523 395.241 223.829 383.752 223.829 369.579C223.829 355.407 235.523 343.917 249.948 343.917C264.372 343.917 276.066 355.407 276.066 369.579Z" fill="white"/>
<path d="M188.783 144.779C222.022 112.097 275.939 112.097 309.178 144.779L310.915 146.488C345.078 180.078 345.078 234.512 310.915 268.103L271.74 306.623C270.85 307.498 270.375 308.687 270.261 309.919C269.269 320.61 260.12 328.985 248.98 328.985C237.178 328.985 227.611 319.585 227.611 307.989V301.203C227.611 294.417 230.354 287.908 235.236 283.107L280.683 238.421C298.17 221.227 298.17 193.364 280.683 176.17L278.946 174.461C262.4 158.192 235.561 158.192 219.015 174.461C216.358 177.074 214.124 179.953 212.318 183.014C206.377 193.08 197.28 203.027 185.592 203.027C173.64 203.027 163.719 193.106 166.947 181.599C170.739 168.085 178.035 155.347 188.783 144.779Z" fill="white"/>
<defs>
<radialGradient id="paint0_radial_2630_2009" cx="0" cy="0" r="1" gradientUnits="userSpaceOnUse" gradientTransform="translate(414.67 26.142) rotate(114.684) scale(473.096 583.278)">
<stop stop-color="#18F6DB"/>
<stop offset="1" stop-color="#0364FF"/>
</radialGradient>
</defs>
</svg>
