<svg width="20" height="20" viewBox="0 0 20 20" fill="none" xmlns="http://www.w3.org/2000/svg">
    <path
      fill-rule="evenodd"
      clip-rule="evenodd"
      d="M17.719 7.28138C18.219 7.78147 18.5 8.45975 18.5 9.16699V10.8337C18.5 11.5409 18.219 12.2192 17.719 12.7193C17.4636 12.9746 17.1618 13.1729 16.8333 13.3057V14.167C16.8333 14.8742 16.5524 15.5525 16.0523 16.0526C15.5522 16.5527 14.8739 16.8337 14.1667 16.8337L4.16667 16.8337C3.45942 16.8337 2.78115 16.5527 2.28105 16.0526C1.78095 15.5525 1.5 14.8742 1.5 14.167V5.83366C1.5 5.12641 1.78095 4.44814 2.28105 3.94804C2.78115 3.44794 3.45942 3.16699 4.16667 3.16699H14.1667C14.8739 3.16699 15.5522 3.44794 16.0523 3.94804C16.5524 4.44814 16.8333 5.12642 16.8333 5.83366V6.69493C17.1618 6.82778 17.4636 7.02601 17.719 7.28138ZM15.5714 8.00032C15.1925 8.00032 12.6863 8.1408 12.4184 8.39084C12.1505 8.64089 12 8.98003 12 9.33365V10.667C12 11.0206 12.1505 11.3597 12.4184 11.6098C12.6863 11.8598 15.1925 12.0003 15.5714 12.0003C15.9503 12.0003 16.3137 11.8598 16.5816 11.6098C16.8495 11.3597 17 11.0206 17 10.667V9.33365C17 8.98003 16.8495 8.64089 16.5816 8.39084C16.3137 8.1408 15.9503 8.00032 15.5714 8.00032Z"
      fill="url(#paint0_linear_3331_43851)"
    />
    <defs>
      <linearGradient id="paint0_linear_3331_43851" x1="2.42784" y1="3.40414" x2="3.69889" y2="18.0247" gradientUnits="userSpaceOnUse">
        <stop stop-color="#13A5D3" />
        <stop offset="0.505208" stop-color="#1B6BEC" />
        <stop offset="1" stop-color="#9824CF" />
      </linearGradient>
    </defs>
</svg>
