<svg width="160" height="60" viewBox="0 0 800 241" fill="none" xmlns="http://www.w3.org/2000/svg"><path d="M190.062 50.937c-14.742-14.742-41.61-12.981-69.605 2.113-4.18 2.25-3.867 11.49.09 13.907a164.432 164.432 0 0 1 53.465 53.545c2.406 3.96 11.753 4.096 13.937.04q-.771-1.434-1.587-2.863.812 1.429 1.587 2.863c15.094-27.995 16.855-54.863 2.113-69.605Zm-31.155 31.155a174.675 174.675 0 0 0-26.193-21.645c10.838-5.012 21.162-7.699 29.907-7.699 7.819 0 14.38 2.144 18.928 6.692 9.65 9.65 8.503 28.327-.996 48.846a176.332 176.332 0 0 0-21.646-26.194Z" style="fill:#ffc750;fill-rule:evenodd"></path><path d="M196.573 140.728a116.468 116.468 0 0 0-8.624-20.186c-2.214-4.116-11.539-3.992-13.937-.04a159.408 159.408 0 0 1-23.618 29.897 159.25 159.25 0 0 1-29.846 23.638c-3.958 2.417-4.136 11.733-.09 13.906 14.902 8.04 29.484 12.297 42.093 12.297 11.069 0 20.618-3.28 27.511-10.174 10.788-10.787 13.092-28.306 6.511-49.338Zm-15.024 40.825c-9.65 9.65-28.317 8.493-48.835-1.006a174.678 174.678 0 0 0 26.193-21.645 175.8 175.8 0 0 0 21.656-26.154c9.489 20.509 10.636 39.165.986 48.805Z" style="fill:#ff6895;fill-rule:evenodd"></path><path d="M120.457 53.05a115.738 115.738 0 0 0-20.196-8.624c-21.021-6.58-38.541-4.277-49.328 6.51C44.04 57.83 40.759 67.38 40.759 78.45c0 12.609 4.257 27.2 12.287 42.103 2.184 4.046 11.5 3.863 13.917-.1a164.256 164.256 0 0 1 53.585-53.495c3.933-2.39 4.015-11.703-.09-13.907Zm-60.005 55.236c-9.5-20.519-10.656-39.196-1.006-48.846 7.457-7.457 20.68-8.715 37.223-3.522a98.523 98.523 0 0 1 11.612 4.498 180.348 180.348 0 0 0-47.829 47.87Z" style="fill:#5fc5a6;fill-rule:evenodd"></path><path d="M120.548 174.036A159.09 159.09 0 0 1 90.6 150.4a159.077 159.077 0 0 1-23.638-29.947c-2.398-3.93-11.713-4.005-13.917.1a116.307 116.307 0 0 0-8.614 20.176c-6.591 21.032-4.277 38.551 6.5 49.338 6.763 6.753 16.162 10.184 27.412 10.184a73.695 73.695 0 0 0 21.917-3.683 116.54 116.54 0 0 0 20.196-8.624c3.25-1.74 4.02-11.509.09-13.907Zm-23.88 11.05c-16.543 5.181-29.765 3.924-37.222-3.533-7.457-7.456-8.715-20.68-3.532-37.223a97.822 97.822 0 0 1 4.498-11.602 176.199 176.199 0 0 0 21.685 26.174 174.455 174.455 0 0 0 26.184 21.675 96.997 96.997 0 0 1-11.612 4.508Z" style="fill:#5666f6;fill-rule:evenodd"></path><path style="fill:#1f294f;fill-rule:evenodd" d="M93.642 119.773 120.5 77.568l26.858 42.205-26.858 15.348-26.858-15.348z"></path><path style="fill:#1f294f;fill-rule:evenodd" d="m93.642 126.982 26.858 15.347 26.858-15.347-26.858 36.45-26.858-36.45z"></path><path d="M132.714 60.446a126.067 126.067 0 0 0-12.166 6.511 118.992 118.992 0 0 0-12.267-6.54 141.574 141.574 0 0 1 12.176-7.367q6.159 3.306 12.257 7.396Z" style="fill:#5f9a34;fill-rule:evenodd"></path><path d="M187.949 120.542a144.93 144.93 0 0 1-7.386 12.206 126.745 126.745 0 0 0-6.551-12.246 128.481 128.481 0 0 0 6.54-12.216q4.076 6.082 7.397 12.256Z" style="fill:#ff512f;fill-rule:evenodd"></path><path d="M132.714 180.547c-.845.574-1.69 1.127-2.536 1.67a140.79 140.79 0 0 1-9.72 5.726q-6.069-3.26-12.177-7.366a118.997 118.997 0 0 0 12.267-6.54 121.88 121.88 0 0 0 12.166 6.51Z" style="fill:#552990;fill-rule:evenodd"></path><path d="M66.963 120.451a121.246 121.246 0 0 0-6.551 12.277 146.908 146.908 0 0 1-7.366-12.176 144.39 144.39 0 0 1 7.406-12.267 121.853 121.853 0 0 0 6.51 12.166Z" style="fill:#204fa0;fill-rule:evenodd"></path><path d="M744.678 154.049v6.666a7.438 7.438 0 0 1-3.835 1.026 11.872 11.872 0 0 1-11.763-8.846 26.485 26.485 0 1 1-.767-36.792v-6.666h7.927v37.946c0 4.743 2.43 6.666 5.242 6.666Zm-16.365-18.973a18.666 18.666 0 1 0-18.666 18.717 18.691 18.691 0 0 0 18.666-18.717Zm26.359-51.665H763v78.333h-8.328Zm-83.28 51.32a27.007 27.007 0 0 1-16.362 24.923 26.373 26.373 0 0 1-28.994-5.703v6.754h-7.944v-78.96h7.944v33.765a26.373 26.373 0 0 1 28.994-5.703 27.007 27.007 0 0 1 16.362 24.924Zm-7.944 0a18.708 18.708 0 1 0-18.706 18.96 18.52 18.52 0 0 0 13.245-5.535 19.032 19.032 0 0 0 5.461-13.425Zm-113.645.347a26.638 26.638 0 1 1 7.8 18.862 26.658 26.658 0 0 1-7.8-18.862Zm45.355 0a18.706 18.706 0 1 0-18.706 18.718 18.712 18.712 0 0 0 18.706-18.718Zm-85.33-15.927v2.321c.134 20.11-14.365 37.195-33.865 39.904s-37.937-9.798-43.062-29.214 4.656-39.703 22.844-47.381a38.732 38.732 0 0 1 48.908 17.089l-6.941 3.998a30.562 30.562 0 0 0-37.225-14.17 31.626 31.626 0 0 0-20.048 35.044 30.754 30.754 0 0 0 60.807.147H470.83v-7.738Zm16.656-35.74h8.328v78.333h-8.328Zm-108.264 0v78.333h-16.785V130.15h-31.262v31.594h-16.912V83.411h16.912v31.464h31.262V83.41Zm-71.621 15.275h-19.124v63.058h-16.59V98.686h-19.251V83.411h54.965Zm-89.546-.13v16.45h25.32v15.144h-25.32v16.45h29.584v15.144H240V83.411h46.637v15.144Z" style="fill:#1f294f"></path></svg>