<svg width="16" height="16" viewBox="0 0 16 16" fill="none" xmlns="http://www.w3.org/2000/svg">
    <path d="M3.25934 13.3332C3.08156 13.3332 2.96304 13.2739 2.84453 13.1554C2.60749 12.9184 2.60749 12.5628 2.84453 12.3258L12.326 2.84428C12.563 2.60724 12.9186 2.60724 13.1556 2.84428C13.3927 3.08132 13.3927 3.43687 13.1556 3.67391L3.67416 13.1554C3.55564 13.2739 3.43712 13.3332 3.25934 13.3332Z"
          fill="currentColor"/>
    <path d="M12.7408 13.3332C12.563 13.3332 12.4445 13.2739 12.326 13.1554L2.84453 3.67391C2.60749 3.43687 2.60749 3.08132 2.84453 2.84428C3.08156 2.60724 3.43712 2.60724 3.67416 2.84428L13.1556 12.3258C13.3927 12.5628 13.3927 12.9184 13.1556 13.1554C13.0371 13.2739 12.9186 13.3332 12.7408 13.3332Z"
          fill="currentColor"/>
</svg>
