<svg width="24" height="24" viewBox="0 0 24 24" fill="none" xmlns="http://www.w3.org/2000/svg">
    <path d="M20.4139 14.7641L14.8966 4.20071C14.1552 2.77942 13.1293 2 12 2C10.8707 2 9.84481 2.77942 9.10343 4.20071L3.58614 14.7641C2.88786 16.1121 2.81027 17.405 3.37062 18.4228C3.93097 19.4407 5.03443 20 6.48272 20H17.5173C18.9656 20 20.069 19.4407 20.6294 18.4228C21.1897 17.405 21.1121 16.1029 20.4139 14.7641ZM11.3534 8.41875C11.3534 8.04279 11.6465 7.73102 12 7.73102C12.3534 7.73102 12.6466 8.04279 12.6466 8.41875V13.0036C12.6466 13.3795 12.3534 13.6913 12 13.6913C11.6465 13.6913 11.3534 13.3795 11.3534 13.0036V8.41875ZM12.6121 16.4055C12.569 16.4422 12.5259 16.4789 12.4828 16.5155C12.431 16.5522 12.3793 16.5797 12.3276 16.5981C12.2759 16.6256 12.2241 16.6439 12.1638 16.6531C12.1121 16.6623 12.0517 16.6714 12 16.6714C11.9483 16.6714 11.8879 16.6623 11.8276 16.6531C11.7759 16.6439 11.7241 16.6256 11.6724 16.5981C11.6207 16.5797 11.569 16.5522 11.5172 16.5155C11.4741 16.4789 11.431 16.4422 11.3879 16.4055C11.2328 16.2313 11.1379 15.9929 11.1379 15.7545C11.1379 15.516 11.2328 15.2776 11.3879 15.1034C11.431 15.0667 11.4741 15.0301 11.5172 14.9934C11.569 14.9567 11.6207 14.9292 11.6724 14.9109C11.7241 14.8833 11.7759 14.865 11.8276 14.8558C11.9397 14.8283 12.0603 14.8283 12.1638 14.8558C12.2241 14.865 12.2759 14.8833 12.3276 14.9109C12.3793 14.9292 12.431 14.9567 12.4828 14.9934C12.5259 15.0301 12.569 15.0667 12.6121 15.1034C12.7672 15.2776 12.8621 15.516 12.8621 15.7545C12.8621 15.9929 12.7672 16.2313 12.6121 16.4055Z"
          fill="currentColor"/>
</svg>
