<svg width="17" height="26" viewBox="0 0 17 26" fill="none" xmlns="http://www.w3.org/2000/svg">
<path d="M8.52213 25.9286V19.4415L0.497314 14.7487L8.52213 25.9286Z" fill="#F0CDC2"/>
<path fill-rule="evenodd" clip-rule="evenodd" d="M0.444503 14.7C0.467335 14.675 0.504591 14.6693 0.533862 14.6864L8.55868 19.3792C8.5807 19.3921 8.59424 19.4157 8.59424 19.4412V25.9283C8.59424 25.9595 8.57411 25.9871 8.54442 25.9967C8.51473 26.0062 8.48226 25.9955 8.46407 25.9702L0.439257 14.7903C0.419483 14.7627 0.421671 14.7251 0.444503 14.7ZM0.752898 14.9809L8.4506 25.7051V19.4824L0.752898 14.9809Z" fill="#1616B4"/>
<path d="M8.54858 25.9286V19.4415L16.5733 14.7487L8.54858 25.9286Z" fill="#C9B3F5"/>
<path fill-rule="evenodd" clip-rule="evenodd" d="M16.6267 14.7C16.6496 14.7251 16.6518 14.7627 16.632 14.7903L8.60722 25.9702C8.58903 25.9955 8.55657 26.0062 8.52688 25.9967C8.49718 25.9871 8.47705 25.9595 8.47705 25.9283V19.4412C8.47705 19.4157 8.49059 19.3921 8.51262 19.3792L16.5374 14.6864C16.5667 14.6693 16.6039 14.675 16.6267 14.7ZM8.6207 19.4824V25.7051L16.3183 14.9809L8.6207 19.4824Z" fill="#1616B4"/>
<path d="M8.52274 17.8286V9.54932L0.405884 13.1839L8.52274 17.8286Z" fill="#88AAF1"/>
<path fill-rule="evenodd" clip-rule="evenodd" d="M8.56111 9.48976C8.58154 9.503 8.59388 9.52569 8.59388 9.55003V17.8293C8.59388 17.8549 8.58024 17.8786 8.55809 17.8915C8.53593 17.9043 8.50861 17.9044 8.48638 17.8917L0.369526 13.247C0.346065 13.2336 0.332128 13.2081 0.333462 13.1811C0.334796 13.1541 0.351175 13.1302 0.375845 13.1191L8.4927 9.48448C8.51492 9.47453 8.54067 9.47652 8.56111 9.48976ZM0.563477 13.1925L8.45023 17.7055V9.66089L0.563477 13.1925Z" fill="#1616B4"/>
<path d="M8.54858 17.8286V9.54932L16.6655 13.1839L8.54858 17.8286Z" fill="#C9B3F5"/>
<path fill-rule="evenodd" clip-rule="evenodd" d="M8.50982 9.48976C8.53026 9.47652 8.55601 9.47453 8.57823 9.48448L16.6951 13.1191C16.7198 13.1302 16.7362 13.1541 16.7375 13.1811C16.7388 13.2081 16.7249 13.2336 16.7014 13.247L8.58455 17.8917C8.56232 17.9044 8.535 17.9043 8.51284 17.8915C8.49069 17.8786 8.47705 17.8549 8.47705 17.8293V9.55003C8.47705 9.52569 8.48939 9.503 8.50982 9.48976ZM8.6207 9.66089V17.7055L16.5075 13.1925L8.6207 9.66089Z" fill="#1616B4"/>
<path d="M0.405884 13.1841L8.52272 0.0718384V9.54946L0.405884 13.1841Z" fill="#F0CDC2"/>
<path fill-rule="evenodd" clip-rule="evenodd" d="M8.54168 0.00274686C8.57256 0.0115294 8.59385 0.0397311 8.59385 0.0718296V9.54945C8.59385 9.57777 8.57722 9.60344 8.55138 9.61501L0.434552 13.2496C0.405756 13.2625 0.371917 13.2551 0.351142 13.2314C0.330367 13.2076 0.327522 13.1731 0.344129 13.1463L8.46096 0.0340259C8.47786 0.00673342 8.51081 -0.00603566 8.54168 0.00274686ZM0.58946 13.0229L8.45021 9.50292V0.324314L0.58946 13.0229Z" fill="#1616B4"/>
<path d="M16.6654 13.1841L8.54858 0.0718384V9.54946L16.6654 13.1841Z" fill="#B8FAF6"/>
<path fill-rule="evenodd" clip-rule="evenodd" d="M8.52922 0.00274687C8.5601 -0.00603566 8.59305 0.00673341 8.60994 0.0340259L16.7268 13.1463C16.7434 13.1731 16.7405 13.2076 16.7198 13.2314C16.699 13.2551 16.6652 13.2625 16.6364 13.2496L8.51952 9.61501C8.49368 9.60344 8.47705 9.57777 8.47705 9.54945V0.0718296C8.47705 0.0397311 8.49835 0.0115294 8.52922 0.00274687ZM8.6207 0.324314V9.50292L16.4815 13.0229L8.6207 0.324314Z" fill="#1616B4"/>
</svg>
