<svg width="41" height="40" viewBox="0 0 41 40" fill="none" xmlns="http://www.w3.org/2000/svg">
<g clip-path="url(#clip0_1174_19617)">
<path d="M33.002 6.86163H8.30469V29.3084H33.002V6.86163Z" fill="white"/>
<path fill-rule="evenodd" clip-rule="evenodd" d="M40.6537 20.0001C40.6537 31.0312 31.7054 39.9735 20.667 39.9735C9.62864 39.9735 0.680298 31.0312 0.680298 20.0001C0.680298 8.96907 9.62864 0.0266724 20.667 0.0266724C31.7054 0.0266724 40.6537 8.96907 40.6537 20.0001ZM15.0033 27.9485H11.1245C10.3094 27.9485 9.90681 27.9485 9.66132 27.7916C9.39617 27.6198 9.23415 27.3352 9.21451 27.0211C9.19977 26.7317 9.4011 26.3783 9.80371 25.6718L19.3811 8.80154C19.7886 8.08516 19.9948 7.72697 20.255 7.59449C20.5349 7.4522 20.8688 7.4522 21.1487 7.59449C21.4089 7.72697 21.6151 8.08516 22.0226 8.80154L23.9915 12.2362L24.0016 12.2537C24.4417 13.0223 24.6649 13.412 24.7624 13.8211C24.8704 14.2676 24.8704 14.7386 24.7624 15.1851C24.6642 15.5973 24.4433 15.9898 23.9964 16.77L18.9657 25.657L18.9527 25.6798C18.5096 26.4547 18.2851 26.8474 17.9739 27.1437C17.6351 27.4676 17.2276 27.703 16.7807 27.8357C16.3732 27.9485 15.9166 27.9485 15.0033 27.9485ZM24.7987 27.9485H30.3567C31.1766 27.9485 31.5891 27.9485 31.8348 27.7868C32.0999 27.615 32.2667 27.3253 32.2816 27.0115C32.2957 26.7315 32.0988 26.3918 31.7129 25.7263C31.6996 25.7037 31.6863 25.6806 31.6727 25.6572L28.8887 20.8977L28.857 20.8441C28.4658 20.183 28.2683 19.8491 28.0147 19.7201C27.735 19.5778 27.4058 19.5778 27.126 19.7201C26.8707 19.8526 26.6645 20.2009 26.257 20.9026L23.4829 25.6621L23.4734 25.6785C23.0673 26.379 22.8643 26.7291 22.8789 27.0163C22.8986 27.3304 23.0606 27.6198 23.3257 27.7916C23.5663 27.9485 23.9788 27.9485 24.7987 27.9485Z" fill="#E84142"/>
</g>
<defs>
<clipPath id="clip0_1174_19617">
<rect width="40" height="40" fill="white" transform="translate(0.666626)"/>
</clipPath>
</defs>
</svg>
