<svg width="40" height="40" viewBox="0 0 40 40" fill="none" xmlns="http://www.w3.org/2000/svg">
<g clip-path="url(#clip0_1174_20006)">
<mask id="mask0_1174_20006" style="mask-type:luminance" maskUnits="userSpaceOnUse" x="0" y="0" width="40" height="40">
<path d="M19.9998 39.5928C30.8206 39.5928 39.5926 30.8208 39.5926 20C39.5926 9.17923 30.8206 0.407227 19.9998 0.407227C9.17898 0.407227 0.406982 9.17923 0.406982 20C0.406982 30.8208 9.17898 39.5928 19.9998 39.5928Z" fill="white"/>
</mask>
<g mask="url(#mask0_1174_20006)">
<path d="M41.4482 -1.44788H-1.44775V41.4481H41.4482V-1.44788Z" fill="url(#paint0_linear_1174_20006)"/>
</g>
<path d="M25.6664 24.2281L31.2096 21.0273C31.5032 20.8577 31.6848 20.5425 31.6848 20.2033V13.8025C31.6848 13.4641 31.5024 13.1481 31.2096 12.9785L25.6664 9.77766C25.3728 9.60806 25.0088 9.60886 24.7152 9.77766L19.172 12.9785C18.8784 13.1481 18.6968 13.4641 18.6968 13.8025V25.2417L14.8096 27.4857L10.9224 25.2417V20.7529L14.8096 18.5089L17.3736 19.9889V16.9777L15.2848 15.7721C15.1408 15.6889 14.976 15.6449 14.8088 15.6449C14.6416 15.6449 14.4768 15.6889 14.3336 15.7721L8.79039 18.9729C8.49679 19.1425 8.31519 19.4577 8.31519 19.7969V26.1977C8.31519 26.5361 8.49759 26.8521 8.79039 27.0217L14.3336 30.2225C14.6264 30.3913 14.9912 30.3913 15.2848 30.2225L20.828 27.0225C21.1216 26.8529 21.3032 26.5369 21.3032 26.1985V14.7593L21.3736 14.7193L25.1904 12.5153L29.0776 14.7593V19.2481L25.1904 21.4921L22.6304 20.0137V23.0249L24.7152 24.2289C25.0088 24.3977 25.3728 24.3977 25.6664 24.2289V24.2281Z" fill="white"/>
</g>
<defs>
<linearGradient id="paint0_linear_1174_20006" x1="-9.28695" y1="2.07772" x2="34.9962" y2="29.1769" gradientUnits="userSpaceOnUse">
<stop stop-color="#A229C5"/>
<stop offset="1" stop-color="#7B3FE4"/>
</linearGradient>
<clipPath id="clip0_1174_20006">
<rect width="40" height="40" fill="white"/>
</clipPath>
</defs>
</svg>
