<svg width="41" height="40" viewBox="0 0 41 40" fill="none" xmlns="http://www.w3.org/2000/svg">
<rect x="0.666626" width="40" height="40" rx="20" fill="#121212"/>
<g clip-path="url(#clip0_1452_2878)">
<path d="M13.0176 16.1164L9.0748 14.1088C8.76543 14.7144 8.50543 15.3496 8.2948 15.9979L12.5042 17.3605C12.6424 16.9326 12.8135 16.5146 13.0176 16.1164Z" fill="white"/>
<path d="M16.365 12.5785L18.547 16.3402C18.8663 16.1559 19.2086 16.0144 19.5607 15.919L18.4319 11.7195C18.7182 11.6438 19.0111 11.578 19.3073 11.5319L18.6129 7.16125C17.9415 7.26657 17.2734 7.42784 16.6283 7.63847L17.9777 11.7787C17.5465 11.9202 17.1286 12.0947 16.727 12.2987L14.7458 8.42505C14.1435 8.73442 13.5577 9.09315 13.0114 9.49467L15.6179 13.0656C15.8582 12.8911 16.1083 12.7299 16.365 12.5785Z" fill="white"/>
<path d="M28.0851 15.6952L24.3234 17.8805C24.5077 18.1997 24.6525 18.542 24.7479 18.8941L28.9474 17.762C29.0264 18.0483 29.0889 18.3412 29.135 18.6341L33.5056 17.9397C33.4003 17.2683 33.2391 16.6002 33.0251 15.9552L28.8882 17.3111C28.7467 16.88 28.5722 16.462 28.3682 16.0605L32.2418 14.0726C31.9325 13.4703 31.5737 12.8845 31.1722 12.3382L27.6013 14.9481C27.7725 15.1883 27.9337 15.4384 28.0851 15.6952Z" fill="white"/>
<path d="M26.5513 8.4053C25.9458 8.09594 25.3106 7.83594 24.6622 7.62531L23.303 11.8347C23.7275 11.9729 24.1455 12.144 24.547 12.3481L26.5513 8.4053Z" fill="white"/>
<path d="M24.9781 12.5029L22.7698 16.3371C23.089 16.5214 23.3852 16.7484 23.6452 17.0084L29.8391 10.7915C29.3586 10.311 28.8353 9.86667 28.289 9.46844L25.7351 12.9933C25.4915 12.8155 25.2414 12.651 24.9781 12.5029Z" fill="white"/>
<path d="M13.1696 15.6821L17.0005 17.8937C17.1848 17.5745 17.4118 17.2783 17.6718 17.015L11.4615 10.8177C10.981 11.2983 10.5367 11.8215 10.1384 12.3679L13.6599 14.9251C13.4855 15.1686 13.321 15.4221 13.1696 15.6821Z" fill="white"/>
<path d="M22.0061 11.4562L22.6742 7.15468C22.0127 7.05266 21.338 7 20.6633 7H20.6534V15.7742H20.6633C21.0319 15.7742 21.4005 15.8203 21.7527 15.9157L22.8881 11.6405C22.5985 11.5615 22.3056 11.5023 22.0061 11.4562Z" fill="white"/>
<path d="M16.5823 18.9106L12.3071 17.7719C12.2314 18.0615 12.1689 18.3577 12.1228 18.6539L7.82131 17.9825C7.71928 18.644 7.66663 19.3253 7.66663 20H16.4408C16.4408 19.6281 16.4902 19.2627 16.5823 18.9106Z" fill="white"/>
<path d="M28.3158 23.8835L32.2586 25.8911C32.568 25.2855 32.8279 24.6504 33.0386 24.002L28.8292 22.6395C28.691 23.0673 28.5198 23.4853 28.3158 23.8835Z" fill="white"/>
<path d="M24.9645 27.4183L22.7825 23.6565C22.4632 23.8408 22.121 23.9823 21.7688 24.0778L22.8977 28.2773C22.6113 28.3529 22.3184 28.4188 22.0222 28.4649L22.7166 32.8355C23.388 32.7302 24.0561 32.5689 24.7012 32.3583L23.3518 28.218C23.783 28.0765 24.201 27.9021 24.6025 27.698L26.587 31.5717C27.1893 31.2623 27.7751 30.9036 28.3215 30.5021L25.7149 26.9279C25.4746 27.1089 25.2245 27.2702 24.9645 27.4183Z" fill="white"/>
<path d="M13.2484 24.3048L17.0102 22.1162C16.8259 21.797 16.681 21.4547 16.5856 21.1025L12.3861 22.2347C12.3071 21.9484 12.2446 21.6554 12.1985 21.3625L7.82788 22.057C7.9332 22.7284 8.09446 23.3965 8.30839 24.0415L12.4454 22.6889C12.5869 23.1167 12.7613 23.538 12.9653 23.9395L9.09168 25.9273C9.40105 26.5296 9.75978 27.1155 10.1613 27.6618L13.7322 25.0519C13.561 24.8117 13.3998 24.5615 13.2484 24.3048Z" fill="white"/>
<path d="M14.7826 31.5946C15.3882 31.904 16.0234 32.164 16.6717 32.3746L18.0309 28.1653C17.6064 28.027 17.1884 27.8559 16.7869 27.6519L14.7826 31.5946Z" fill="white"/>
<path d="M16.3517 27.4972L18.5601 23.663C18.2408 23.4787 17.9446 23.2516 17.6846 22.9916L11.4907 29.2086C11.9712 29.6891 12.4945 30.1334 13.0408 30.5316L15.5948 27.0068C15.8383 27.1813 16.0917 27.3458 16.3517 27.4972Z" fill="white"/>
<path d="M28.1602 24.318L24.3294 22.1063C24.145 22.4256 23.918 22.7218 23.658 22.9851L29.8716 29.1823C30.3521 28.7018 30.7964 28.1785 31.1947 27.6321L27.6731 25.0749C27.8476 24.8281 28.0121 24.578 28.1602 24.318Z" fill="white"/>
<path d="M19.5776 24.0843L18.4421 28.3595C18.7318 28.4352 19.028 28.4977 19.3242 28.5438L18.6561 32.8453C19.3176 32.9473 19.9923 33 20.6669 33H20.6768V24.2258H20.6669C20.2983 24.2258 19.9297 24.1764 19.5776 24.0843Z" fill="white"/>
<path d="M24.8927 20C24.8927 20.3719 24.8467 20.7372 24.7512 21.0894L29.0264 22.2281C29.1021 21.9385 29.1646 21.6423 29.2107 21.3461L33.5122 22.0175C33.6143 21.3559 33.6669 20.6747 33.6669 20H24.8927Z" fill="white"/>
</g>
<defs>
<clipPath id="clip0_1452_2878">
<rect width="26" height="26" fill="white" transform="translate(7.66663 7)"/>
</clipPath>
</defs>
</svg>
