<svg width="27" height="26" viewBox="0 0 27 26" fill="none" xmlns="http://www.w3.org/2000/svg">
<path d="M13.8338 2.7572C14.3085 2.7557 14.7741 2.88711 15.178 3.13655C15.5819 3.38599 15.9079 3.7435 16.1192 4.16863L23.3067 18.5436C23.5017 18.9332 23.5939 19.3663 23.5744 19.8015C23.555 20.2368 23.4246 20.6599 23.1955 21.0306C22.9665 21.4012 22.6465 21.7072 22.266 21.9194C21.8854 22.1315 21.4569 22.2429 21.0212 22.2428H6.64629C6.21064 22.2427 5.78224 22.1313 5.40179 21.9191C5.02133 21.7069 4.70145 21.4009 4.47253 21.0302C4.24361 20.6596 4.11326 20.2366 4.09385 19.8014C4.07443 19.3661 4.16661 18.9332 4.36163 18.5436L11.5483 4.16863C11.7596 3.7435 12.0856 3.38599 12.4895 3.13655C12.8934 2.88711 13.359 2.7557 13.8338 2.7572ZM13.8338 1C13.033 0.99992 12.2481 1.22279 11.5668 1.64363C10.8856 2.06448 10.335 2.66669 9.97667 3.3828L2.7892 17.7578C2.46021 18.4153 2.30479 19.146 2.3377 19.8805C2.37061 20.615 2.59076 21.3289 2.97723 21.9544C3.36371 22.5798 3.90368 23.0961 4.54585 23.4541C5.18801 23.8122 5.91105 24.0001 6.64629 24H21.0212C21.7564 23.9999 22.4793 23.8119 23.1214 23.4539C23.7635 23.0958 24.3033 22.5795 24.6897 21.9541C25.0761 21.3286 25.2962 20.6148 25.3291 19.8803C25.3619 19.1459 25.2065 18.4153 24.8775 17.7578L17.6908 3.3828C17.3325 2.66669 16.7819 2.06448 16.1007 1.64363C15.4195 1.22279 14.6345 0.99992 13.8338 1Z" fill="#5DEB5A"/>
</svg>
