<svg width="41" height="40" viewBox="0 0 41 40" fill="none" xmlns="http://www.w3.org/2000/svg">
<path d="M20.3334 40C31.3791 40 40.3334 31.0457 40.3334 20C40.3334 8.95431 31.3791 0 20.3334 0C9.28768 0 0.333374 8.95431 0.333374 20C0.333374 31.0457 9.28768 40 20.3334 40Z" fill="#FF0420"/>
<path d="M14.5044 25.3157C13.3135 25.3157 12.3378 25.0355 11.5773 24.4751C10.8267 23.9047 10.4514 23.0941 10.4514 22.0433C10.4514 21.8232 10.4765 21.5529 10.5265 21.2327C10.6566 20.5122 10.8417 19.6465 11.0819 18.6358C11.7624 15.8838 13.5187 14.5078 16.3508 14.5078C17.1213 14.5078 17.8118 14.6379 18.4223 14.8981C19.0328 15.1482 19.5131 15.5285 19.8633 16.0389C20.2136 16.5393 20.3888 17.1397 20.3888 17.8402C20.3888 18.0504 20.3637 18.3156 20.3137 18.6358C20.1636 19.5265 19.9834 20.3921 19.7733 21.2327C19.423 22.6037 18.8176 23.6295 17.9569 24.31C17.0963 24.9805 15.9455 25.3157 14.5044 25.3157ZM14.7145 23.1541C15.275 23.1541 15.7503 22.989 16.1406 22.6588C16.5409 22.3285 16.8261 21.8232 16.9962 21.1427C17.2264 20.202 17.4016 19.3813 17.5217 18.6809C17.5617 18.4707 17.5817 18.2556 17.5817 18.0353C17.5817 17.1247 17.1063 16.6693 16.1557 16.6693C15.5952 16.6693 15.1149 16.8345 14.7145 17.1647C14.3243 17.495 14.0441 18.0004 13.874 18.6809C13.6938 19.3513 13.5137 20.172 13.3336 21.1427C13.2935 21.3428 13.2735 21.5529 13.2735 21.7731C13.2735 22.6938 13.7539 23.1541 14.7145 23.1541Z" fill="white"/>
<path d="M21.0777 25.1657C20.9677 25.1657 20.8825 25.1307 20.8225 25.0606C20.7725 24.9805 20.7575 24.8905 20.7775 24.7904L22.849 15.0332C22.869 14.9232 22.9241 14.8331 23.0141 14.763C23.1042 14.693 23.1993 14.658 23.2993 14.658H27.2923C28.4031 14.658 29.2937 14.8881 29.9642 15.3484C30.6448 15.8088 30.985 16.4743 30.985 17.3449C30.985 17.5951 30.955 17.8553 30.8949 18.1255C30.6448 19.2764 30.1394 20.127 29.3789 20.6774C28.6283 21.2278 27.5975 21.503 26.2865 21.503H24.2601L23.5696 24.7904C23.5495 24.9005 23.4945 24.9905 23.4045 25.0606C23.3144 25.1307 23.2193 25.1657 23.1193 25.1657H21.0777ZM26.3917 19.4315C26.8119 19.4315 27.1772 19.3164 27.4874 19.0862C27.8077 18.856 28.0178 18.5258 28.1179 18.0955C28.1479 17.9253 28.1629 17.7752 28.1629 17.6452C28.1629 17.3549 28.0779 17.1348 27.9077 16.9847C27.7376 16.8245 27.4474 16.7445 27.0371 16.7445H25.2357L24.6653 19.4315H26.3917Z" fill="white"/>
</svg>
