<svg width="40" height="40" viewBox="0 0 40 40" fill="none" xmlns="http://www.w3.org/2000/svg">
<mask id="mask0_1174_19628" style="mask-type:luminance" maskUnits="userSpaceOnUse" x="0" y="0" width="40" height="40">
<path d="M20 40C8.9536 40 0 31.0464 0 20C0 8.9536 8.9536 0 20 0C31.0464 0 40 8.9536 40 20C40 31.0464 31.0464 40 20 40Z" fill="white"/>
</mask>
<g mask="url(#mask0_1174_19628)">
<path fill-rule="evenodd" clip-rule="evenodd" d="M20.0004 19.9999L-8.2876 19.8255L-8.262 18.7855L20.0004 19.9999Z" fill="#FEFEFF"/>
<path fill-rule="evenodd" clip-rule="evenodd" d="M20.0006 19.9999L-8.2666 18.9583L-8.2234 18.0911L20.0006 19.9999Z" fill="#FDFEFF"/>
<path fill-rule="evenodd" clip-rule="evenodd" d="M20.0004 20L-8.23315 18.2656L-8.16915 17.4L20.0004 20Z" fill="#FCFDFF"/>
<path fill-rule="evenodd" clip-rule="evenodd" d="M20.0005 19.9999L-8.18188 17.5727L-8.09708 16.7087L20.0005 19.9999Z" fill="#FBFCFF"/>
<path fill-rule="evenodd" clip-rule="evenodd" d="M20.0003 20L-8.11328 16.8816L-8.00768 16.0208L20.0003 20Z" fill="#FAFCFF"/>
<path fill-rule="evenodd" clip-rule="evenodd" d="M20.0002 19.9999L-8.02856 16.1935L-7.90216 15.3344L20.0002 19.9999Z" fill="#F9FBFF"/>
<path fill-rule="evenodd" clip-rule="evenodd" d="M20.0004 19.9999L-7.92603 15.5055L-7.77883 14.6511L20.0004 19.9999Z" fill="#F8FAFF"/>
<path fill-rule="evenodd" clip-rule="evenodd" d="M20.0004 19.9998L-7.80762 14.8222L-7.63962 13.971L20.0004 19.9998Z" fill="#F7FAFF"/>
<path fill-rule="evenodd" clip-rule="evenodd" d="M20.0005 19.9998L-7.6731 14.1422L-7.4827 13.2942L20.0005 19.9998Z" fill="#F6F9FF"/>
<path fill-rule="evenodd" clip-rule="evenodd" d="M20.0001 19.9999L-7.52148 13.4639L-7.31028 12.6223L20.0001 19.9999Z" fill="#F5F8FF"/>
<path fill-rule="evenodd" clip-rule="evenodd" d="M20.0004 20L-7.35156 12.7904L-7.12116 11.9536L20.0004 20Z" fill="#F4F8FF"/>
<path fill-rule="evenodd" clip-rule="evenodd" d="M20.0003 19.9998L-7.16772 12.1214L-6.91492 11.291L20.0003 19.9998Z" fill="#F3F7FF"/>
<path fill-rule="evenodd" clip-rule="evenodd" d="M20.0003 19.9998L-6.96606 11.4574L-6.69246 10.6334L20.0003 19.9998Z" fill="#F2F6FF"/>
<path fill-rule="evenodd" clip-rule="evenodd" d="M20.0003 19.9999L-6.74854 10.7983L-6.45574 9.98071L20.0003 19.9999Z" fill="#F1F6FF"/>
<path fill-rule="evenodd" clip-rule="evenodd" d="M20.0004 19.9998L-6.51318 10.1438L-6.20118 9.33423L20.0004 19.9998Z" fill="#F0F5FF"/>
<path fill-rule="evenodd" clip-rule="evenodd" d="M20.0003 19.9999L-6.26367 9.49587L-5.93247 8.69427L20.0003 19.9999Z" fill="#EFF4FF"/>
<path fill-rule="evenodd" clip-rule="evenodd" d="M20.0004 19.9999L-5.99805 8.85426L-5.64605 8.06226L20.0004 19.9999Z" fill="#EEF3FF"/>
<path fill-rule="evenodd" clip-rule="evenodd" d="M20.0002 20L-5.71655 8.22077L-5.34535 7.43677L20.0002 20Z" fill="#EDF3FF"/>
<path fill-rule="evenodd" clip-rule="evenodd" d="M20.0004 19.9999L-5.42041 7.5935L-5.03001 6.8175L20.0004 19.9999Z" fill="#ECF2FF"/>
<path fill-rule="evenodd" clip-rule="evenodd" d="M20.0002 19.9999L-5.10864 6.97269L-4.69904 6.20789L20.0002 19.9999Z" fill="#EBF1FF"/>
<path fill-rule="evenodd" clip-rule="evenodd" d="M20.0005 19.9999L-4.78027 6.36148L-4.35307 5.60468L20.0005 19.9999Z" fill="#EAF1FF"/>
<path fill-rule="evenodd" clip-rule="evenodd" d="M20.0004 19.9998L-4.43799 5.75663L-3.99159 5.01263L20.0004 19.9998Z" fill="#E9F0FF"/>
<path fill-rule="evenodd" clip-rule="evenodd" d="M20.0005 19.9998L-4.08105 5.1614L-3.61705 4.427L20.0005 19.9998Z" fill="#E8EFFF"/>
<path fill-rule="evenodd" clip-rule="evenodd" d="M20.0004 19.9998L-3.70996 4.5742L-3.22676 3.8526L20.0004 19.9998Z" fill="#E7EFFF"/>
<path fill-rule="evenodd" clip-rule="evenodd" d="M20.0006 20L-3.32422 3.99676L-2.82502 3.28796L20.0006 20Z" fill="#E6EEFF"/>
<path fill-rule="evenodd" clip-rule="evenodd" d="M20.0002 19.9999L-2.92456 3.43027L-2.40776 2.73267L20.0002 19.9999Z" fill="#E5EDFF"/>
<path fill-rule="evenodd" clip-rule="evenodd" d="M20.0003 19.9998L-2.51172 2.87181L-1.97732 2.18701L20.0003 19.9998Z" fill="#E4EDFF"/>
<path fill-rule="evenodd" clip-rule="evenodd" d="M20.0003 19.9999L-2.08447 2.3247L-1.53407 1.6543L20.0003 19.9999Z" fill="#E3ECFF"/>
<path fill-rule="evenodd" clip-rule="evenodd" d="M20.0004 19.9999L-1.64282 1.7887L-1.07642 1.1311L20.0004 19.9999Z" fill="#E2EBFF"/>
<path fill-rule="evenodd" clip-rule="evenodd" d="M20.0002 19.9999L-1.19019 1.26234L-0.607786 0.619141L20.0002 19.9999Z" fill="#E1EBFF"/>
<path fill-rule="evenodd" clip-rule="evenodd" d="M20.0002 19.9999L-0.724609 0.748673L-0.126209 0.119873L20.0002 19.9999Z" fill="#E0EAFF"/>
<path fill-rule="evenodd" clip-rule="evenodd" d="M20.0003 20L-0.246094 0.246358L0.368306 -0.368042L20.0003 20Z" fill="#DFE9FF"/>
<path fill-rule="evenodd" clip-rule="evenodd" d="M20.0004 19.9999L0.246826 -0.246462L0.874026 -0.843262L20.0004 19.9999Z" fill="#DEE9FF"/>
<path fill-rule="evenodd" clip-rule="evenodd" d="M20.0002 19.9999L0.749023 -0.724912L1.39222 -1.30731L20.0002 19.9999Z" fill="#DDE8FF"/>
<path fill-rule="evenodd" clip-rule="evenodd" d="M20.0003 19.9999L1.2627 -1.1905L1.9203 -1.7569L20.0003 19.9999Z" fill="#DCE7FF"/>
<path fill-rule="evenodd" clip-rule="evenodd" d="M20.0003 19.9999L1.78906 -1.64333L2.45946 -2.19373L20.0003 19.9999Z" fill="#DBE7FF"/>
<path fill-rule="evenodd" clip-rule="evenodd" d="M20.0004 19.9999L2.3252 -2.08488L3.01 -2.61768L20.0004 19.9999Z" fill="#DAE6FF"/>
<path fill-rule="evenodd" clip-rule="evenodd" d="M20.0003 19.9999L2.87231 -2.51207L3.56991 -3.02887L20.0003 19.9999Z" fill="#D9E5FF"/>
<path fill-rule="evenodd" clip-rule="evenodd" d="M20.0003 19.9998L3.43066 -2.92499L4.13946 -3.42419L20.0003 19.9998Z" fill="#D8E5FF"/>
<path fill-rule="evenodd" clip-rule="evenodd" d="M20.0003 19.9999L3.99707 -3.32486L4.71867 -3.80646L20.0003 19.9999Z" fill="#D7E4FF"/>
<path fill-rule="evenodd" clip-rule="evenodd" d="M20.0003 19.9998L4.57471 -3.71056L5.30911 -4.17456L20.0003 19.9998Z" fill="#D6E3FF"/>
<path fill-rule="evenodd" clip-rule="evenodd" d="M20.0005 19.9999L5.16211 -4.08168L5.90611 -4.52808L20.0005 19.9999Z" fill="#D5E3FF"/>
<path fill-rule="evenodd" clip-rule="evenodd" d="M20.0003 19.9999L5.75708 -4.43846L6.51228 -4.86566L20.0003 19.9999Z" fill="#D4E2FF"/>
<path fill-rule="evenodd" clip-rule="evenodd" d="M20.0002 19.9998L6.36182 -4.78095L7.12662 -5.19055L20.0002 19.9998Z" fill="#D3E1FF"/>
<path fill-rule="evenodd" clip-rule="evenodd" d="M20.0003 20L6.97314 -5.10882L7.74914 -5.49762L20.0003 20Z" fill="#D2E0FF"/>
<path fill-rule="evenodd" clip-rule="evenodd" d="M20.0004 20L7.59399 -5.42081L8.37799 -5.79041L20.0004 20Z" fill="#D1E0FF"/>
<path fill-rule="evenodd" clip-rule="evenodd" d="M20.0004 19.9999L8.22119 -5.71691L9.01479 -6.06891L20.0004 19.9999Z" fill="#D0DFFF"/>
<path fill-rule="evenodd" clip-rule="evenodd" d="M20.0006 19.9998L8.85498 -5.99856L9.65818 -6.33136L20.0006 19.9998Z" fill="#CFDEFF"/>
<path fill-rule="evenodd" clip-rule="evenodd" d="M20.0003 20L9.49634 -6.26405L10.3075 -6.57605L20.0003 20Z" fill="#CEDEFF"/>
<path fill-rule="evenodd" clip-rule="evenodd" d="M20.0003 19.9998L10.1443 -6.51378L10.9619 -6.80658L20.0003 19.9998Z" fill="#CDDDFF"/>
<path fill-rule="evenodd" clip-rule="evenodd" d="M20.0004 19.9998L10.7988 -6.74895L11.6228 -7.01935L20.0004 19.9998Z" fill="#CCDCFF"/>
<path fill-rule="evenodd" clip-rule="evenodd" d="M20.0004 19.9998L11.458 -6.96657L12.2884 -7.21777L20.0004 19.9998Z" fill="#CBDCFF"/>
<path fill-rule="evenodd" clip-rule="evenodd" d="M20.0002 20L12.1218 -7.16804L12.9586 -7.39844L20.0002 20Z" fill="#CADBFF"/>
<path fill-rule="evenodd" clip-rule="evenodd" d="M20.0004 20L12.7908 -7.35203L13.6324 -7.56323L20.0004 20Z" fill="#C9DAFF"/>
<path fill-rule="evenodd" clip-rule="evenodd" d="M20.0004 19.9998L13.4644 -7.52177L14.3108 -7.71057L20.0004 19.9998Z" fill="#C8DAFF"/>
<path fill-rule="evenodd" clip-rule="evenodd" d="M20.0002 19.9999L14.1426 -7.67374L14.9922 -7.84174L20.0002 19.9999Z" fill="#C7D9FF"/>
<path fill-rule="evenodd" clip-rule="evenodd" d="M20.0004 20L14.8228 -7.80805L15.6772 -7.95685L20.0004 20Z" fill="#C6D8FF"/>
<path fill-rule="evenodd" clip-rule="evenodd" d="M20.0003 19.9999L15.5059 -7.9265L16.3651 -8.0545L20.0003 19.9999Z" fill="#C5D8FF"/>
<path fill-rule="evenodd" clip-rule="evenodd" d="M20.0005 19.9999L16.1941 -8.02892L17.0549 -8.13452L20.0005 19.9999Z" fill="#C4D7FF"/>
<path fill-rule="evenodd" clip-rule="evenodd" d="M20.0002 19.9999L16.8818 -8.11375L17.7458 -8.19855L20.0002 19.9999Z" fill="#C3D6FF"/>
<path fill-rule="evenodd" clip-rule="evenodd" d="M20.0004 19.9999L17.5732 -8.18246L18.4388 -8.24646L20.0004 19.9999Z" fill="#C2D6FF"/>
<path fill-rule="evenodd" clip-rule="evenodd" d="M20.0005 19.9999L18.2661 -8.23367L19.1333 -8.27527L20.0005 19.9999Z" fill="#C1D5FF"/>
<path fill-rule="evenodd" clip-rule="evenodd" d="M20.0003 19.9999L18.9587 -8.26735L19.8259 -8.28815L20.0003 19.9999Z" fill="#C0D4FF"/>
<path fill-rule="evenodd" clip-rule="evenodd" d="M20.0005 19.9999L19.6533 -8.28485H20.5205L20.0005 19.9999Z" fill="#BFD4FF"/>
<path fill-rule="evenodd" clip-rule="evenodd" d="M20.0002 19.9999L20.3474 -8.28485L21.2146 -8.26245L20.0002 19.9999Z" fill="#BED3FF"/>
<path fill-rule="evenodd" clip-rule="evenodd" d="M20.0002 20L21.0418 -8.26721L21.9074 -8.22401L20.0002 20Z" fill="#BDD2FF"/>
<path fill-rule="evenodd" clip-rule="evenodd" d="M20.0002 19.9998L21.7346 -8.23376L22.6002 -8.16977L20.0002 19.9998Z" fill="#BCD2FF"/>
<path fill-rule="evenodd" clip-rule="evenodd" d="M20.0002 19.9999L22.4274 -8.1825L23.2914 -8.0977L20.0002 19.9999Z" fill="#BBD1FF"/>
<path fill-rule="evenodd" clip-rule="evenodd" d="M20.0002 19.9998L23.117 -8.11377L23.9794 -8.00817L20.0002 19.9998Z" fill="#BAD0FF"/>
<path fill-rule="evenodd" clip-rule="evenodd" d="M20.0002 19.9999L23.8066 -8.02887L24.6658 -7.90247L20.0002 19.9999Z" fill="#B9D0FF"/>
<path fill-rule="evenodd" clip-rule="evenodd" d="M20.0002 19.9999L24.493 -7.92651L25.349 -7.77931L20.0002 19.9999Z" fill="#B8CFFF"/>
<path fill-rule="evenodd" clip-rule="evenodd" d="M20.0002 19.9999L25.1778 -7.80811L26.029 -7.64011L20.0002 19.9999Z" fill="#B7CEFF"/>
<path fill-rule="evenodd" clip-rule="evenodd" d="M20.0002 20L25.8578 -7.67365L26.7058 -7.48325L20.0002 20Z" fill="#B6CDFF"/>
<path fill-rule="evenodd" clip-rule="evenodd" d="M20.0002 19.9999L26.5362 -7.52173L27.3778 -7.31053L20.0002 19.9999Z" fill="#B5CDFF"/>
<path fill-rule="evenodd" clip-rule="evenodd" d="M20.0002 20L27.2098 -7.35205L28.045 -7.12165L20.0002 20Z" fill="#B4CCFF"/>
<path fill-rule="evenodd" clip-rule="evenodd" d="M20.0002 19.9999L27.8786 -7.16809L28.709 -6.91529L20.0002 19.9999Z" fill="#B3CBFF"/>
<path fill-rule="evenodd" clip-rule="evenodd" d="M20.0002 19.9999L28.5426 -6.96649L29.3666 -6.69289L20.0002 19.9999Z" fill="#B2CBFF"/>
<path fill-rule="evenodd" clip-rule="evenodd" d="M20.0002 20L29.2018 -6.74884L30.0194 -6.45604L20.0002 20Z" fill="#B1CAFF"/>
<path fill-rule="evenodd" clip-rule="evenodd" d="M20.0002 19.9998L29.8562 -6.51379L30.6658 -6.20179L20.0002 19.9998Z" fill="#B0C9FF"/>
<path fill-rule="evenodd" clip-rule="evenodd" d="M20.0002 20L30.5026 -6.26404L31.3058 -5.93284L20.0002 20Z" fill="#AFC9FF"/>
<path fill-rule="evenodd" clip-rule="evenodd" d="M20.0002 19.9999L31.1442 -5.99847L31.9378 -5.64647L20.0002 19.9999Z" fill="#AEC8FF"/>
<path fill-rule="evenodd" clip-rule="evenodd" d="M20.0002 19.9999L31.7794 -5.71686L32.5634 -5.34566L20.0002 19.9999Z" fill="#ADC7FF"/>
<path fill-rule="evenodd" clip-rule="evenodd" d="M20.0002 19.9999L32.4066 -5.4209L33.1826 -5.0305L20.0002 19.9999Z" fill="#ACC7FF"/>
<path fill-rule="evenodd" clip-rule="evenodd" d="M20.0002 19.9999L33.0274 -5.10895L33.7922 -4.69935L20.0002 19.9999Z" fill="#ABC6FF"/>
<path fill-rule="evenodd" clip-rule="evenodd" d="M20.0002 19.9999L33.6386 -4.78088L34.3954 -4.35368L20.0002 19.9999Z" fill="#AAC5FF"/>
<path fill-rule="evenodd" clip-rule="evenodd" d="M20.0002 19.9998L34.2434 -4.4386L34.9874 -3.9922L20.0002 19.9998Z" fill="#A9C5FF"/>
<path fill-rule="evenodd" clip-rule="evenodd" d="M20.0002 19.9998L34.8386 -4.08179L35.5714 -3.61779L20.0002 19.9998Z" fill="#A8C4FF"/>
<path fill-rule="evenodd" clip-rule="evenodd" d="M20.0002 19.9999L35.4258 -3.71051L36.1474 -3.22731L20.0002 19.9999Z" fill="#A7C3FF"/>
<path fill-rule="evenodd" clip-rule="evenodd" d="M20.0002 19.9998L36.0034 -3.32495L36.7122 -2.82575L20.0002 19.9998Z" fill="#A6C3FF"/>
<path fill-rule="evenodd" clip-rule="evenodd" d="M20.0002 19.9999L36.5698 -2.92493L37.2674 -2.40813L20.0002 19.9999Z" fill="#A5C2FF"/>
<path fill-rule="evenodd" clip-rule="evenodd" d="M20.0002 19.9999L37.1282 -2.51215L37.8114 -1.97775L20.0002 19.9999Z" fill="#A4C1FF"/>
<path fill-rule="evenodd" clip-rule="evenodd" d="M20.0002 19.9999L37.6754 -2.0849L38.3458 -1.5345L20.0002 19.9999Z" fill="#A3C1FF"/>
<path fill-rule="evenodd" clip-rule="evenodd" d="M20.0002 19.9998L38.2114 -1.64337L38.869 -1.07697L20.0002 19.9998Z" fill="#A2C0FF"/>
<path fill-rule="evenodd" clip-rule="evenodd" d="M20.0002 19.9999L38.7378 -1.19049L39.381 -0.608091L20.0002 19.9999Z" fill="#A1BFFF"/>
<path fill-rule="evenodd" clip-rule="evenodd" d="M20.0002 19.9999L39.2514 -0.724854L39.8802 -0.126454L20.0002 19.9999Z" fill="#A0BFFF"/>
<path fill-rule="evenodd" clip-rule="evenodd" d="M20.0002 19.9999L39.7538 -0.246521L40.3682 0.367879L20.0002 19.9999Z" fill="#9FBEFF"/>
<path fill-rule="evenodd" clip-rule="evenodd" d="M20.0002 19.9999L40.245 0.246277L40.8434 0.873477L20.0002 19.9999Z" fill="#9EBDFF"/>
<path fill-rule="evenodd" clip-rule="evenodd" d="M20.0002 19.9999L40.725 0.748718L41.3074 1.39192L20.0002 19.9999Z" fill="#9DBDFF"/>
<path fill-rule="evenodd" clip-rule="evenodd" d="M20.0002 19.9999L41.1906 1.26227L41.757 1.91987L20.0002 19.9999Z" fill="#9CBCFF"/>
<path fill-rule="evenodd" clip-rule="evenodd" d="M20.0002 20L41.6434 1.78876L42.1938 2.45916L20.0002 20Z" fill="#9BBBFF"/>
<path fill-rule="evenodd" clip-rule="evenodd" d="M20.0002 19.9998L42.085 2.32465L42.6178 3.00945L20.0002 19.9998Z" fill="#9ABAFF"/>
<path fill-rule="evenodd" clip-rule="evenodd" d="M20.0002 19.9998L42.5122 2.87183L43.029 3.56943L20.0002 19.9998Z" fill="#99BAFF"/>
<path fill-rule="evenodd" clip-rule="evenodd" d="M20.0002 19.9998L42.925 3.43024L43.4242 4.13904L20.0002 19.9998Z" fill="#98B9FF"/>
<path fill-rule="evenodd" clip-rule="evenodd" d="M20.0002 19.9998L43.325 3.99664L43.8066 4.71824L20.0002 19.9998Z" fill="#97B8FF"/>
<path fill-rule="evenodd" clip-rule="evenodd" d="M20.0002 19.9998L43.7106 4.57422L44.1746 5.30862L20.0002 19.9998Z" fill="#96B8FF"/>
<path fill-rule="evenodd" clip-rule="evenodd" d="M20.0002 20L44.0818 5.16156L44.5282 5.90556L20.0002 20Z" fill="#95B7FF"/>
<path fill-rule="evenodd" clip-rule="evenodd" d="M20.0002 19.9999L44.4386 5.75671L44.8658 6.51191L20.0002 19.9999Z" fill="#94B6FF"/>
<path fill-rule="evenodd" clip-rule="evenodd" d="M20.0002 19.9999L44.781 6.36151L45.189 7.12631L20.0002 19.9999Z" fill="#93B6FF"/>
<path fill-rule="evenodd" clip-rule="evenodd" d="M20.0002 19.9999L45.1074 6.97272L45.4978 7.74872L20.0002 19.9999Z" fill="#92B5FF"/>
<path fill-rule="evenodd" clip-rule="evenodd" d="M20.0002 19.9999L45.421 7.59351L45.7906 8.37751L20.0002 19.9999Z" fill="#91B4FF"/>
<path fill-rule="evenodd" clip-rule="evenodd" d="M20.0002 19.9998L45.717 8.22064L46.069 9.01424L20.0002 19.9998Z" fill="#90B4FF"/>
<path fill-rule="evenodd" clip-rule="evenodd" d="M20.0002 20L45.9986 8.85437L46.3298 9.65757L20.0002 20Z" fill="#8FB3FF"/>
<path fill-rule="evenodd" clip-rule="evenodd" d="M20.0002 19.9999L46.2642 9.49591L46.5762 10.3071L20.0002 19.9999Z" fill="#8EB2FF"/>
<path fill-rule="evenodd" clip-rule="evenodd" d="M20.0002 19.9999L46.5138 10.1439L46.8066 10.9615L20.0002 19.9999Z" fill="#8DB2FF"/>
<path fill-rule="evenodd" clip-rule="evenodd" d="M20.0002 19.9998L46.7474 10.7982L47.0194 11.6222L20.0002 19.9998Z" fill="#8CB1FF"/>
<path fill-rule="evenodd" clip-rule="evenodd" d="M20.0002 19.9998L46.965 11.4574L47.2178 12.2878L20.0002 19.9998Z" fill="#8BB0FF"/>
<path fill-rule="evenodd" clip-rule="evenodd" d="M20.0002 19.9999L47.1666 12.1215L47.3986 12.9583L20.0002 19.9999Z" fill="#8AB0FF"/>
<path fill-rule="evenodd" clip-rule="evenodd" d="M20.0002 19.9998L47.3522 12.7902L47.5634 13.6318L20.0002 19.9998Z" fill="#89AFFF"/>
<path fill-rule="evenodd" clip-rule="evenodd" d="M20.0002 19.9999L47.5218 13.4639L47.7106 14.3103L20.0002 19.9999Z" fill="#88AEFF"/>
<path fill-rule="evenodd" clip-rule="evenodd" d="M20.0002 19.9999L47.6722 14.1423L47.8418 14.9919L20.0002 19.9999Z" fill="#87AEFF"/>
<path fill-rule="evenodd" clip-rule="evenodd" d="M20.0002 20L47.8082 14.8224L47.957 15.6768L20.0002 20Z" fill="#86ADFF"/>
<path fill-rule="evenodd" clip-rule="evenodd" d="M20.0002 19.9998L47.9266 15.5054L48.0546 16.3646L20.0002 19.9998Z" fill="#85ACFF"/>
<path fill-rule="evenodd" clip-rule="evenodd" d="M20.0002 19.9999L48.029 16.1935L48.1346 17.0543L20.0002 19.9999Z" fill="#84ACFF"/>
<path fill-rule="evenodd" clip-rule="evenodd" d="M20.0002 19.9999L48.1138 16.8815L48.1986 17.7455L20.0002 19.9999Z" fill="#83ABFF"/>
<path fill-rule="evenodd" clip-rule="evenodd" d="M20.0002 19.9998L48.1826 17.5726L48.2466 18.4382L20.0002 19.9998Z" fill="#82AAFF"/>
<path fill-rule="evenodd" clip-rule="evenodd" d="M20.0002 19.9998L48.2338 18.2654L48.2754 19.1326L20.0002 19.9998Z" fill="#81AAFF"/>
<path fill-rule="evenodd" clip-rule="evenodd" d="M20.0002 19.9999L48.2674 18.9583L48.2882 19.8255L20.0002 19.9999Z" fill="#80A9FF"/>
<path fill-rule="evenodd" clip-rule="evenodd" d="M20.0002 19.9999L48.2834 19.6527V20.5199L20.0002 19.9999Z" fill="#7FA8FF"/>
<path fill-rule="evenodd" clip-rule="evenodd" d="M20.0002 19.9999L48.2834 20.3471L48.2626 21.2143L20.0002 19.9999Z" fill="#7EA7FF"/>
<path fill-rule="evenodd" clip-rule="evenodd" d="M20.0002 19.9999L48.2674 21.0415L48.2242 21.9071L20.0002 19.9999Z" fill="#7DA7FF"/>
<path fill-rule="evenodd" clip-rule="evenodd" d="M20.0002 19.9999L48.2338 21.7343L48.1698 22.5999L20.0002 19.9999Z" fill="#7CA6FF"/>
<path fill-rule="evenodd" clip-rule="evenodd" d="M20.0002 19.9999L48.1826 22.4271L48.0978 23.2911L20.0002 19.9999Z" fill="#7BA5FF"/>
<path fill-rule="evenodd" clip-rule="evenodd" d="M20.0002 19.9999L48.1138 23.1167L48.0082 23.9791L20.0002 19.9999Z" fill="#7AA5FF"/>
<path fill-rule="evenodd" clip-rule="evenodd" d="M20.0002 19.9999L48.029 23.8063L47.901 24.6655L20.0002 19.9999Z" fill="#79A4FF"/>
<path fill-rule="evenodd" clip-rule="evenodd" d="M20.0002 19.9999L47.9266 24.4927L47.7794 25.3487L20.0002 19.9999Z" fill="#78A3FF"/>
<path fill-rule="evenodd" clip-rule="evenodd" d="M20.0002 19.9999L47.8082 25.1775L47.6386 26.0287L20.0002 19.9999Z" fill="#77A3FF"/>
<path fill-rule="evenodd" clip-rule="evenodd" d="M20.0002 19.9999L47.6722 25.8575L47.4834 26.7055L20.0002 19.9999Z" fill="#76A2FF"/>
<path fill-rule="evenodd" clip-rule="evenodd" d="M20.0002 19.9999L47.5218 26.5359L47.3106 27.3775L20.0002 19.9999Z" fill="#75A1FF"/>
<path fill-rule="evenodd" clip-rule="evenodd" d="M20.0002 19.9999L47.3522 27.2095L47.1218 28.0447L20.0002 19.9999Z" fill="#74A1FF"/>
<path fill-rule="evenodd" clip-rule="evenodd" d="M20.0002 19.9999L47.1666 27.8783L46.9154 28.7087L20.0002 19.9999Z" fill="#73A0FF"/>
<path fill-rule="evenodd" clip-rule="evenodd" d="M20.0002 19.9999L46.965 28.5423L46.693 29.3663L20.0002 19.9999Z" fill="#729FFF"/>
<path fill-rule="evenodd" clip-rule="evenodd" d="M20.0002 19.9999L46.7474 29.2015L46.4562 30.0191L20.0002 19.9999Z" fill="#719FFF"/>
<path fill-rule="evenodd" clip-rule="evenodd" d="M20.0002 19.9999L46.5138 29.8559L46.2018 30.6655L20.0002 19.9999Z" fill="#709EFF"/>
<path fill-rule="evenodd" clip-rule="evenodd" d="M20.0002 19.9999L46.2642 30.5023L45.9314 31.3055L20.0002 19.9999Z" fill="#6F9DFF"/>
<path fill-rule="evenodd" clip-rule="evenodd" d="M20.0002 19.9999L45.9986 31.1439L45.6466 31.9375L20.0002 19.9999Z" fill="#6E9DFF"/>
<path fill-rule="evenodd" clip-rule="evenodd" d="M20.0002 19.9999L45.717 31.7791L45.3458 32.5631L20.0002 19.9999Z" fill="#6D9CFF"/>
<path fill-rule="evenodd" clip-rule="evenodd" d="M20.0002 19.9999L45.421 32.4063L45.0306 33.1823L20.0002 19.9999Z" fill="#6C9BFF"/>
<path fill-rule="evenodd" clip-rule="evenodd" d="M20.0002 19.9999L45.1074 33.0271L44.6994 33.7919L20.0002 19.9999Z" fill="#6B9BFF"/>
<path fill-rule="evenodd" clip-rule="evenodd" d="M20.0002 19.9999L44.781 33.6383L44.3538 34.3951L20.0002 19.9999Z" fill="#6A9AFF"/>
<path fill-rule="evenodd" clip-rule="evenodd" d="M20.0002 19.9999L44.4386 34.2431L43.9922 34.9871L20.0002 19.9999Z" fill="#6999FF"/>
<path fill-rule="evenodd" clip-rule="evenodd" d="M20.0002 19.9999L44.0818 34.8383L43.6178 35.5711L20.0002 19.9999Z" fill="#6899FF"/>
<path fill-rule="evenodd" clip-rule="evenodd" d="M20.0002 19.9999L43.7106 35.4255L43.2274 36.1471L20.0002 19.9999Z" fill="#6798FF"/>
<path fill-rule="evenodd" clip-rule="evenodd" d="M20.0002 19.9999L43.325 36.0031L42.8258 36.7119L20.0002 19.9999Z" fill="#6697FF"/>
<path fill-rule="evenodd" clip-rule="evenodd" d="M20.0002 19.9999L42.925 36.5695L42.4082 37.2671L20.0002 19.9999Z" fill="#6597FF"/>
<path fill-rule="evenodd" clip-rule="evenodd" d="M20.0002 19.9999L42.5122 37.1279L41.9778 37.8111L20.0002 19.9999Z" fill="#6496FF"/>
<path fill-rule="evenodd" clip-rule="evenodd" d="M20.0002 19.9999L42.085 37.6751L41.5346 38.3455L20.0002 19.9999Z" fill="#6395FF"/>
<path fill-rule="evenodd" clip-rule="evenodd" d="M20.0002 19.9999L41.6434 38.2111L41.077 38.8687L20.0002 19.9999Z" fill="#6294FF"/>
<path fill-rule="evenodd" clip-rule="evenodd" d="M20.0002 19.9999L41.1906 38.7375L40.6082 39.3807L20.0002 19.9999Z" fill="#6194FF"/>
<path fill-rule="evenodd" clip-rule="evenodd" d="M20.0002 19.9999L40.725 39.2511L40.1266 39.8799L20.0002 19.9999Z" fill="#6093FF"/>
<path fill-rule="evenodd" clip-rule="evenodd" d="M20.0002 19.9999L40.245 39.7535L39.6322 40.3679L20.0002 19.9999Z" fill="#5F92FF"/>
<path fill-rule="evenodd" clip-rule="evenodd" d="M20.0002 19.9999L39.7538 40.2447L39.1266 40.8431L20.0002 19.9999Z" fill="#5E92FF"/>
<path fill-rule="evenodd" clip-rule="evenodd" d="M20.0002 19.9999L39.2514 40.7247L38.6082 41.3071L20.0002 19.9999Z" fill="#5D91FF"/>
<path fill-rule="evenodd" clip-rule="evenodd" d="M20.0002 19.9999L38.7378 41.1903L38.0802 41.7567L20.0002 19.9999Z" fill="#5C90FF"/>
<path fill-rule="evenodd" clip-rule="evenodd" d="M20.0002 19.9999L38.2114 41.6431L37.541 42.1935L20.0002 19.9999Z" fill="#5B90FF"/>
<path fill-rule="evenodd" clip-rule="evenodd" d="M20.0002 19.9999L37.6754 42.0847L36.9906 42.6175L20.0002 19.9999Z" fill="#5A8FFF"/>
<path fill-rule="evenodd" clip-rule="evenodd" d="M20.0002 19.9999L37.1282 42.5119L36.4306 43.0287L20.0002 19.9999Z" fill="#598EFF"/>
<path fill-rule="evenodd" clip-rule="evenodd" d="M20.0002 19.9999L36.5698 42.9247L35.861 43.4239L20.0002 19.9999Z" fill="#588EFF"/>
<path fill-rule="evenodd" clip-rule="evenodd" d="M20.0002 19.9999L36.0034 43.3247L35.2802 43.8063L20.0002 19.9999Z" fill="#578DFF"/>
<path fill-rule="evenodd" clip-rule="evenodd" d="M20.0002 19.9999L35.4258 43.7103L34.6914 44.1743L20.0002 19.9999Z" fill="#568CFF"/>
<path fill-rule="evenodd" clip-rule="evenodd" d="M20.0002 19.9999L34.8386 44.0815L34.0946 44.5279L20.0002 19.9999Z" fill="#558CFF"/>
<path fill-rule="evenodd" clip-rule="evenodd" d="M20.0002 19.9999L34.2434 44.4383L33.4882 44.8655L20.0002 19.9999Z" fill="#548BFF"/>
<path fill-rule="evenodd" clip-rule="evenodd" d="M20.0002 19.9999L33.6386 44.7807L32.8738 45.1887L20.0002 19.9999Z" fill="#538AFF"/>
<path fill-rule="evenodd" clip-rule="evenodd" d="M20.0002 19.9999L33.0274 45.1071L32.2514 45.4975L20.0002 19.9999Z" fill="#528AFF"/>
<path fill-rule="evenodd" clip-rule="evenodd" d="M20.0002 19.9999L32.4066 45.4207L31.6226 45.7903L20.0002 19.9999Z" fill="#5189FF"/>
<path fill-rule="evenodd" clip-rule="evenodd" d="M20.0002 19.9999L31.7794 45.7167L30.9858 46.0687L20.0002 19.9999Z" fill="#5088FF"/>
<path fill-rule="evenodd" clip-rule="evenodd" d="M20.0002 19.9999L31.1442 45.9983L30.3426 46.3295L20.0002 19.9999Z" fill="#4F88FF"/>
<path fill-rule="evenodd" clip-rule="evenodd" d="M20.0002 19.9999L30.5026 46.2639L29.693 46.5759L20.0002 19.9999Z" fill="#4E87FF"/>
<path fill-rule="evenodd" clip-rule="evenodd" d="M20.0002 19.9999L29.8562 46.5135L29.0386 46.8063L20.0002 19.9999Z" fill="#4D86FF"/>
<path fill-rule="evenodd" clip-rule="evenodd" d="M20.0002 19.9999L29.2018 46.7471L28.3778 47.0191L20.0002 19.9999Z" fill="#4C86FF"/>
<path fill-rule="evenodd" clip-rule="evenodd" d="M20.0002 19.9999L28.5426 46.9647L27.7122 47.2175L20.0002 19.9999Z" fill="#4B85FF"/>
<path fill-rule="evenodd" clip-rule="evenodd" d="M20.0002 19.9999L27.8786 47.1663L27.0418 47.3983L20.0002 19.9999Z" fill="#4A84FF"/>
<path fill-rule="evenodd" clip-rule="evenodd" d="M20.0002 19.9999L27.2098 47.3519L26.3666 47.5631L20.0002 19.9999Z" fill="#4984FF"/>
<path fill-rule="evenodd" clip-rule="evenodd" d="M20.0002 19.9999L26.5362 47.5215L25.6898 47.7103L20.0002 19.9999Z" fill="#4883FF"/>
<path fill-rule="evenodd" clip-rule="evenodd" d="M20.0002 19.9999L25.8578 47.6719L25.0066 47.8415L20.0002 19.9999Z" fill="#4782FF"/>
<path fill-rule="evenodd" clip-rule="evenodd" d="M20.0002 19.9999L25.1778 47.8079L24.3234 47.9567L20.0002 19.9999Z" fill="#4681FF"/>
<path fill-rule="evenodd" clip-rule="evenodd" d="M20.0002 19.9999L24.493 47.9263L23.6354 48.0543L20.0002 19.9999Z" fill="#4581FF"/>
<path fill-rule="evenodd" clip-rule="evenodd" d="M20.0002 19.9999L23.8066 48.0287L22.9458 48.1343L20.0002 19.9999Z" fill="#4480FF"/>
<path fill-rule="evenodd" clip-rule="evenodd" d="M20.0002 19.9999L23.117 48.1135L22.2546 48.1983L20.0002 19.9999Z" fill="#437FFF"/>
<path fill-rule="evenodd" clip-rule="evenodd" d="M20.0002 19.9999L22.4274 48.1823L21.5618 48.2463L20.0002 19.9999Z" fill="#427FFF"/>
<path fill-rule="evenodd" clip-rule="evenodd" d="M20.0002 19.9999L21.7346 48.2335L20.8674 48.2751L20.0002 19.9999Z" fill="#417EFF"/>
<path fill-rule="evenodd" clip-rule="evenodd" d="M20.0002 19.9999L21.0418 48.2671L20.173 48.2879L20.0002 19.9999Z" fill="#407DFF"/>
<path fill-rule="evenodd" clip-rule="evenodd" d="M20.0004 19.9999L20.3476 48.2831H19.4788L20.0004 19.9999Z" fill="#3F7DFF"/>
<path fill-rule="evenodd" clip-rule="evenodd" d="M20.0003 19.9999L19.6531 48.2831L18.7859 48.2623L20.0003 19.9999Z" fill="#3E7CFF"/>
<path fill-rule="evenodd" clip-rule="evenodd" d="M20.0001 19.9999L18.9585 48.2671L18.0913 48.2239L20.0001 19.9999Z" fill="#3D7BFF"/>
<path fill-rule="evenodd" clip-rule="evenodd" d="M20.0004 19.9999L18.266 48.2335L17.4004 48.1695L20.0004 19.9999Z" fill="#3C7BFF"/>
<path fill-rule="evenodd" clip-rule="evenodd" d="M20.0004 19.9999L17.5732 48.1823L16.7092 48.0975L20.0004 19.9999Z" fill="#3B7AFF"/>
<path fill-rule="evenodd" clip-rule="evenodd" d="M20.0002 19.9999L16.8818 48.1135L16.021 48.0079L20.0002 19.9999Z" fill="#3A79FF"/>
<path fill-rule="evenodd" clip-rule="evenodd" d="M20.0003 19.9999L16.1939 48.0287L15.3347 47.9007L20.0003 19.9999Z" fill="#3979FF"/>
<path fill-rule="evenodd" clip-rule="evenodd" d="M20.0002 19.9999L15.5058 47.9263L14.6514 47.7791L20.0002 19.9999Z" fill="#3878FF"/>
<path fill-rule="evenodd" clip-rule="evenodd" d="M20.0005 19.9999L14.8229 47.8079L13.9717 47.6383L20.0005 19.9999Z" fill="#3777FF"/>
<path fill-rule="evenodd" clip-rule="evenodd" d="M20.0003 19.9999L14.1427 47.6719L13.2947 47.4831L20.0003 19.9999Z" fill="#3677FF"/>
<path fill-rule="evenodd" clip-rule="evenodd" d="M20.0002 19.9999L13.4642 47.5215L12.6226 47.3103L20.0002 19.9999Z" fill="#3576FF"/>
<path fill-rule="evenodd" clip-rule="evenodd" d="M20.0005 19.9999L12.7909 47.3519L11.9541 47.1215L20.0005 19.9999Z" fill="#3475FF"/>
<path fill-rule="evenodd" clip-rule="evenodd" d="M20.0003 19.9999L12.1219 47.1663L11.2915 46.9151L20.0003 19.9999Z" fill="#3375FF"/>
<path fill-rule="evenodd" clip-rule="evenodd" d="M20.0004 19.9999L11.458 46.9647L10.634 46.6927L20.0004 19.9999Z" fill="#3274FF"/>
<path fill-rule="evenodd" clip-rule="evenodd" d="M20.0002 19.9999L10.7986 46.7471L9.98096 46.4559L20.0002 19.9999Z" fill="#3173FF"/>
<path fill-rule="evenodd" clip-rule="evenodd" d="M20.0003 19.9999L10.1443 46.5135L9.33472 46.2015L20.0003 19.9999Z" fill="#3073FF"/>
<path fill-rule="evenodd" clip-rule="evenodd" d="M20.0004 19.9999L9.49642 46.2639L8.69482 45.9311L20.0004 19.9999Z" fill="#2F72FF"/>
<path fill-rule="evenodd" clip-rule="evenodd" d="M20.0003 19.9999L8.85474 45.9983L8.06274 45.6463L20.0003 19.9999Z" fill="#2E71FF"/>
<path fill-rule="evenodd" clip-rule="evenodd" d="M20.0002 19.9999L8.22101 45.7167L7.43701 45.3455L20.0002 19.9999Z" fill="#2D71FF"/>
<path fill-rule="evenodd" clip-rule="evenodd" d="M20.0005 19.9999L7.59412 45.4207L6.81812 45.0303L20.0005 19.9999Z" fill="#2C70FF"/>
<path fill-rule="evenodd" clip-rule="evenodd" d="M20.0005 19.9999L6.9733 45.1071L6.2085 44.6991L20.0005 19.9999Z" fill="#2B6FFF"/>
<path fill-rule="evenodd" clip-rule="evenodd" d="M20.0002 19.9999L6.36178 44.7807L5.60498 44.3535L20.0002 19.9999Z" fill="#2A6EFF"/>
<path fill-rule="evenodd" clip-rule="evenodd" d="M20.0004 19.9999L5.75718 44.4383L5.01318 43.9919L20.0004 19.9999Z" fill="#296EFF"/>
<path fill-rule="evenodd" clip-rule="evenodd" d="M20.0003 19.9999L5.16189 44.0815L4.42749 43.6175L20.0003 19.9999Z" fill="#286DFF"/>
<path fill-rule="evenodd" clip-rule="evenodd" d="M20.0002 19.9999L4.57463 43.7103L3.85303 43.2271L20.0002 19.9999Z" fill="#276CFF"/>
<path fill-rule="evenodd" clip-rule="evenodd" d="M20.0006 19.9999L3.99737 43.3247L3.28857 42.8255L20.0006 19.9999Z" fill="#266CFF"/>
<path fill-rule="evenodd" clip-rule="evenodd" d="M20.0004 19.9999L3.43075 42.9247L2.73315 42.4079L20.0004 19.9999Z" fill="#256BFF"/>
<path fill-rule="evenodd" clip-rule="evenodd" d="M20.0005 19.9999L2.87254 42.5119L2.18774 41.9775L20.0005 19.9999Z" fill="#246AFF"/>
<path fill-rule="evenodd" clip-rule="evenodd" d="M20.0004 19.9999L2.32519 42.0847L1.65479 41.5343L20.0004 19.9999Z" fill="#236AFF"/>
<path fill-rule="evenodd" clip-rule="evenodd" d="M20.0004 19.9999L1.78919 41.6431L1.13159 41.0767L20.0004 19.9999Z" fill="#2269FF"/>
<path fill-rule="evenodd" clip-rule="evenodd" d="M20.0004 19.9999L1.26283 41.1903L0.619629 40.6079L20.0004 19.9999Z" fill="#2168FF"/>
<path fill-rule="evenodd" clip-rule="evenodd" d="M20.0001 19.9999L0.748917 40.7247L0.120117 40.1263L20.0001 19.9999Z" fill="#2068FF"/>
<path fill-rule="evenodd" clip-rule="evenodd" d="M20.0003 19.9999L0.246724 40.2447L-0.367676 39.6319L20.0003 19.9999Z" fill="#1F67FF"/>
<path fill-rule="evenodd" clip-rule="evenodd" d="M20.0004 19.9999L-0.245973 39.7535L-0.842773 39.1263L20.0004 19.9999Z" fill="#1E66FF"/>
<path fill-rule="evenodd" clip-rule="evenodd" d="M20.0003 19.9999L-0.724485 39.2511L-1.30688 38.6079L20.0003 19.9999Z" fill="#1D66FF"/>
<path fill-rule="evenodd" clip-rule="evenodd" d="M20.0002 19.9999L-1.19019 38.7375L-1.75659 38.0799L20.0002 19.9999Z" fill="#1C65FF"/>
<path fill-rule="evenodd" clip-rule="evenodd" d="M20.0005 19.9999L-1.64272 38.2111L-2.19312 37.5407L20.0005 19.9999Z" fill="#1B64FF"/>
<path fill-rule="evenodd" clip-rule="evenodd" d="M20.0004 19.9999L-2.08439 37.6751L-2.61719 36.9903L20.0004 19.9999Z" fill="#1A64FF"/>
<path fill-rule="evenodd" clip-rule="evenodd" d="M20.0002 19.9999L-2.51176 37.1279L-3.02856 36.4303L20.0002 19.9999Z" fill="#1963FF"/>
<path fill-rule="evenodd" clip-rule="evenodd" d="M20.0004 19.9999L-2.92438 36.5695L-3.42358 35.8607L20.0004 19.9999Z" fill="#1862FF"/>
<path fill-rule="evenodd" clip-rule="evenodd" d="M20.0005 19.9999L-3.32431 36.0031L-3.80591 35.2799L20.0005 19.9999Z" fill="#1762FF"/>
<path fill-rule="evenodd" clip-rule="evenodd" d="M20.0006 19.9999L-3.70983 35.4255L-4.17383 34.6911L20.0006 19.9999Z" fill="#1661FF"/>
<path fill-rule="evenodd" clip-rule="evenodd" d="M20.0004 19.9999L-4.08119 34.8383L-4.52759 34.0943L20.0004 19.9999Z" fill="#1560FF"/>
<path fill-rule="evenodd" clip-rule="evenodd" d="M20.0004 19.9999L-4.43803 34.2431L-4.86523 33.4879L20.0004 19.9999Z" fill="#1460FF"/>
<path fill-rule="evenodd" clip-rule="evenodd" d="M20.0002 19.9999L-4.78059 33.6383L-5.19019 32.8735L20.0002 19.9999Z" fill="#135FFF"/>
<path fill-rule="evenodd" clip-rule="evenodd" d="M20.0005 19.9999L-5.10827 33.0271L-5.49707 32.2511L20.0005 19.9999Z" fill="#125EFF"/>
<path fill-rule="evenodd" clip-rule="evenodd" d="M20.0004 19.9999L-5.42044 32.4063L-5.79004 31.6223L20.0004 19.9999Z" fill="#115EFF"/>
<path fill-rule="evenodd" clip-rule="evenodd" d="M20.0004 19.9999L-5.71636 31.7791L-6.06836 30.9855L20.0004 19.9999Z" fill="#105DFF"/>
<path fill-rule="evenodd" clip-rule="evenodd" d="M20.0006 19.9999L-5.99777 31.1439L-6.33057 30.3423L20.0006 19.9999Z" fill="#0F5CFF"/>
<path fill-rule="evenodd" clip-rule="evenodd" d="M20.0006 19.9999L-6.26344 30.5023L-6.57544 29.6927L20.0006 19.9999Z" fill="#0E5BFF"/>
<path fill-rule="evenodd" clip-rule="evenodd" d="M20.0002 19.9999L-6.51335 29.8559L-6.80615 29.0383L20.0002 19.9999Z" fill="#0D5BFF"/>
<path fill-rule="evenodd" clip-rule="evenodd" d="M20.0004 19.9999L-6.7484 29.2015L-7.0188 28.3775L20.0004 19.9999Z" fill="#0C5AFF"/>
<path fill-rule="evenodd" clip-rule="evenodd" d="M20.0003 19.9999L-6.96608 28.5423L-7.21729 27.7119L20.0003 19.9999Z" fill="#0B59FF"/>
<path fill-rule="evenodd" clip-rule="evenodd" d="M20.0005 19.9999L-7.16755 27.8783L-7.39795 27.0415L20.0005 19.9999Z" fill="#0A59FF"/>
<path fill-rule="evenodd" clip-rule="evenodd" d="M20.0002 19.9999L-7.35179 27.2095L-7.56299 26.3663L20.0002 19.9999Z" fill="#0958FF"/>
<path fill-rule="evenodd" clip-rule="evenodd" d="M20.0004 19.9999L-7.52116 26.5359L-7.70996 25.6895L20.0004 19.9999Z" fill="#0857FF"/>
<path fill-rule="evenodd" clip-rule="evenodd" d="M20.0003 19.9999L-7.67331 25.8575L-7.84131 25.0063L20.0003 19.9999Z" fill="#0757FF"/>
<path fill-rule="evenodd" clip-rule="evenodd" d="M20.0005 19.9999L-7.8075 25.1775L-7.9563 24.3231L20.0005 19.9999Z" fill="#0656FF"/>
<path fill-rule="evenodd" clip-rule="evenodd" d="M20.0004 19.9999L-7.92596 24.4927L-8.05396 23.6351L20.0004 19.9999Z" fill="#0555FF"/>
<path fill-rule="evenodd" clip-rule="evenodd" d="M20.0001 19.9999L-8.02868 23.8063L-8.13428 22.9455L20.0001 19.9999Z" fill="#0455FF"/>
<path fill-rule="evenodd" clip-rule="evenodd" d="M20.0004 19.9999L-8.1132 23.1167L-8.198 22.2543L20.0004 19.9999Z" fill="#0354FF"/>
<path fill-rule="evenodd" clip-rule="evenodd" d="M20.0003 19.9999L-8.18209 22.4271L-8.24609 21.5615L20.0003 19.9999Z" fill="#0253FF"/>
<path fill-rule="evenodd" clip-rule="evenodd" d="M20.0005 19.9999L-8.23306 21.7343L-8.27466 20.8671L20.0005 19.9999Z" fill="#0153FF"/>
<path fill-rule="evenodd" clip-rule="evenodd" d="M20.0004 19.9999L-8.2668 21.0415L-8.2876 20.1727L20.0004 19.9999Z" fill="#0052FF"/>
<path fill-rule="evenodd" clip-rule="evenodd" d="M20.0004 19.9999L-8.28442 20.3471V19.6527L20.0004 19.9999Z" fill="white"/>
</g>
</svg>
