<svg width="41" height="40" viewBox="0 0 41 40" fill="none" xmlns="http://www.w3.org/2000/svg">
<g clip-path="url(#clip0_1174_20019)">
<path d="M0.839722 19.9996C0.839722 30.7657 9.56709 39.4931 20.3331 39.4931C31.0992 39.4931 39.8271 30.7655 39.8271 19.9996C39.8271 9.23362 31.0992 0.506226 20.3331 0.506226C9.56709 0.506226 0.839722 9.23359 0.839722 19.9996Z" fill="#0C0C4F" stroke="url(#paint0_linear_1174_20019)" stroke-width="0.427884"/>
<path fill-rule="evenodd" clip-rule="evenodd" d="M11.5117 15.2879L12.0054 13.7627C12.1058 13.4525 12.3506 13.2111 12.662 13.1159L14.1947 12.6445C14.4068 12.5797 14.4086 12.2804 14.1981 12.2122L12.6723 11.7185C12.3626 11.6181 12.1212 11.3733 12.0255 11.0619L11.5547 9.52919C11.4899 9.31759 11.1906 9.31529 11.1223 9.5263L10.6286 11.0516C10.5283 11.3612 10.2834 11.6026 9.97208 11.6984L8.43935 12.1692C8.22719 12.2345 8.22489 12.5333 8.4359 12.6015L9.96175 13.0952C10.2714 13.1956 10.5128 13.441 10.6086 13.7524L11.0793 15.2845C11.1441 15.4967 11.4434 15.499 11.5117 15.2879Z" fill="#FAFAFA"/>
<path fill-rule="evenodd" clip-rule="evenodd" d="M35.7379 14.4003C35.106 13.6937 34.1199 13.2958 33.1612 13.1327C32.1949 12.976 31.1815 12.9906 30.2275 13.1601C28.2972 13.4866 26.5435 14.2859 25.0139 15.2719C24.2196 15.7558 23.5422 16.3158 22.8404 16.8861C22.5023 17.1745 22.194 17.4816 21.873 17.7844L20.9957 18.6572C20.0425 19.6536 19.1029 20.5611 18.1939 21.3134C17.2811 22.0621 16.4278 22.6308 15.5868 23.028C14.7464 23.4271 13.8471 23.6619 12.675 23.6995C11.5132 23.7405 10.1386 23.5308 8.66827 23.1847C7.19004 22.8401 5.63773 22.3489 3.90308 21.9263C4.50834 23.6054 5.41978 25.0893 6.58999 26.4458C7.77391 27.7787 9.25227 28.9934 11.1514 29.7924C13.0232 30.6091 15.3753 30.9023 17.5746 30.46C19.7798 30.0354 21.715 29.0152 23.2792 27.8349C24.8474 26.6428 26.1161 25.2848 27.1858 23.8729C27.4809 23.4828 27.6372 23.2645 27.8508 22.9596L28.4415 22.0848C28.8518 21.5437 29.2255 20.9276 29.6316 20.3915C30.428 19.2687 31.2134 18.1471 32.1258 17.1138C32.585 16.5898 33.0693 16.0885 33.6409 15.6067C33.926 15.3716 34.2341 15.1415 34.5754 14.9342C34.9217 14.7106 35.2875 14.5356 35.7379 14.4003Z" fill="url(#paint1_linear_1174_20019)"/>
<path fill-rule="evenodd" clip-rule="evenodd" d="M35.7379 14.4003C35.0592 12.6874 33.7972 11.2455 32.1032 10.1815C30.4197 9.12924 28.0815 8.59223 25.7642 9.05C24.6196 9.27139 23.5106 9.69762 22.5374 10.2652C21.5686 10.8306 20.7004 11.5111 19.9488 12.2412C19.5737 12.6075 19.2331 12.9896 18.8948 13.3738L18.0179 14.4918L16.6635 16.2915C14.9368 18.6071 13.0774 21.3208 10.0261 22.1248C7.03057 22.9142 5.73135 22.2151 3.90308 21.9263C4.23738 22.7894 4.65146 23.6275 5.21282 24.3649C5.76373 25.1172 6.41447 25.8236 7.22348 26.4295C7.63232 26.7204 8.06396 27.0074 8.54335 27.251C9.0206 27.4862 9.53523 27.6933 10.0845 27.849C11.1772 28.1485 12.4074 28.2535 13.5984 28.0923C14.79 27.9333 15.929 27.5558 16.9246 27.0543C17.9276 26.5573 18.8012 25.9522 19.5814 25.3138C21.1321 24.0259 22.3383 22.603 23.3573 21.1647C23.8698 20.4455 24.335 19.7128 24.7652 18.9799L25.2716 18.1073C25.4264 17.8523 25.583 17.5956 25.742 17.3567C26.3837 16.3964 27.0113 15.6265 27.7736 15.0485C28.5253 14.4557 29.5721 14.0176 30.9708 13.9159C32.3637 13.8129 33.9718 14.0031 35.7379 14.4003Z" fill="#FAFAFA"/>
<path fill-rule="evenodd" clip-rule="evenodd" d="M28.2019 28.6321C28.2019 29.8903 29.2224 30.9106 30.4804 30.9106C31.7386 30.9106 32.7576 29.8903 32.7576 28.6321C32.7576 27.3741 31.7386 26.3536 30.4804 26.3536C29.2224 26.3536 28.2019 27.3741 28.2019 28.6321Z" fill="url(#paint2_linear_1174_20019)"/>
</g>
<defs>
<linearGradient id="paint0_linear_1174_20019" x1="38.1815" y1="10.2531" x2="1.87979" y2="16.989" gradientUnits="userSpaceOnUse">
<stop stop-color="#EC796B"/>
<stop offset="1" stop-color="#E175B1"/>
</linearGradient>
<linearGradient id="paint1_linear_1174_20019" x1="35.5678" y1="13.7992" x2="7.54855" y2="29.3676" gradientUnits="userSpaceOnUse">
<stop stop-color="#EC796B"/>
<stop offset="1" stop-color="#E175B1"/>
</linearGradient>
<linearGradient id="paint2_linear_1174_20019" x1="32.7561" y1="27.0339" x2="28.1989" y2="27.5159" gradientUnits="userSpaceOnUse">
<stop stop-color="#EC796B"/>
<stop offset="1" stop-color="#E175B1"/>
</linearGradient>
<clipPath id="clip0_1174_20019">
<rect width="40" height="40" fill="white" transform="translate(0.333252)"/>
</clipPath>
</defs>
</svg>
