<svg width="23" height="26" viewBox="0 0 23 26" fill="none" xmlns="http://www.w3.org/2000/svg">
<path d="M0 19.4299L11.2173 25.9065L22.4345 19.4299V6.47663L11.2173 0L0 6.47663V19.4299Z" fill="#469EA2"/>
<path d="M10.0687 1.54907L1.92285 6.24964C1.9362 6.39623 1.9362 6.54373 1.92285 6.69032L10.0554 11.3909C10.3897 11.1437 10.7946 11.0102 11.2105 11.0102C11.6263 11.0102 12.0312 11.1437 12.3656 11.3909L20.4981 6.69032C20.4847 6.54373 20.4847 6.39623 20.4981 6.24964L12.3789 1.54907C12.0446 1.7963 11.6397 1.92971 11.2238 1.92971C10.808 1.92971 10.4031 1.7963 10.0687 1.54907ZM21.286 7.98564L13.1401 12.7396C13.1843 13.1519 13.097 13.5677 12.8907 13.9274C12.6845 14.2871 12.3698 14.5725 11.9917 14.7427L12.005 24.0904C12.1367 24.1485 12.262 24.2201 12.3789 24.3041L20.5114 19.6035C20.4673 19.1912 20.5546 18.7755 20.7608 18.4157C20.9671 18.056 21.2818 17.7706 21.6599 17.6004V8.1993C21.5297 8.13827 21.4047 8.06681 21.286 7.98564ZM1.14832 8.03906C1.03142 8.12303 0.90611 8.19463 0.774414 8.25272V17.6539C1.15716 17.818 1.47616 18.1022 1.68331 18.4635C1.89046 18.8248 1.97453 19.2437 1.92285 19.6569L10.0554 24.3575C10.1723 24.2735 10.2976 24.2019 10.4293 24.1438V14.7427C10.0465 14.5785 9.72752 14.2944 9.52037 13.933C9.31322 13.5717 9.22915 13.1529 9.28084 12.7396L1.14832 8.03906Z" fill="#6ACAD1"/>
<path d="M11.2173 1.40163L21.246 7.19722V18.775L11.2173 24.5706L1.1885 18.775V7.18386L11.2173 1.40163ZM11.2173 0.0261841L0 6.50281V19.4561L11.2173 25.9327L22.4345 19.4561V6.50281L11.2173 0.0261841Z" fill="#469EA2"/>
<path d="M11.2974 15.1561H11.1371C10.8616 15.1568 10.5887 15.1031 10.334 14.998C10.0793 14.8929 9.8479 14.7385 9.65307 14.5436C9.45825 14.3488 9.30385 14.1174 9.19873 13.8627C9.09362 13.608 9.03987 13.3351 9.04058 13.0596V12.8993C9.03987 12.6238 9.09362 12.3509 9.19873 12.0962C9.30385 11.8415 9.45825 11.6101 9.65307 11.4153C9.8479 11.2204 10.0793 11.066 10.334 10.9609C10.5887 10.8558 10.8616 10.8021 11.1371 10.8028H11.2974C11.5729 10.8021 11.8458 10.8558 12.1005 10.9609C12.3552 11.066 12.5866 11.2204 12.7814 11.4153C12.9763 11.6101 13.1307 11.8415 13.2358 12.0962C13.3409 12.3509 13.3946 12.6238 13.3939 12.8993V13.0596C13.3946 13.3351 13.3409 13.608 13.2358 13.8627C13.1307 14.1174 12.9763 14.3488 12.7814 14.5436C12.5866 14.7385 12.3552 14.8929 12.1005 14.998C11.8458 15.1031 11.5729 15.1568 11.2974 15.1561ZM11.2974 23.7694H11.1371C10.7647 23.7683 10.3986 23.8667 10.077 24.0545C9.75534 24.2424 9.48973 24.5127 9.30765 24.8377L11.2173 25.9327L13.1269 24.8377C12.9448 24.5127 12.6792 24.2424 12.3575 24.0545C12.0359 23.8667 11.6699 23.7683 11.2974 23.7694ZM22.4479 17.2927H22.3678C22.0922 17.292 21.8193 17.3458 21.5646 17.4509C21.3099 17.556 21.0785 17.7104 20.8837 17.9052C20.6889 18.1001 20.5345 18.3315 20.4293 18.5862C20.3242 18.8408 20.2705 19.1138 20.2712 19.3893V19.5496C20.2693 19.9055 20.3614 20.2556 20.5383 20.5644L22.4479 19.4561V17.2927ZM20.5383 5.4078C20.363 5.7173 20.2709 6.06699 20.2712 6.42269V6.58294C20.2705 6.85846 20.3242 7.13141 20.4293 7.38609C20.5345 7.64077 20.6889 7.87218 20.8837 8.067C21.0785 8.26182 21.3099 8.41623 21.5646 8.52134C21.8193 8.62645 22.0922 8.6802 22.3678 8.6795H22.4479V6.50281L20.5383 5.4078ZM11.2173 0.0261841L9.30765 1.1212C9.48886 1.4479 9.75392 1.72035 10.0755 1.91048C10.3971 2.10062 10.7636 2.20154 11.1371 2.20287H11.2974C11.6699 2.20399 12.0359 2.10554 12.3575 1.91771C12.6792 1.72988 12.9448 1.4595 13.1269 1.13456L11.2173 0.0261841ZM1.9096 5.39444L0 6.50281V8.6795H0.0801233C0.355645 8.6802 0.628591 8.62645 0.883275 8.52134C1.13796 8.41623 1.36936 8.26182 1.56419 8.067C1.75901 7.87218 1.91341 7.64077 2.01853 7.38609C2.12364 7.13141 2.17739 6.85846 2.17668 6.58294V6.42269C2.17216 6.06338 2.08051 5.71054 1.9096 5.39444ZM0.0801233 17.2927H0V19.4561L1.9096 20.5644C2.0849 20.2549 2.17693 19.9053 2.17668 19.5496V19.3893C2.17739 19.1138 2.12364 18.8408 2.01853 18.5862C1.91341 18.3315 1.75901 18.1001 1.56419 17.9052C1.36936 17.7104 1.13796 17.556 0.883275 17.4509C0.628591 17.3458 0.355645 17.292 0.0801233 17.2927Z" fill="#469EA2"/>
<path d="M11.2173 26V13.0334L0 6.55676V19.5234L11.2173 26Z" fill="#083B54" fill-opacity="0.15"/>
<path d="M22.4475 19.403V6.44977L11.2302 12.9264V25.893L22.4475 19.403Z" fill="#083B54" fill-opacity="0.05"/>
</svg>
