<?xml version="1.0" standalone="no"?>
<!DOCTYPE svg PUBLIC "-//W3C//DTD SVG 20010904//EN" "http://www.w3.org/TR/2001/REC-SVG-20010904/DTD/svg10.dtd">
<svg xmlns="http://www.w3.org/2000/svg" version="1.0" width="1081.000000pt" height="1081.000000pt" viewBox="0 0 1081.000000 1081.000000" preserveAspectRatio="xMidYMid meet">
<metadata>
Created by potrace 1.16, written by Peter Selinger 2001-2019
<meta name="Producer" content="Online-Convert"/></metadata>
<g transform="translate(0.000000,1081.000000) scale(0.100000,-0.100000)" fill="#000000" stroke="none">
<path d="M5225 10796 c-641 -108 -1560 -679 -2600 -1616 -199 -179 -678 -653 -875 -865 -971 -1048 -1581 -1993 -1727 -2678 -24 -113 -24 -351 0 -464 138 -648 696 -1534 1592 -2533 198 -220 826 -847 1045 -1042 978 -873 1835 -1417 2466 -1564 104 -24 139 -28 279 -28 140 0 175 4 279 28 631 147 1487 691 2466 1564 226 201 861 836 1062 1062 894 1002 1437 1868 1575 2513 12 58 18 127 18 232 0 105 -6 174 -18 232 -140 654 -697 1538 -1607 2548 -179 199 -652 678 -865 875 -1021 947 -1970 1566 -2631 1715 -144 33 -336 42 -459 21z m1064 -2326 c223 -98 566 -484 970 -1090 574 -863 1073 -1878 1207 -2455 38 -167 40 -325 4 -404 -102 -226 -485 -567 -1090 -970 -865 -575 -1878 -1073 -2458 -1207 -164 -38 -323 -40 -401 -4 -226 102 -567 485 -970 1090 -574 863 -1073 1878 -1207 2455 -38 167 -40 325 -4 404 56 125 221 308 452 502 796 667 2350 1509 3088 1672 154 35 162 35 265 33 69 -2 102 -8 144 -26z"/>
</g>
</svg>
