<svg width="24" height="26" viewBox="0 0 24 26" fill="none" xmlns="http://www.w3.org/2000/svg">
<path d="M15.0357 11.9132L17.0145 8.6732L22.3483 16.6893L22.3508 18.2277L22.3335 7.64171C22.3208 7.38294 22.1784 7.14623 21.9512 7.00662L12.3485 1.67673C12.124 1.57016 11.839 1.57139 11.6148 1.68011C11.5845 1.69467 11.556 1.71063 11.5289 1.72804L11.4953 1.74833L2.17444 6.96024L2.13831 6.97609C2.0918 6.99671 2.04474 7.02295 2.00067 7.05342C1.8239 7.17569 1.70658 7.35654 1.66862 7.5594C1.6629 7.59014 1.65868 7.62141 1.65674 7.65306L1.67139 16.2796L6.63948 8.84933C7.26502 7.86411 8.62777 7.54676 9.89289 7.564L11.3777 7.60181L2.62893 21.1402L3.66023 21.713L12.5137 7.61557L16.427 7.60186L7.59635 22.0551L11.2763 24.0975L11.716 24.3415C11.902 24.4144 12.1213 24.4181 12.3088 24.3527L22.0465 18.9075L20.1848 19.9485L15.0357 11.9132ZM15.7907 22.4056L12.0739 16.7768L14.3428 13.0617L19.2241 20.4857L15.7907 22.4056Z" fill="#2D374B"/>
<path d="M12.0742 16.7766L15.7909 22.4055L19.2245 20.4855L14.3431 13.0616L12.0742 16.7766Z" fill="#28A0F0"/>
<path d="M22.3507 18.2279L22.3482 16.6895L17.0144 8.67346L15.0356 11.9134L20.1846 19.9487L22.0463 18.9078C22.2289 18.7646 22.3394 18.5546 22.351 18.328L22.3507 18.2279Z" fill="#28A0F0"/>
<path d="M0 19.6784L2.62898 21.1402L11.3777 7.60189L9.89289 7.56408C8.62776 7.54684 7.26496 7.8642 6.63947 8.84942L1.67138 16.2797L0 18.7576V19.6784Z" fill="white"/>
<path d="M16.4269 7.60182L12.5136 7.61553L3.66016 21.713L6.75473 23.4322L7.59628 22.055L16.4269 7.60182Z" fill="white"/>
<path d="M24 7.58229C23.9673 6.7926 23.5241 6.06968 22.8301 5.64881L13.1015 0.250375C12.4149 -0.0832083 11.5572 -0.0836367 10.8694 0.250161C10.788 0.289736 1.40854 5.53865 1.40854 5.53865C1.27872 5.59874 1.15368 5.67028 1.03607 5.75152C0.416472 6.18 0.0387945 6.84588 0 7.57742V18.7575L1.67138 16.2795L1.65679 7.65298C1.65873 7.62144 1.66284 7.59038 1.66866 7.55975C1.70646 7.35678 1.8239 7.17572 2.00072 7.05335C2.04484 7.02288 11.5846 1.6946 11.6149 1.67998C11.8391 1.57132 12.1241 1.57003 12.3486 1.6766L21.9513 7.00638C22.1785 7.146 22.3209 7.3827 22.3336 7.64147V18.3276C22.322 18.5542 22.2291 18.7642 22.0465 18.9073L20.1848 19.9483L19.2242 20.4855L15.7908 22.4055L12.3089 24.3525C12.1213 24.4179 11.902 24.4142 11.7161 24.3412L7.5964 22.0549L6.75486 23.4321L10.457 25.4889C10.5795 25.5561 10.6885 25.6156 10.7781 25.6641C10.9166 25.7391 11.0111 25.7893 11.0445 25.8049C11.3076 25.9282 11.6862 26 12.0274 26C12.3402 26 12.6452 25.9446 12.9338 25.8355L23.0473 20.184C23.6278 19.75 23.9693 19.0955 24 18.3865V7.58229Z" fill="#96BEDC"/>
</svg>
