<svg width="27" height="26" viewBox="0 0 27 26" fill="none" xmlns="http://www.w3.org/2000/svg">
<path d="M6.39948 4.00816L13.3332 0L20.2668 4.00816L17.6668 5.41632L13.3332 2.92448L8.89132 5.41632L6.39948 4.00816ZM20.1576 8.99184L17.6658 7.58368L13.3332 10.0755L8.89132 7.58368L6.39948 8.99184V11.9174L10.7332 14.4092V19.501L13.225 21.0174L15.7168 19.501V14.5174L20.0505 12.0255V8.99184H20.1576ZM20.1576 17.0082V14.0837L17.6668 15.6V18.4163L20.1576 17.0082ZM21.9995 17.9837L17.6658 20.4755V23.4L24.5995 19.3918V11.3755L21.9995 13V17.9837ZM19.5087 6.5L22.0005 8.01632V10.9418L24.4924 9.42552V6.5L22.0005 4.98368L19.5087 6.5ZM10.7332 21.5582V24.4826L13.225 25.999L15.7168 24.4826V21.5582L13.225 23.0745L10.7332 21.5582ZM6.39948 17.0082L8.89132 18.4163V15.4918L6.39948 13.9755V17.0082ZM10.7332 6.5L13.225 8.01632L15.825 6.5L13.3332 4.98368L10.7332 6.5ZM4.55764 8.01632L7.15764 6.5L4.55764 4.98368L2.06684 6.5V9.42448L4.55868 10.9408V8.01632H4.55764ZM4.55764 13L2.0658 11.4837V19.5L8.99948 23.5082V20.5837L4.6658 18.0918V13H4.55764Z" fill="#F0B90B"/>
</svg>
