<svg width="40" height="40" viewBox="0 0 40 40" fill="none" xmlns="http://www.w3.org/2000/svg">
<rect width="40" height="40" rx="20" fill="#121212"/>
<path d="M26.6293 10.1232L22.0389 16.9356C21.7215 17.3996 22.3318 17.9612 22.7713 17.5705L27.2885 13.6393C27.4107 13.5416 27.5816 13.6149 27.5816 13.7858V26.0677C27.5816 26.2387 27.3618 26.3119 27.2641 26.1898L13.5905 9.83019C13.151 9.29301 12.5161 9 11.808 9H11.3196C10.0499 9 9 10.0499 9 11.3441V28.6316C9 29.9256 10.0499 30.9756 11.3441 30.9756C12.1498 30.9756 12.9068 30.5605 13.3463 29.8524L17.9367 23.04C18.2542 22.5761 17.6437 22.0144 17.2042 22.4051L12.687 26.3119C12.5649 26.4095 12.394 26.3363 12.394 26.1654V13.9079C12.394 13.737 12.6138 13.6637 12.7114 13.7858L26.3851 30.1454C26.8246 30.6826 27.4839 30.9756 28.1676 30.9756H28.656C29.9501 30.9756 31 29.9256 31 28.6316V11.3441C30.9756 10.0499 29.9256 9 28.6316 9C27.8257 9 27.0688 9.4151 26.6293 10.1232Z" fill="#FEFEFE"/>
</svg>
