<svg width="381" height="71" viewBox="0 0 381 71" fill="none" xmlns="http://www.w3.org/2000/svg">
<path d="M336.659 35.7013C334.685 34.4075 332.509 33.4875 330.448 32.3375C329.113 31.59 327.691 30.9288 326.53 29.98C324.557 28.37 324.963 25.2075 327.024 23.8275C329.984 21.8725 334.889 22.965 335.411 26.9613C335.411 27.0475 335.498 27.105 335.585 27.105H340.054C340.17 27.105 340.258 27.0188 340.228 26.9038C339.996 24.1438 338.923 21.8438 336.949 20.3775C335.063 18.9688 332.915 18.2213 330.622 18.2213C318.811 18.2213 317.737 30.6125 324.093 34.5225C324.818 34.9825 331.058 38.0875 333.263 39.4388C335.469 40.79 336.166 43.2625 335.208 45.2175C334.337 47 332.074 48.2363 329.81 48.0925C327.343 47.9488 325.428 46.6263 324.76 44.5563C324.644 44.1825 324.586 43.4638 324.586 43.1475C324.586 43.0613 324.499 42.975 324.412 42.975H319.565C319.478 42.975 319.391 43.0613 319.391 43.1475C319.391 46.6263 320.262 48.5525 322.642 50.3063C324.876 51.9738 327.314 52.6638 329.839 52.6638C336.456 52.6638 339.88 48.955 340.577 45.1025C341.186 41.3363 340.054 37.9438 336.659 35.7013Z" fill="#161616"/>
<path d="M126.226 18.8538H124.079H121.728C121.641 18.8538 121.583 18.9113 121.554 18.9688L117.578 31.9638C117.52 32.1363 117.288 32.1363 117.23 31.9638L113.254 18.9688C113.225 18.8825 113.167 18.8538 113.08 18.8538H110.729H108.582H105.679C105.592 18.8538 105.505 18.94 105.505 19.0263V52.2038C105.505 52.29 105.592 52.3763 105.679 52.3763H110.526C110.613 52.3763 110.7 52.29 110.7 52.2038V26.99C110.7 26.7888 110.99 26.76 111.048 26.9325L115.053 40.0138L115.343 40.9338C115.373 41.02 115.431 41.0488 115.518 41.0488H119.232C119.319 41.0488 119.377 40.9913 119.406 40.9338L119.697 40.0138L123.702 26.9325C123.76 26.7313 124.05 26.7888 124.05 26.99V52.2038C124.05 52.29 124.137 52.3763 124.224 52.3763H129.07C129.158 52.3763 129.245 52.29 129.245 52.2038V19.0263C129.245 18.94 129.158 18.8538 129.07 18.8538H126.226Z" fill="#161616"/>
<path d="M262.452 18.8538C262.365 18.8538 262.307 18.9113 262.278 18.9688L258.302 31.9638C258.244 32.1363 258.012 32.1363 257.953 31.9638L253.978 18.9688C253.949 18.8825 253.891 18.8538 253.803 18.8538H246.432C246.345 18.8538 246.258 18.94 246.258 19.0263V52.2038C246.258 52.29 246.345 52.3763 246.432 52.3763H251.279C251.366 52.3763 251.453 52.29 251.453 52.2038V26.99C251.453 26.7888 251.743 26.76 251.801 26.9325L255.806 40.0138L256.096 40.9338C256.125 41.02 256.183 41.0488 256.27 41.0488H259.985C260.072 41.0488 260.13 40.9913 260.159 40.9338L260.449 40.0138L264.454 26.9325C264.512 26.7313 264.802 26.7888 264.802 26.99V52.2038C264.802 52.29 264.89 52.3763 264.977 52.3763H269.823C269.91 52.3763 269.997 52.29 269.997 52.2038V19.0263C269.997 18.94 269.91 18.8538 269.823 18.8538H262.452Z" fill="#161616"/>
<path d="M199.94 18.8538H190.914H186.068H177.042C176.955 18.8538 176.868 18.94 176.868 19.0263V23.1663C176.868 23.2525 176.955 23.3388 177.042 23.3388H185.894V52.2038C185.894 52.29 185.981 52.3763 186.068 52.3763H190.914C191.002 52.3763 191.089 52.29 191.089 52.2038V23.3388H199.94C200.027 23.3388 200.114 23.2525 200.114 23.1663V19.0263C200.114 18.94 200.056 18.8538 199.94 18.8538Z" fill="#161616"/>
<path d="M228.526 52.3762H232.937C233.053 52.3762 233.14 52.2612 233.111 52.1462L223.999 18.8537C223.97 18.7675 223.912 18.7387 223.825 18.7387H222.141H219.181H217.498C217.411 18.7387 217.353 18.7962 217.324 18.8537L208.211 52.1462C208.182 52.2612 208.269 52.3762 208.385 52.3762H212.796C212.884 52.3762 212.942 52.3187 212.971 52.2612L215.612 42.5725C215.641 42.4862 215.699 42.4575 215.786 42.4575H225.537C225.624 42.4575 225.682 42.515 225.711 42.5725L228.352 52.2612C228.381 52.3187 228.468 52.3762 228.526 52.3762ZM216.946 37.7137L220.487 24.7475C220.545 24.575 220.777 24.575 220.835 24.7475L224.376 37.7137C224.405 37.8287 224.318 37.9437 224.202 37.9437H217.121C217.005 37.9437 216.917 37.8287 216.946 37.7137Z" fill="#161616"/>
<path d="M303.749 52.3762H308.16C308.276 52.3762 308.363 52.2612 308.334 52.1462L299.222 18.8537C299.192 18.7675 299.134 18.7387 299.047 18.7387H297.364H294.404H292.721C292.634 18.7387 292.576 18.7962 292.547 18.8537L283.434 52.1462C283.405 52.2612 283.492 52.3762 283.608 52.3762H288.019C288.106 52.3762 288.164 52.3187 288.193 52.2612L290.834 42.5725C290.863 42.4862 290.921 42.4575 291.009 42.4575H300.76C300.847 42.4575 300.905 42.515 300.934 42.5725L303.575 52.2612C303.604 52.3187 303.662 52.3762 303.749 52.3762ZM292.169 37.7137L295.71 24.7475C295.768 24.575 296 24.575 296.058 24.7475L299.599 37.7137C299.628 37.8287 299.541 37.9437 299.425 37.9437H292.344C292.227 37.9437 292.14 37.8287 292.169 37.7137Z" fill="#161616"/>
<path d="M148.921 47.4599V37.1674C148.921 37.0812 149.008 36.9949 149.095 36.9949H162.009C162.096 36.9949 162.184 36.9087 162.184 36.8224V32.6824C162.184 32.5962 162.096 32.5099 162.009 32.5099H149.095C149.008 32.5099 148.921 32.4237 148.921 32.3374V23.5399C148.921 23.4537 149.008 23.3674 149.095 23.3674H163.78C163.867 23.3674 163.954 23.2812 163.954 23.1949V19.0549C163.954 18.9687 163.867 18.8824 163.78 18.8824H148.921H143.9C143.813 18.8824 143.726 18.9687 143.726 19.0549V23.3674V32.5387V37.0237V47.6612V52.2037C143.726 52.2899 143.813 52.3762 143.9 52.3762H148.921H164.389C164.476 52.3762 164.563 52.2899 164.563 52.2037V47.8337C164.563 47.7474 164.476 47.6612 164.389 47.6612H149.066C148.979 47.6324 148.921 47.5749 148.921 47.4599Z" fill="#161616"/>
<path d="M380.945 52.0887L364.171 34.9249C364.113 34.8674 364.113 34.7524 364.171 34.6949L379.262 19.1699C379.378 19.0549 379.291 18.8824 379.146 18.8824H372.964C372.906 18.8824 372.877 18.9112 372.848 18.9399L360.05 32.1074C359.934 32.2224 359.76 32.1362 359.76 31.9924V19.0549C359.76 18.9687 359.673 18.8824 359.586 18.8824H354.739C354.652 18.8824 354.565 18.9687 354.565 19.0549V52.2324C354.565 52.3187 354.652 52.405 354.739 52.405H359.586C359.673 52.405 359.76 52.3187 359.76 52.2324V37.6274C359.76 37.4837 359.963 37.3974 360.05 37.5124L374.561 52.3475C374.59 52.3762 374.648 52.405 374.677 52.405H380.858C380.974 52.3762 381.061 52.1749 380.945 52.0887Z" fill="#161616"/>
<path d="M72.392 1L43.0516 22.5625L48.5076 9.855L72.392 1Z" fill="#E17726" stroke="#E17726" stroke-linecap="round" stroke-linejoin="round"/>
<path d="M4.71487 1L33.7941 22.7637L28.5993 9.855L4.71487 1Z" fill="#E27625" stroke="#E27625" stroke-linecap="round" stroke-linejoin="round"/>
<path d="M61.8283 50.9962L54.0216 62.8412L70.7378 67.4125L75.5263 51.255L61.8283 50.9962Z" fill="#E27625" stroke="#E27625" stroke-linecap="round" stroke-linejoin="round"/>
<path d="M1.60941 51.255L6.36888 67.4125L23.0561 62.8412L15.2784 50.9962L1.60941 51.255Z" fill="#E27625" stroke="#E27625" stroke-linecap="round" stroke-linejoin="round"/>
<path d="M22.1565 30.9863L17.5131 37.9438L34.0552 38.6913L33.5038 21.01L22.1565 30.9863Z" fill="#E27625" stroke="#E27625" stroke-linecap="round" stroke-linejoin="round"/>
<path d="M54.9503 30.9862L43.4289 20.8087L43.0516 38.6912L59.5937 37.9437L54.9503 30.9862Z" fill="#E27625" stroke="#E27625" stroke-linecap="round" stroke-linejoin="round"/>
<path d="M23.0561 62.8413L33.0684 58.04L24.4491 51.37L23.0561 62.8413Z" fill="#E27625" stroke="#E27625" stroke-linecap="round" stroke-linejoin="round"/>
<path d="M44.0384 58.04L54.0216 62.8413L52.6576 51.37L44.0384 58.04Z" fill="#E27625" stroke="#E27625" stroke-linecap="round" stroke-linejoin="round"/>
<path d="M54.0216 62.8413L44.0383 58.0401L44.8509 64.4801L44.7639 67.2113L54.0216 62.8413Z" fill="#D5BFB2" stroke="#D5BFB2" stroke-linecap="round" stroke-linejoin="round"/>
<path d="M23.056 62.8413L32.3428 67.2113L32.2848 64.4801L33.0683 58.0401L23.056 62.8413Z" fill="#D5BFB2" stroke="#D5BFB2" stroke-linecap="round" stroke-linejoin="round"/>
<path d="M32.517 47.115L24.217 44.7L30.0793 42.0262L32.517 47.115Z" fill="#233447" stroke="#233447" stroke-linecap="round" stroke-linejoin="round"/>
<path d="M44.5896 47.115L47.0274 42.0262L52.9187 44.7L44.5896 47.115Z" fill="#233447" stroke="#233447" stroke-linecap="round" stroke-linejoin="round"/>
<path d="M23.0561 62.8413L24.5071 50.9962L15.2784 51.255L23.0561 62.8413Z" fill="#CC6228" stroke="#CC6228" stroke-linecap="round" stroke-linejoin="round"/>
<path d="M52.5995 50.9962L54.0216 62.8413L61.8283 51.255L52.5995 50.9962Z" fill="#CC6228" stroke="#CC6228" stroke-linecap="round" stroke-linejoin="round"/>
<path d="M59.5936 37.9438L43.0515 38.6913L44.5897 47.115L47.0274 42.0263L52.9187 44.7L59.5936 37.9438Z" fill="#CC6228" stroke="#CC6228" stroke-linecap="round" stroke-linejoin="round"/>
<path d="M24.2169 44.7L30.0792 42.0263L32.517 47.115L34.0551 38.6913L17.513 37.9438L24.2169 44.7Z" fill="#CC6228" stroke="#CC6228" stroke-linecap="round" stroke-linejoin="round"/>
<path d="M17.5131 37.9438L24.4492 51.37L24.217 44.7L17.5131 37.9438Z" fill="#E27525" stroke="#E27525" stroke-linecap="round" stroke-linejoin="round"/>
<path d="M52.9189 44.7L52.6577 51.37L59.5938 37.9438L52.9189 44.7Z" fill="#E27525" stroke="#E27525" stroke-linecap="round" stroke-linejoin="round"/>
<path d="M34.0552 38.6913L32.5171 47.1151L34.4615 57.0626L34.8968 43.9526L34.0552 38.6913Z" fill="#E27525" stroke="#E27525" stroke-linecap="round" stroke-linejoin="round"/>
<path d="M43.0517 38.6913L42.2391 43.9238L42.6454 57.0626L44.5898 47.1151L43.0517 38.6913Z" fill="#E27525" stroke="#E27525" stroke-linecap="round" stroke-linejoin="round"/>
<path d="M44.5898 47.115L42.6454 57.0625L44.0384 58.04L52.6577 51.37L52.9189 44.7L44.5898 47.115Z" fill="#F5841F" stroke="#F5841F" stroke-linecap="round" stroke-linejoin="round"/>
<path d="M24.217 44.7L24.4492 51.37L33.0684 58.04L34.4615 57.0625L32.517 47.115L24.217 44.7Z" fill="#F5841F" stroke="#F5841F" stroke-linecap="round" stroke-linejoin="round"/>
<path d="M44.7639 67.2112L44.8509 64.48L44.0964 63.8475H33.0103L32.2848 64.48L32.3428 67.2112L23.056 62.8412L26.3064 65.4862L32.8942 70H44.1834L50.8003 65.4862L54.0216 62.8412L44.7639 67.2112Z" fill="#C0AC9D" stroke="#C0AC9D" stroke-linecap="round" stroke-linejoin="round"/>
<path d="M44.0384 58.04L42.6453 57.0625H34.4614L33.0684 58.04L32.2848 64.48L33.0103 63.8475H44.0964L44.851 64.48L44.0384 58.04Z" fill="#161616" stroke="#161616" stroke-linecap="round" stroke-linejoin="round"/>
<path d="M73.6399 23.9713L76.1067 12.0688L72.392 1L44.0383 21.8438L54.9503 30.9863L70.3605 35.4425L73.756 31.5038L72.2759 30.44L74.6266 28.3125L72.8273 26.9325L75.178 25.15L73.6399 23.9713Z" fill="#763E1A" stroke="#763E1A" stroke-linecap="round" stroke-linejoin="round"/>
<path d="M1 12.0688L3.49582 23.9713L1.89966 25.15L4.27939 26.9325L2.48008 28.3125L4.83079 30.44L3.35071 31.5038L6.74619 35.4425L22.1564 30.9863L33.0684 21.8438L4.71471 1L1 12.0688Z" fill="#763E1A" stroke="#763E1A" stroke-linecap="round" stroke-linejoin="round"/>
<path d="M70.3606 35.4425L54.9504 30.9862L59.5938 37.9437L52.6577 51.37L61.8284 51.255H75.5264L70.3606 35.4425Z" fill="#F5841F" stroke="#F5841F" stroke-linecap="round" stroke-linejoin="round"/>
<path d="M22.1564 30.9862L6.74612 35.4425L1.60938 51.255H15.2783L24.449 51.37L17.513 37.9437L22.1564 30.9862Z" fill="#F5841F" stroke="#F5841F" stroke-linecap="round" stroke-linejoin="round"/>
<path d="M43.0516 38.6913L44.0383 21.8438L48.5076 9.85504H28.5991L33.0683 21.8438L34.055 38.6913L34.4323 43.9813L34.4613 57.0625H42.6453L42.6743 43.9813L43.0516 38.6913Z" fill="#F5841F" stroke="#F5841F" stroke-linecap="round" stroke-linejoin="round"/>
</svg>
