<svg width="13" height="15" viewBox="0 0 13 15" fill="none" xmlns="http://www.w3.org/2000/svg">
    <path d="M10.875 9.4375C11.0938 9.4375 11.3125 9.24609 11.3125 9V3.42188L9.45312 1.5625H5.625C5.37891 1.5625 5.1875 1.78125 5.1875 2V9C5.1875 9.24609 5.37891 9.4375 5.625 9.4375H10.875ZM5.625 10.75C4.64062 10.75 3.875 9.98438 3.875 9V2C3.875 1.04297 4.64062 0.25 5.625 0.25H9.45312C9.78125 0.25 10.1367 0.414062 10.3828 0.660156L12.2148 2.49219C12.4609 2.73828 12.625 3.09375 12.625 3.42188V9C12.625 9.98438 11.832 10.75 10.875 10.75H5.625ZM2.125 3.75H3V5.0625H2.125C1.87891 5.0625 1.6875 5.28125 1.6875 5.5V12.5C1.6875 12.7461 1.87891 12.9375 2.125 12.9375H7.375C7.59375 12.9375 7.8125 12.7461 7.8125 12.5V11.625H9.125V12.5C9.125 13.4844 8.33203 14.25 7.375 14.25H2.125C1.14062 14.25 0.375 13.4844 0.375 12.5V5.5C0.375 4.54297 1.14062 3.75 2.125 3.75Z"
          fill="currentColor"/>
</svg>
