<svg width="16" height="16" viewBox="0 0 16 16" fill="none" xmlns="http://www.w3.org/2000/svg">
    <path d="M14 6.17143V9.88571C14 12.7429 12.7488 14 9.84834 14H9.79147C7.23223 14 5.92417 12.9143 5.69668 10.6286C5.63981 10.3429 5.92417 10.0571 6.20853 10C6.49289 9.94286 6.77725 10.2286 6.83412 10.5143C7.00474 12.2286 7.80095 12.8571 9.79147 12.8571H9.84834C12.0663 12.8571 12.8626 12.1143 12.8626 9.82857V6.17143C12.8626 3.94286 12.1232 3.14286 9.84834 3.14286H9.79147C7.80095 3.14286 6.94787 3.77143 6.83412 5.54286C6.83412 5.88571 6.54976 6.11428 6.20853 6.05714C5.8673 6.05714 5.63981 5.77143 5.69668 5.42857C5.92417 3.08571 7.17536 2 9.79147 2H9.84834C12.6919 2 14 3.25714 14 6.17143ZM3.99052 8.57143H9.7346C10.0758 8.57143 10.3033 8.34286 10.3033 8C10.3033 7.65714 10.0758 7.42857 9.7346 7.42857H3.99052L4.90047 6.51429C5.12796 6.28571 5.12796 5.94286 4.90047 5.71429C4.67299 5.48571 4.33175 5.48571 4.10426 5.71429L2.17062 7.65714C1.94313 7.88571 1.94313 8.22857 2.17062 8.45714L4.10426 10.4C4.21801 10.5143 4.38863 10.5714 4.50237 10.5714C4.61611 10.5714 4.78673 10.5143 4.90047 10.4C5.12796 10.1714 5.12796 9.82857 4.90047 9.6L3.99052 8.57143Z"
          fill="currentColor"/>
</svg>
