<svg xmlns="http://www.w3.org/2000/svg" fill="none" viewBox="0 0 11 11">
  <path fill="currentColor" fill-rule="evenodd" d="M2.759 0h5.83v2.381h.708l.954.834v5.38l-.954.835H6.392v-1.5h2.342l.017-.016V6.655H7.052v-1.5h1.7V3.897l-.018-.016H1.5v.54H0V2.827L2.759 0ZM2.53 2.381h4.56V1.5h-3.7l-.86.881Z" clip-rule="evenodd"/>
  <path fill="currentColor" fill-rule="evenodd" d="m0 9.37004.958.95696H4.52l.958-.95796v-3.517l-.958-.958H.958l-.958.958v3.518Zm3.89756-3.20793-1.858 1.858-.74-.74-.572998.575 1.312998 1.313 2.432-2.432-.574-.574Z" clip-rule="evenodd"/>
</svg>