<svg xmlns="http://www.w3.org/2000/svg" fill="none" viewBox="0 0 123 33">
  <path fill="#fff" d="M19.2598 15.4357c.029-2.1654 1.1638-4.1658 3.0078-5.3006-1.1695-1.67038-3.057-2.69229-5.095-2.75597-2.1452-.22581-4.2208 1.28245-5.3151 1.28245-1.1145 0-2.79648-1.26219-4.60581-1.22456-2.38252.07817-4.55081 1.40114-5.71167 3.48258-2.469368 4.2758-.6282 10.5578 1.73695 14.0143 1.18402 1.6935 2.56779 3.581 4.37712 3.5144 1.77169-.0723 2.43171-1.129 4.57111-1.129 2.1161 0 2.7386 1.1291 4.5855 1.0856 1.8991-.0289 3.0976-1.6993 4.2382-3.4073.8511-1.2072 1.5053-2.5388 1.9396-3.9487-2.2581-.9524-3.7258-3.1641-3.7287-5.6132ZM15.7743 5.10662C16.8107 3.8618 17.3202 2.2638 17.1986.648438c-1.5835.16501-3.0454.923482-4.0963 2.119082-1.0364 1.18113-1.5632 2.72412-1.459 4.29027 1.6009.01737 3.1236-.70346 4.131-1.95117ZM40.5128 24.3331h-5.8101l-1.3983 4.1194h-2.4606L36.347 13.205h2.5562l5.5061 15.2475h-2.5041l-1.3924-4.1194Zm-5.2109-1.902h4.6058l-2.2725-6.6873h-.0637c.0029 0-2.2696 6.6873-2.2696 6.6873Zm20.9969.4632c0 3.4536-1.8499 5.674-4.6406 5.674-1.4417.0753-2.7994-.6803-3.497-1.9454h-.0522v5.5062h-2.2812V17.336h2.2089v1.8499h.0405c.7266-1.2564 2.0872-2.012 3.5405-1.9657 2.8225.0029 4.6811 2.232 4.6811 5.6741Zm-2.3449 0c0-2.2494-1.1638-3.7287-2.9384-3.7287-1.7427 0-2.9151 1.5112-2.9151 3.7316 0 2.2406 1.1724 3.7402 2.9151 3.7402 1.7746 0 2.9384-1.4706 2.9384-3.7431Zm14.5788 0c0 3.4536-1.8499 5.674-4.6406 5.674-1.4416.0753-2.7993-.6803-3.497-1.9454h-.0521v5.5062h-2.2812V17.336h2.2088v1.8499h.0405c.7295-1.2564 2.0873-2.012 3.5405-1.9657 2.8226.0029 4.6811 2.232 4.6811 5.6741Zm-2.3449 0c0-2.2494-1.1637-3.7287-2.9383-3.7287-1.7428 0-2.9152 1.5112-2.9152 3.7316 0 2.2406 1.1724 3.7402 2.9152 3.7402 1.7746 0 2.9383-1.4706 2.9383-3.7431Zm10.4304 1.3114c.1708 1.5111 1.6385 2.5041 3.6447 2.5041 1.9222 0 3.306-.993 3.306-2.3565 0-1.184-.8337-1.8904-2.811-2.3767l-1.9772-.4748c-2.7994-.6774-4.0992-1.9859-4.0992-4.1108 0-2.6314 2.2928-4.4379 5.5467-4.4379 3.222 0 5.4308 1.8065 5.5061 4.4379H83.43c-.139-1.5227-1.3954-2.4404-3.2337-2.4404-1.8382 0-3.0946.9293-3.0946 2.2812 0 1.0798.8048 1.7109 2.7704 2.1973l1.6791.4139c3.1294.7382 4.4263 1.9975 4.4263 4.2266 0 2.8515-2.2725 4.6406-5.8854 4.6406-3.3812 0-5.6653-1.7457-5.813-4.5016.0029-.0029 2.3391-.0029 2.3391-.0029Zm14.2893-9.4983v2.6315h2.1133v1.8065h-2.1133v6.1285c0 .9524.4227 1.3954 1.352 1.3954.2518-.0058.5008-.0232.7498-.0522v1.7949c-.4198.0782-.8425.1129-1.268.1071-2.2494 0-3.1294-.8453-3.1294-2.9991v-6.3717h-1.6183v-1.8065h1.6183v-2.6344h2.2956Zm3.335 8.1869c0-3.4971 2.0612-5.6943 5.2716-5.6943 3.2219 0 5.2749 2.1972 5.2749 5.6943 0 3.5086-2.041 5.6943-5.2749 5.6943-3.2307.0029-5.2716-2.1857-5.2716-5.6943Zm8.2215 0c0-2.3999-1.1-3.8155-2.9499-3.8155-1.8469 0-2.947 1.4272-2.947 3.8155 0 2.4086 1.1001 3.8126 2.947 3.8126 1.8499.0029 2.9499-1.4012 2.9499-3.8126Zm4.206-5.5583h2.177v1.8904h.052c.304-1.2187 1.419-2.0554 2.672-2.0091.264 0 .527.029.782.084v2.1336c-.333-.1014-.677-.1477-1.025-.139-.671-.0261-1.32.2403-1.777.7324-.458.4921-.678 1.158-.599 1.8267v6.5917h-2.285V17.336h.003Zm16.206 7.8511c-.307 2.0177-2.272 3.4015-4.785 3.4015-3.234 0-5.24-2.1654-5.24-5.6422 0-3.4855 2.018-5.7493 5.144-5.7493 3.075 0 5.009 2.1133 5.009 5.483v.7816h-7.852v.1389c-.072.828.212 1.6473.785 2.2494.573.6021 1.375.9293 2.206.9003 1.109.1042 2.151-.5327 2.568-1.5632h2.165Zm-7.715-3.3176h5.558c.041-.744-.228-1.4706-.746-2.0062-.519-.5356-1.237-.8308-1.981-.8164-.749-.0058-1.47.2895-2.003.8222-.53.5298-.831 1.2506-.828 2.0004ZM35.0131 1.73686c.9698-.06947 1.9165.29818 2.5852 1.00454.6687.70347.9843 1.67037.8627 2.63438 0 2.34199-1.2651 3.68523-3.4479 3.68523h-2.6459V1.73397h2.6459v.00289Zm-1.5082 6.29066h1.3809c.6918.04053 1.3664-.23159 1.8353-.74109.469-.50951.6832-1.20718.5819-1.89328.0927-.6832-.1216-1.37219-.5905-1.8788-.469-.50662-1.1377-.77874-1.8267-.7411h-1.3809v5.25427Zm6.2385-1.73116c-.0955-.99295.3793-1.95117 1.2246-2.47515.8453-.52688 1.9164-.52688 2.7617 0 .8454.52398 1.3201 1.4822 1.2246 2.47515.0955.99296-.3763 1.95118-1.2246 2.47805-.8453.52688-1.9164.52688-2.7646 0-.8424-.52398-1.3172-1.48509-1.2217-2.47805Zm4.0935 0c0-1.19849-.5385-1.89906-1.4822-1.89906-.9496 0-1.4822.70057-1.4822 1.89906 0 1.21008.5326 1.90486 1.4822 1.90486.9437 0 1.4822-.70057 1.4822-1.90486Zm8.0536 2.76755h-1.1319l-1.1435-4.07026h-.0868l-1.1377 4.07026h-1.1204l-1.5256-5.5293h1.1059l.99 4.2179h.0811l1.1348-4.2179h1.048l1.1348 4.2179h.0868l.9843-4.2179h1.0914l-1.5112 5.5293Zm2.7994-5.5293h1.0509v.87716h.081c.2837-.64556.9467-1.04217 1.6501-.98427.5443-.04053 1.0798.1679 1.4504.5674.3734.3995.5442.94664.4632 1.48799v3.57812h-1.0914v-3.306c0-.88874-.385-1.32876-1.1927-1.32876-.3706-.01737-.7295.12737-.9814.3966-.2548.26923-.3763.63688-.3387 1.00454v3.23362h-1.0914v-5.5264ZM61.1253 1.375h1.0914v7.68601h-1.0914V1.375Zm2.6054 4.92136c-.0955-.99295.3793-1.95117 1.2275-2.47515.8453-.52688 1.9164-.52688 2.7617 0 .8454.52398 1.323 1.4822 1.2275 2.47515.0955.99296-.3764 1.95118-1.2246 2.47805-.8482.52688-1.9193.52688-2.7646 0-.8482-.52398-1.323-1.48509-1.2275-2.47805Zm4.0935 0c0-1.19849-.5385-1.89906-1.4822-1.89906-.9496 0-1.4822.70057-1.4822 1.89906 0 1.21008.5326 1.90486 1.4822 1.90486.9437 0 1.4822-.70057 1.4822-1.90486Zm2.2725 1.20429c0-.99585.7411-1.56904 2.0554-1.6501l1.4966-.08685v-.47767c0-.58477-.385-.91189-1.1319-.91189-.6079 0-1.0306.2229-1.1522.61372H70.308c.11-.94954 1.0045-1.55747 2.258-1.55747 1.3867 0 2.1683.689 2.1683 1.85854V9.0668h-1.0508v-.77873h-.0869c-.356.5674-.9929.90032-1.6617.86848-.4689.04921-.9379-.10422-1.2882-.41977-.3474-.31554-.55-.76426-.55-1.23613Zm3.552-.47187v-.46319l-1.3519.08685c-.7614.05211-1.1059.30976-1.1059.799 0 .49792.4314.78742 1.0249.78742.3502.03474.7034-.07238.9726-.30108.2722-.23159.4372-.55872.4603-.909Zm2.5215-.73242c0-1.74853.8974-2.85439 2.2957-2.85439.7034-.03184 1.3664.3445 1.6964.9698h.0811V1.375h1.0914v7.68891h-1.0451v-.87427h-.0869c-.3531.61952-1.0248.99296-1.7369.96401-1.4069 0-2.2957-1.10586-2.2957-2.85729Zm1.1261 0c0 1.17245.553 1.87881 1.4764 1.87881.9206 0 1.488-.71505 1.488-1.87302 0-1.15217-.5761-1.8788-1.488-1.8788-.9148 0-1.4764.70926-1.4764 1.87301Zm8.5516 0c-.0955-.99295.3793-1.95117 1.2246-2.47515.8453-.52688 1.9164-.52688 2.7617 0 .8453.52398 1.3201 1.4822 1.2246 2.47515.0955.99296-.3764 1.95118-1.2246 2.47805-.8453.52688-1.9164.52688-2.7646 0-.8453-.52398-1.3201-1.48509-1.2217-2.47805Zm4.0934 0c0-1.19849-.5384-1.89906-1.4822-1.89906-.9495 0-1.4822.70057-1.4822 1.89906 0 1.21008.5327 1.90486 1.4822 1.90486.9438 0 1.4822-.70057 1.4822-1.90486Zm2.5852-2.76175h1.0509v.87716h.081c.2837-.64556.9467-1.04217 1.6501-.98427.5443-.04053 1.0798.1679 1.4504.5674.3734.3995.5413.94664.4632 1.48799v3.57812h-1.0914v-3.306c0-.88874-.385-1.32876-1.1927-1.32876-.3706-.01737-.7267.12737-.9814.3966-.2519.26923-.3763.63688-.3358 1.00454v3.23362h-1.0914v-5.5264h-.0029Zm10.8615-1.37508v1.40114h1.199v.91768h-1.199v2.84282c0 .57898.238.83373.782.83373.139 0 .278-.00868.417-.02605v.909c-.197.03474-.394.055-.594.0579-1.213 0-1.696-.42845-1.696-1.49378V4.47835h-.88v-.91768h.877V2.15953h1.094Zm2.687-.78453h1.082v3.04546h.087c.296-.65136.97-1.04796 1.685-.99007.541-.02894 1.068.18528 1.439.58188.368.3995.538.94085.466 1.47931v3.56943h-1.091v-3.3031c0-.88295-.411-1.33166-1.182-1.33166-.379-.03185-.752.10711-1.021.37923-.27.26923-.403.64557-.371 1.0248v3.23073h-1.091V1.375h-.003Zm11.119 6.19513c-.307 1.04217-1.314 1.71668-2.397 1.59799-.735.02027-1.444-.28659-1.937-.83663-.492-.55003-.718-1.28824-.616-2.01776-.099-.73241.127-1.47351.616-2.02644.49-.55583 1.193-.86848 1.934-.86269 1.537 0 2.467 1.05086 2.467 2.78781v.37924h-3.903v.06079c-.034.41108.107.81636.385 1.11744.281.30107.675.47187 1.086.46608.536.06369 1.054-.19975 1.317-.67162l1.048.00579Zm-3.836-1.78038h2.794c.026-.37634-.104-.74399-.365-1.01611-.257-.27502-.622-.42266-.999-.41687-.382-.00579-.749.14474-1.019.41687-.269.26633-.416.63398-.411 1.01611Z"/>
</svg>