<svg xmlns="http://www.w3.org/2000/svg" fill="none" viewBox="0 0 17 20">
  <path fill="currentColor" d="M14.1979 10.6377c.0218-1.55776.8746-2.99681 2.2604-3.81317-.8789-1.20163-2.2974-1.93678-3.829-1.98259-1.612-.16244-3.17191.92257-3.99427.92257-.83758 0-2.10158-.90799-3.46129-.88092C3.38326 4.93982 1.75378 5.89155.881387 7.3889-.974353 10.4648.409294 14.984 2.18671 17.4705c.8898 1.2183 1.92971 2.5762 3.28943 2.5283 1.33143-.0521 1.82746-.8122 3.43518-.8122 1.59028 0 2.05808.8122 3.44608.7809 1.4271-.0208 2.3278-1.2224 3.185-2.4511.6396-.8685 1.1313-1.8264 1.4576-2.8406-1.6969-.6852-2.7999-2.2763-2.8021-4.0381Zm-2.6194-7.43056c.7789-.8955 1.1618-2.04507 1.0704-3.20714-1.19.118706-2.2887.664336-3.07839 1.52443-.77884.84968-1.17479 1.95968-1.09647 3.08634 1.20308.0125 2.34746-.50605 3.10446-1.40363Z"/>
</svg>