<svg width="37" height="36" viewBox="0 0 37 36" fill="none" xmlns="http://www.w3.org/2000/svg">
<path d="M18.2969 0C8.35348 0 0.296875 8.05661 0.296875 18C0.296875 27.9434 8.35348 36 18.2969 36C28.2403 36 36.2969 27.9434 36.2969 18C36.2969 8.05661 28.2403 0 18.2969 0ZM11.4665 25.8662C11.3561 26.0546 11.1979 26.2105 11.0081 26.3185C10.8182 26.4264 10.6033 26.4824 10.3849 26.4809C10.1623 26.4828 9.94363 26.4227 9.7533 26.3073C9.61159 26.2252 9.4875 26.1159 9.38814 25.9857C9.28878 25.8555 9.2161 25.707 9.17429 25.5486C9.13248 25.3902 9.12236 25.2252 9.1445 25.0629C9.16663 24.9006 9.2206 24.7443 9.3033 24.6029L10.532 22.5603C10.5941 22.4548 10.6826 22.3675 10.7889 22.3069C10.8952 22.2462 11.0155 22.2145 11.1379 22.2147H11.3195C12.2106 22.2147 12.8342 22.7507 13.0158 23.2698L11.4665 25.8662ZM21.8688 21.8483L13.8226 21.8571H8.47482C8.30657 21.8579 8.13992 21.8244 7.98499 21.7588C7.83006 21.6931 7.69008 21.5967 7.57354 21.4754C7.45699 21.354 7.36631 21.2102 7.307 21.0528C7.24768 20.8953 7.22097 20.7275 7.22848 20.5594C7.2542 19.8844 7.84321 19.3733 8.5142 19.3733H12.3906L16.9862 11.5505L15.498 9.01527C15.1629 8.4375 15.3116 7.67571 15.8862 7.3125C16.0278 7.22089 16.1865 7.15887 16.3527 7.13017C16.519 7.10147 16.6893 7.10668 16.8535 7.14549C17.0176 7.1843 17.1722 7.2559 17.308 7.356C17.4438 7.45609 17.5579 7.58261 17.6436 7.72795L18.4391 9.08679H18.4479L19.2443 7.72795C19.33 7.58336 19.444 7.45753 19.5794 7.35793C19.7148 7.25834 19.8689 7.18703 20.0324 7.14826C20.196 7.10949 20.3656 7.10406 20.5313 7.13227C20.6971 7.16049 20.8554 7.22178 20.9969 7.3125C21.5682 7.67571 21.7153 8.4375 21.3778 9.01768L19.8896 11.5529L18.4431 14.0191L15.302 19.3757V19.3846H19.9313C20.5115 19.3846 21.2387 19.6963 21.5329 20.1978L21.5586 20.25C21.8181 20.6912 21.9652 20.9941 21.9652 21.4353C21.9609 21.5785 21.929 21.7196 21.8712 21.8507L21.8688 21.8483ZM28.1165 21.8571H25.938V21.866L27.5307 24.5748C27.702 24.8601 27.7544 25.2012 27.6767 25.5248C27.599 25.8484 27.3974 26.1285 27.1153 26.3049C26.9197 26.4242 26.695 26.4873 26.466 26.4873C26.2482 26.4872 26.0341 26.4308 25.8446 26.3235C25.6551 26.2162 25.4965 26.0617 25.3844 25.875L23.0307 21.8684L21.5682 19.3773L19.6814 16.1518C19.4081 15.6912 19.2596 15.1674 19.2504 14.6319C19.2413 14.0965 19.3718 13.5679 19.6292 13.0982C20.0021 12.4401 20.2873 12.2673 20.2873 12.2673L24.4844 19.3661H28.0932C28.7682 19.3661 29.3476 19.8852 29.3789 20.5513C29.3854 20.7207 29.3576 20.8896 29.2972 21.048C29.2368 21.2063 29.1449 21.3508 29.0272 21.4728C28.9096 21.5948 28.7684 21.6917 28.6123 21.7577C28.4562 21.8238 28.2884 21.8576 28.1189 21.8571H28.1165Z" fill="currentColor"/>
</svg>
