<svg width="21" height="25" viewBox="0 0 21 25" fill="none" xmlns="http://www.w3.org/2000/svg">
  <path d="M17.0375 12.7652C17.0636 10.8959 18.087 9.16907 19.7499 8.18944C18.6952 6.74748 16.9931 5.86531 15.1552 5.81033C13.2207 5.6154 11.3489 6.91741 10.362 6.91741C9.35694 6.91741 7.84014 5.82782 6.20849 5.86031C4.05992 5.92778 2.10454 7.06985 1.05766 8.86668C-1.16922 12.5578 0.491153 17.9808 2.62406 20.9647C3.69182 22.4266 4.93971 24.056 6.57137 23.9985C8.16909 23.936 8.76431 23.0239 10.6936 23.0239C12.602 23.0239 13.1633 23.9985 14.8289 23.961C16.5415 23.936 17.6223 22.4941 18.6509 21.0196C19.4184 19.9775 20.0084 18.828 20.4 17.6109C18.3637 16.7887 17.0401 14.8794 17.0375 12.7652ZM13.8943 3.84856C14.8289 2.77396 15.2883 1.39448 15.1787 0C13.7507 0.142447 12.4323 0.797204 11.4846 1.82932C10.55 2.84894 10.0749 4.18094 10.1688 5.53293C11.6125 5.54792 12.9857 4.92566 13.8943 3.84856Z" fill="currentColor"/>
</svg>