<svg xmlns="http://www.w3.org/2000/svg" fill="none" viewBox="0 0 150 180">
  <path fill="url(#a)" d="m144.923 43.3846 4-10.4615s-5.231-5.8462-11.692-12.3077c-6.462-6.4616-20-2.7692-20-2.7692L101.846 0H47.6923L32.3077 17.8462s-13.5385-3.6924-20 2.7692C5.84615 27.0769.615385 32.9231.615385 32.9231L5.23077 43.3846 0 58.7692s15.3846 59.6928 17.2308 67.0768c3.6923 14.462 6.1538 20 16 27.077 9.8461 7.077 28.6153 20 31.3846 21.846 3.0769 1.846 6.7692 5.231 10.1538 5.231 3.3846 0 7.077-3.385 10.1539-5.231s21.5389-14.461 31.3849-21.846c9.846-7.385 12.615-12.923 16-27.077 1.846-7.384 17.23-67.0768 17.23-67.0768l-4.615-15.3846Z"/>
  <path fill="#fff" d="M75.0769 112C76 112 82.7692 114.462 88 117.231c5.2308 2.769 9.2308 4.615 10.4615 5.538 1.2308.923.6154 2.154-.6154 3.077-1.2307.923-15.9999 12.616-17.5384 13.846-1.5385 1.231-3.6923 3.385-4.9231 3.385s-3.6923-2.154-4.9231-3.385c-1.5384-1.23-16.3077-13.23-17.5384-13.846-1.2308-.923-1.8462-2.154-.6154-3.077 1.2308-.923 4.9231-2.769 10.4615-5.538C67.3846 114.154 74.1538 112 75.0769 112Zm0-84.3077c.6154 0 3.3846.3077 7.3846 1.5385 4.6154 1.5384 9.2308 3.3846 11.6923 3.3846 2.4616 0 19.0772-3.3846 19.0772-3.3846s19.692 24.3077 19.692 29.5384C132.923 64 130.462 65.2308 128 68c-2.462 2.7692-13.538 14.4615-14.769 16-1.539 1.5385-4.308 3.6923-2.462 8 1.846 4 4.308 9.538 1.539 14.769-2.77 5.231-7.693 8.923-10.77 8.308-3.0765-.615-10.4611-4.615-12.9226-6.154-2.7693-1.846-11.0769-8.923-11.0769-11.6922 0-2.7693 8.6153-7.6923 10.4615-8.6154 1.5385-1.2308 8.9231-5.5385 9.2308-7.0769 0-1.5385 0-2.1539-2.1539-6.4616-2.1538-4.3077-6.1538-9.8461-5.5384-13.5384.6153-3.6923 7.0769-5.5385 11.3845-7.3847 4.615-1.8461 13.231-4.923 14.154-5.5384 1.231-.6154.923-.9231-2.462-1.2308-3.384-.3077-12.615-1.5384-16.9227-.3077-4.3077 1.2308-11.3846 3.0769-12 4-.6154.9231-1.2308 1.2308-.6154 4.6154.6154 3.3846 3.6923 19.3846 4 22.1539.3077 2.7692.9231 4.6153-2.1538 5.5384-3.0769.6154-8 1.8462-9.8462 1.8462-1.8461 0-6.7692-1.2308-9.8461-1.8462-3.077-.6154-2.4616-2.4615-2.1539-5.5384.3077-2.7693 3.3846-18.7693 4-22.1539.6154-3.3846 0-3.3846-.6154-4.3077-.6153-.9231-7.6923-2.7692-12-4-4.3077-1.2307-13.5384 0-16.923.3077-3.3847.3077-3.6924.9231-2.4616 1.2308 1.2308.6154 9.8462 3.6923 14.1539 5.5384C53.8461 56.3077 60 58.1538 60.6154 61.8462c.6154 3.6923-3.3846 9.2307-5.5385 13.5384-2.1538 4.3077-2.1538 4.6154-2.1538 6.4616 0 1.5384 7.3846 5.8461 9.2307 7.0769 1.5385 1.2307 10.4616 6.1538 10.4616 8.6154 0 2.7695-8.6154 9.8465-11.0769 11.6925-2.7693 1.846-9.8462 5.538-12.9231 6.154-3.0769.615-8-3.077-10.7692-8.308-2.7693-5.231-.3077-10.7693 1.5384-14.7693 1.8462-4-1.2308-6.4615-2.4615-8-1.5385-1.5385-12.3077-13.2308-14.7693-16-2.4615-2.7692-4.923-4-4.923-9.2308 0-5.2307 19.6923-29.5384 19.6923-29.5384S53.5385 32.9231 56 32.9231c2.4615 0 7.0769-1.8462 11.6923-3.3846 4-1.8462 6.7692-1.8462 7.3846-1.8462Z"/>
  <path fill="url(#b)" d="M117.538 18.1538 102.154.307692H48L32.6154 18.1538s-13.5385-3.6923-20 2.7693c0 0 18.1538-1.5385 24.3077 8.6154 0 0 16.6154 3.3846 19.0769 3.3846 2.4615 0 7.0769-1.8462 11.6923-3.3846C72.3077 28 75.0769 28 75.0769 28s3.0769 0 7.3846 1.5385c4.6154 1.5384 9.2308 3.3846 11.6923 3.3846 2.4616 0 19.0772-3.3846 19.0772-3.3846 6.154-10.1539 24.307-8.6154 24.307-8.6154-6.461-6.7693-20-2.7693-20-2.7693Z"/>
  <defs>
    <linearGradient id="a" x1="-.0543621" x2="150.093" y1="89.9922" y2="89.9922" gradientUnits="userSpaceOnUse">
      <stop stop-color="#F50"/>
      <stop offset=".4099" stop-color="#F50"/>
      <stop offset=".582" stop-color="#FF2000"/>
      <stop offset="1" stop-color="#FF2000"/>
    </linearGradient>
    <linearGradient id="b" x1="15.5115" x2="137.454" y1="16.4361" y2="16.4361" gradientUnits="userSpaceOnUse">
      <stop stop-color="#FF452A"/>
      <stop offset="1" stop-color="#FF2000"/>
    </linearGradient>
  </defs>
</svg>
