<svg xmlns="http://www.w3.org/2000/svg" fill="none" viewBox="0 0 25 25">
  <path fill="#fff" d="M12.625 18.7343c3.3137 0 6-2.6863 6-6 0-3.31366-2.6863-5.99992-6-5.99992-3.31371 0-6 2.68626-6 5.99992 0 3.3137 2.68629 6 6 6Z"/>
  <path fill="#D93025" d="M12.6257 6.73434h10.3906c-1.0529-1.82429-2.5676-3.33922-4.3917-4.39246C16.8005 1.28865 14.7313.734228 12.6249.734375c-2.1063.000147-4.17551.554855-5.99947 1.608345-1.82396 1.05349-3.33841 2.56863-4.39105 4.39307l5.19529 8.99841.00465-.0012c-.5285-.9113-.8074-1.9459-.80858-2.9994-.00119-1.0535.27538-2.0887.80183-3.00124.52645-.91254 1.28417-1.67017 2.19678-2.19652.91265-.52634 1.94785-.8028 3.00135-.8015Z"/>
  <path fill="#1A73E8" d="M12.625 17.4843c2.6233 0 4.75-2.1266 4.75-4.75 0-2.6233-2.1267-4.74992-4.75-4.74992-2.6234 0-4.75 2.12662-4.75 4.74992 0 2.6234 2.1266 4.75 4.75 4.75Z"/>
  <path fill="#FCC934" d="m17.8224 15.7342-5.1953 8.9984c2.1064.0003 4.1757-.5539 5.9999-1.607 1.8241-1.0531 3.3389-2.5679 4.3919-4.3922 1.0531-1.8242 1.6073-3.8935 1.6069-5.9998-.0004-2.1063-.5553-4.1754-1.609-5.99922H12.6262l-.0012.00464c1.0535-.00203 2.089.27372 3.0019.79944.913.52572 1.6712 1.28284 2.1983 2.19503.5271.91221.8043 1.94721.8038 3.00071-.0004 1.0535-.2787 2.0883-.8066 3Z"/>
  <path fill="#1E8E3E" d="M7.42845 15.7328 2.23316 6.73438C1.17972 8.55836.625079 10.6275.625 12.7339c-.000078 2.1063.55441 4.1755 1.60771 5.9996 1.0533 1.824 2.56829 3.3386 4.39262 4.3915 1.82434 1.0528 3.89367 1.6068 6.00007 1.6062l5.1953-8.9985-.0034-.0034c-.525.9134-1.2815 1.6722-2.1933 2.2-.9118.5278-1.9466.8059-3.0001.8062-1.0535.0004-2.0885-.277-3.00064-.8042-.91214-.5271-1.66918-1.2854-2.19481-2.1985Z"/>
</svg>