<svg xmlns="http://www.w3.org/2000/svg" fill="none" viewBox="0 0 10 11">
  <path fill="currentColor" d="M2.64139 2.45014c.576 0 1.04294-.46694 1.04294-1.04294 0-.576002-.46694-1.042942-1.04294-1.042942S1.59845.831198 1.59845 1.4072c0 .576.46694 1.04294 1.04294 1.04294ZM0 4.95605c0-1.10457.895431-2 2-2h.83389c-.10749.26686-.16666.55836-.16666.86369 0 .77846.3846 1.46708.97415 1.88623H0v-.74992Zm6.31867.74992H10v-.74992c0-1.10456-.89542-2-1.99998-2h-.87387c.10749.26686.16666.55836.16666.86369 0 .77846-.3846 1.46708-.97414 1.88623ZM8.40155 1.4072c0 .576-.46694 1.04294-1.04294 1.04294S6.31567 1.9832 6.31567 1.4072c0-.576002.46694-1.042942 1.04294-1.042942S8.40155.831198 8.40155 1.4072ZM6.52497 3.81931c0 .85322-.69168 1.54489-1.5449 1.54489s-1.54489-.69167-1.54489-1.54489c0-.85322.69167-1.5449 1.54489-1.5449.85322 0 1.5449.69168 1.5449 1.5449ZM1.01703 9.23828c0-1.65685 1.34314-3 3-3h1.92614c1.65686 0 3 1.34315 3 3v1.12592H1.01703V9.23828Z"/>
</svg>