<svg xmlns="http://www.w3.org/2000/svg" fill="none" viewBox="0 0 9 9">
  <path fill="currentColor" d="M7.15909 5.31818H6.13636V3.68182h1.02273c.3641 0 .72002-.10797 1.02276-.31025.30273-.20228.53868-.48979.67802-.82618.13933-.33638.17579-.70652.10476-1.06362-.07103-.35711-.24636-.685124-.50382-.94258-.25746-.257455-.58547-.432785-.94258-.5038166-.3571-.0710319-.72724-.03457577-1.06362.1047586-.33639.139334-.6239.375287-.82618.678023-.20228.302735-.31025.658655-.31025 1.022755v1.02273H3.68182V1.84091c0-.3641-.10797-.72002-.31025-1.022755-.20228-.302736-.48979-.538689-.82618-.678023-.33638-.13933437-.70652-.1757905-1.06362-.1047586C1.12466.106405.796646.281735.53919.53919c-.257455.257456-.432785.58547-.5038166.94258-.0710319.3571-.03457577.72724.1047586 1.06362.139334.33639.375287.6239.678023.82618.302735.20228.658655.31025 1.022755.31025h1.02273v1.63636H1.84091c-.3641 0-.72002.10797-1.022755.31025-.302736.20228-.538689.48979-.678023.82618-.13933437.33638-.1757905.70652-.1047586 1.06362.0710316.35711.2463616.68512.5038166.94258.257456.25746.58547.43279.94258.50382.3571.07103.72724.03457 1.06362-.10476.33639-.13934.6239-.37529.82618-.67802.20228-.30274.31025-.65866.31025-1.02276V6.13636h1.63636v1.02273c0 .3641.10797.72002.31025 1.02276.20228.30273.48979.53868.82618.67802.33638.13933.70652.17579 1.06362.10476.35711-.07103.68512-.24636.94258-.50382s.43279-.58547.50382-.94258c.07103-.3571.03457-.72724-.10476-1.06362-.13934-.33639-.37529-.6239-.67802-.82618-.30274-.20228-.65866-.31025-1.02276-.31025ZM6.13636 1.84091c0-.20228.05999-.40001.17236-.5682.11238-.16818.27211-.299269.45899-.376677.18688-.077408.39252-.097661.5909-.058199.19839.039462.38063.136867.52366.279896.14303.14303.24043.32527.2799.52366.03946.19838.0192.40402-.0582.5909-.07741.18688-.2085.34661-.37668.45899-.16819.11237-.36592.17236-.5682.17236H6.13636V1.84091Zm-5.318178 0c0-.27124.107752-.53138.299548-.72318.1918-.191796.45194-.299548.72318-.299548.27124 0 .53138.107752.72318.299548.1918.1918.29955.45194.29955.72318v1.02273H1.84091c-.27124 0-.53138-.10775-.72318-.29955-.191796-.1918-.299548-.45194-.299548-.72318ZM2.86364 7.15909c0 .20228-.05999.40001-.17236.5682-.11238.16818-.27211.29927-.45899.37668-.18688.0774-.39252.09766-.5909.0582-.19839-.03947-.38063-.13687-.52366-.2799C.974701 7.73924.877296 7.557.837834 7.35861c-.039462-.19838-.019209-.40402.058199-.5909s.208497-.34661.376677-.45899c.16819-.11237.36592-.17236.5682-.17236h1.02273v1.02273Zm.81818-3.47727h1.63636v1.63636H3.68182V3.68182Zm3.47727 4.5c-.27124 0-.53138-.10775-.72318-.29955-.1918-.1918-.29955-.45194-.29955-.72318V6.13636h1.02273c.27124 0 .53138.10775.72318.29955.1918.1918.29955.45194.29955.72318 0 .27124-.10775.53138-.29955.72318-.1918.1918-.45194.29955-.72318.29955Z"/>
</svg>