<svg xmlns="http://www.w3.org/2000/svg" fill="none" viewBox="0 0 10 10">
  <path fill="currentColor" fill-rule="evenodd" d="M5 8.5c1.933 0 3.5-1.567 3.5-3.5S6.933 1.5 5 1.5 1.5 3.067 1.5 5 3.067 8.5 5 8.5ZM5 10c2.76142 0 5-2.23858 5-5S7.76142 0 5 0 0 2.23858 0 5s2.23858 5 5 5Z" clip-rule="evenodd"/>
  <path fill="currentColor" fill-rule="evenodd" d="m3.34967 7.04503 2.68304-1.04132 1.06066-2.70238-.41216-.41217-2.70416 1.11693L2.9375 6.63287l.41217.41216Zm1.98794-1.67256c.19681-.19681.19681-.5159 0-.71271-.19681-.19681-.5159-.19681-.71271 0-.19681.19681-.19681.5159 0 .71271.19681.19681.5159.19681.71271 0Z" clip-rule="evenodd"/>
</svg>