<svg xmlns="http://www.w3.org/2000/svg" fill="none" viewBox="0 0 12 12">
  <path fill="currentColor" fill-rule="evenodd" d="M8.11729 9.62704C7.49527 9.9907 6.7716 10.199 6 10.199c-2.3196 0-4.2-1.88038-4.2-4.19998 0-1.27664.5696-2.42025 1.46852-3.19055-.01485.17876-.02243.35956-.02243.5421 0 3.02288 2.0708 5.5621 4.8712 6.27647Zm1.56188-1.59957c-2.56282-.02364-4.63308-2.1085-4.63308-4.6769 0-.52155.08537-1.02315.24289-1.49161C5.45285 1.37161 5.69482.920139 6 .519416c.136-.17858.28456-.347081.44436-.5041874C6.29764.00448813 6.14946-.00097656 6-.00097656c-.70723 0-1.38587.12236056-2.01593.34706556C1.66201 1.17424 0 3.39254 0 5.99902 0 9.31273 2.68629 11.999 6 11.999c1.8908 0 3.57732-.8746 4.6771-2.24131.5172-.64276.9046-1.39436 1.1225-2.21503-.6256.31047-1.3306.48501-2.07641.48501-.01469 0-.02936-.00007-.04402-.0002Z" clip-rule="evenodd"/>
</svg>