<svg width="12" height="12" viewBox="0 0 12 12" fill="none" xmlns="http://www.w3.org/2000/svg">
<path d="M3.91406 0.421875C4.03125 0.164062 4.28906 0 4.57031 0H7.40625C7.6875 0 7.94531 0.164062 8.0625 0.421875L8.25 0.75H10.5C10.8984 0.75 11.25 1.10156 11.25 1.5C11.25 1.92188 10.8984 2.25 10.5 2.25H1.5C1.07812 2.25 0.75 1.92188 0.75 1.5C0.75 1.10156 1.07812 0.75 1.5 0.75H3.75L3.91406 0.421875ZM1.47656 3H10.5V10.5C10.5 11.3438 9.82031 12 9 12H2.97656C2.15625 12 1.47656 11.3438 1.47656 10.5V3ZM3.35156 4.875V10.125C3.35156 10.3359 3.53906 10.5 3.72656 10.5C3.9375 10.5 4.10156 10.3359 4.10156 10.125V4.875C4.10156 4.6875 3.9375 4.5 3.72656 4.5C3.53906 4.5 3.35156 4.6875 3.35156 4.875ZM5.60156 4.875V10.125C5.60156 10.3359 5.78906 10.5 5.97656 10.5C6.1875 10.5 6.375 10.3359 6.375 10.125V4.875C6.375 4.6875 6.1875 4.5 5.97656 4.5C5.78906 4.5 5.60156 4.6875 5.60156 4.875ZM7.875 4.875V10.125C7.875 10.3359 8.03906 10.5 8.25 10.5C8.4375 10.5 8.625 10.3359 8.625 10.125V4.875C8.625 4.6875 8.4375 4.5 8.25 4.5C8.03906 4.5 7.875 4.6875 7.875 4.875Z" fill="#BBC0C5"/>
</svg>
