<svg xmlns="http://www.w3.org/2000/svg" fill="none" viewBox="0 0 23 18">
  <path fill="currentColor" d="M19.4609 1.49591C18.0042.798593 16.427.292475 14.7841.00005173c-.0144-.00047305-.0287.00230282-.042.00813248-.0132.00582969-.0251.01457159-.0347.02560889-.1971.3711529-.4271.8547759-.5805 1.2259269-1.7425-.269927-3.5147-.269927-5.25724 0C8.71632.877322 8.48632.404946 8.27822.0337931 8.26726.011299 8.23441.00005173 8.20155.00005173 6.55865.292475 4.99241.798593 3.52475 1.49591c-.01095 0-.0219.01125-.03286.02249C.512765 6.09596-.308686 10.5498.0965633 14.9586c0 .0225.0109527.045.0328577.0563C2.1009 16.4995 3.99572 17.3992 5.86863 17.9953c.03285.0113.06571 0 .07667-.0225.4381-.6185.8324-1.2709 1.17193-1.9569.02191-.045 0-.09-.04381-.1013-.6243-.2474-1.21575-.5398-1.79624-.8772-.04381-.0225-.04381-.09-.01095-.1238.12048-.0899.24096-.1912.36144-.2811.0219-.0225.05476-.0225.07667-.0113 3.76772 1.7658 7.83116 1.7658 11.55506 0 .0219-.0112.0548-.0112.0767.0113.1205.1012.2409.1912.3614.2924.0438.0337.0438.1012-.0109.1237-.5696.3487-1.172.6298-1.7963.8773-.0438.0112-.0547.0675-.0438.1012.3505.6861.7448 1.3384 1.172 1.957.0328.0112.0657.0225.0985.0112 1.8839-.5961 3.7787-1.4958 5.7502-2.9804.0219-.0113.0328-.0338.0328-.0563.482-5.09488-.7995-9.51497-3.3953-13.4402-.0109-.01124-.0219-.02249-.0438-.02249ZM7.68677 12.2706c-1.12812 0-2.07006-1.0685-2.07006-2.38439 0-1.3159.92003-2.38437 2.07006-2.38437 1.16099 0 2.08101 1.07971 2.07006 2.38437 0 1.31589-.92003 2.38439-2.07006 2.38439Zm7.63403 0c-1.1281 0-2.0701-1.0685-2.0701-2.38439 0-1.3159.9201-2.38437 2.0701-2.38437 1.161 0 2.081 1.07971 2.07 2.38437 0 1.31589-.909 2.38439-2.07 2.38439Z"/>
</svg>
