<svg width="14" height="11" viewBox="0 0 14 11" fill="none" xmlns="http://www.w3.org/2000/svg">
<path d="M12.8594 9.27344C13.2344 9.92969 12.7656 10.75 11.9922 10.75H1.98438C1.21094 10.75 0.742188 9.92969 1.11719 9.27344L6.13281 0.742188C6.50781 0.0859375 7.46875 0.0859375 7.86719 0.742188L12.8594 9.27344ZM6.4375 3.4375V6.4375C6.4375 6.76562 6.71875 7 7 7C7.30469 7 7.5625 6.76562 7.5625 6.4375V3.4375C7.5625 3.13281 7.30469 2.875 7 2.875C6.67188 2.875 6.4375 3.13281 6.4375 3.4375ZM7 9.25C7.39844 9.25 7.72656 8.92188 7.72656 8.52344C7.72656 8.125 7.39844 7.79688 7 7.79688C6.57812 7.79688 6.25 8.125 6.25 8.52344C6.25 8.92188 6.57812 9.25 7 9.25Z" fill="#E06470"/>
</svg>
