<svg xmlns="http://www.w3.org/2000/svg" viewBox="0 0 77.42 79.97">
  <defs>
    <radialGradient id="b" cx="-7907" cy="-8515" r="80.8" gradientTransform="translate(7974 8524)" gradientUnits="userSpaceOnUse">
      <stop offset=".129" stop-color="#ffbd4f"/>
      <stop offset=".186" stop-color="#ffac31"/>
      <stop offset=".247" stop-color="#ff9d17"/>
      <stop offset=".283" stop-color="#ff980e"/>
      <stop offset=".403" stop-color="#ff563b"/>
      <stop offset=".467" stop-color="#ff3750"/>
      <stop offset=".71" stop-color="#f5156c"/>
      <stop offset=".782" stop-color="#eb0878"/>
      <stop offset=".86" stop-color="#e50080"/>
    </radialGradient>
    <radialGradient id="c" cx="-7937" cy="-8482" r="80.8" gradientTransform="translate(7974 8524)" gradientUnits="userSpaceOnUse">
      <stop offset=".3" stop-color="#960e18"/>
      <stop offset=".351" stop-color="#b11927" stop-opacity=".74"/>
      <stop offset=".435" stop-color="#db293d" stop-opacity=".343"/>
      <stop offset=".497" stop-color="#f5334b" stop-opacity=".094"/>
      <stop offset=".53" stop-color="#ff3750" stop-opacity="0"/>
    </radialGradient>
    <radialGradient id="d" cx="-7927" cy="-8533" r="58.53" gradientTransform="translate(7974 8524)" gradientUnits="userSpaceOnUse">
      <stop offset=".132" stop-color="#fff44f"/>
      <stop offset=".252" stop-color="#ffdc3e"/>
      <stop offset=".506" stop-color="#ff9d12"/>
      <stop offset=".526" stop-color="#ff980e"/>
    </radialGradient>
    <radialGradient id="e" cx="-7946" cy="-8461" r="38.47" gradientTransform="translate(7974 8524)" gradientUnits="userSpaceOnUse">
      <stop offset=".353" stop-color="#3a8ee6"/>
      <stop offset=".472" stop-color="#5c79f0"/>
      <stop offset=".669" stop-color="#9059ff"/>
      <stop offset="1" stop-color="#c139e6"/>
    </radialGradient>
    <radialGradient id="f" cx="-7936" cy="-8492" r="20.4" gradientTransform="matrix(.972 -.235 .275 1.138 10090 7834)" gradientUnits="userSpaceOnUse">
      <stop offset=".206" stop-color="#9059ff" stop-opacity="0"/>
      <stop offset=".278" stop-color="#8c4ff3" stop-opacity=".064"/>
      <stop offset=".747" stop-color="#7716a8" stop-opacity=".45"/>
      <stop offset=".975" stop-color="#6e008b" stop-opacity=".6"/>
    </radialGradient>
    <radialGradient id="g" cx="-7938" cy="-8518" r="27.68" gradientTransform="translate(7974 8524)" gradientUnits="userSpaceOnUse">
      <stop offset="0" stop-color="#ffe226"/>
      <stop offset=".121" stop-color="#ffdb27"/>
      <stop offset=".295" stop-color="#ffc82a"/>
      <stop offset=".502" stop-color="#ffa930"/>
      <stop offset=".732" stop-color="#ff7e37"/>
      <stop offset=".792" stop-color="#ff7139"/>
    </radialGradient>
    <radialGradient id="h" cx="-7916" cy="-8536" r="118.1" gradientTransform="translate(7974 8524)" gradientUnits="userSpaceOnUse">
      <stop offset=".113" stop-color="#fff44f"/>
      <stop offset=".456" stop-color="#ff980e"/>
      <stop offset=".622" stop-color="#ff5634"/>
      <stop offset=".716" stop-color="#ff3647"/>
      <stop offset=".904" stop-color="#e31587"/>
    </radialGradient>
    <radialGradient id="i" cx="-7927" cy="-8523" r="86.5" gradientTransform="matrix(.105 .995 -.653 .069 -4685 8470)" gradientUnits="userSpaceOnUse">
      <stop offset="0" stop-color="#fff44f"/>
      <stop offset=".06" stop-color="#ffe847"/>
      <stop offset=".168" stop-color="#ffc830"/>
      <stop offset=".304" stop-color="#ff980e"/>
      <stop offset=".356" stop-color="#ff8b16"/>
      <stop offset=".455" stop-color="#ff672a"/>
      <stop offset=".57" stop-color="#ff3647"/>
      <stop offset=".737" stop-color="#e31587"/>
    </radialGradient>
    <radialGradient id="j" cx="-7938" cy="-8508" r="73.72" gradientTransform="translate(7974 8524)" gradientUnits="userSpaceOnUse">
      <stop offset=".137" stop-color="#fff44f"/>
      <stop offset=".48" stop-color="#ff980e"/>
      <stop offset=".592" stop-color="#ff5634"/>
      <stop offset=".655" stop-color="#ff3647"/>
      <stop offset=".904" stop-color="#e31587"/>
    </radialGradient>
    <radialGradient id="k" cx="-7919" cy="-8504" r="80.69" gradientTransform="translate(7974 8524)" gradientUnits="userSpaceOnUse">
      <stop offset=".094" stop-color="#fff44f"/>
      <stop offset=".231" stop-color="#ffe141"/>
      <stop offset=".509" stop-color="#ffaf1e"/>
      <stop offset=".626" stop-color="#ff980e"/>
    </radialGradient>
    <linearGradient id="a" x1="70.79" x2="6.447" y1="12.39" y2="74.47" gradientTransform="translate(-1.3 -.004086)" gradientUnits="userSpaceOnUse">
      <stop offset=".048" stop-color="#fff44f"/>
      <stop offset=".111" stop-color="#ffe847"/>
      <stop offset=".225" stop-color="#ffc830"/>
      <stop offset=".368" stop-color="#ff980e"/>
      <stop offset=".401" stop-color="#ff8b16"/>
      <stop offset=".462" stop-color="#ff672a"/>
      <stop offset=".534" stop-color="#ff3647"/>
      <stop offset=".705" stop-color="#e31587"/>
    </linearGradient>
    <linearGradient id="l" x1="70.01" x2="15.27" y1="12.06" y2="66.81" gradientTransform="translate(-1.3 -.004086)" gradientUnits="userSpaceOnUse">
      <stop offset=".167" stop-color="#fff44f" stop-opacity=".8"/>
      <stop offset=".266" stop-color="#fff44f" stop-opacity=".634"/>
      <stop offset=".489" stop-color="#fff44f" stop-opacity=".217"/>
      <stop offset=".6" stop-color="#fff44f" stop-opacity="0"/>
    </linearGradient>
  </defs>
  <path fill="url(#a)" d="M74.62 26.83c-1.684-4.052-5.1-8.427-7.775-9.81a40.27 40.27 0 0 1 3.925 11.76l.007.065c-4.382-10.92-11.81-15.33-17.88-24.92-.307-.485-.614-.971-.913-1.484-.171-.293-.308-.557-.427-.8a7.053 7.053 0 0 1-.578-1.535.1.1 0 0 0-.088-.1.138.138 0 0 0-.073 0c-.005 0-.013.009-.019.011s-.019.011-.028.015l.015-.026c-9.735 5.7-13.04 16.25-13.34 21.53a19.39 19.39 0 0 0-10.67 4.111 11.59 11.59 0 0 0-1-.758 17.97 17.97 0 0 1-.109-9.473 28.7 28.7 0 0 0-9.329 7.21h-.018c-1.536-1.947-1.428-8.367-1.34-9.708a6.928 6.928 0 0 0-1.294.687 28.22 28.22 0 0 0-3.788 3.245 33.84 33.84 0 0 0-3.623 4.347v.006-.007a32.73 32.73 0 0 0-5.2 11.74l-.052.256c-.073.341-.336 2.049-.381 2.42 0 .029-.006.056-.009.085a36.94 36.94 0 0 0-.629 5.343v.2a38.76 38.76 0 0 0 76.95 6.554c.065-.5.118-.995.176-1.5a39.86 39.86 0 0 0-2.514-19.47zM29.95 57.17c.181.087.351.181.537.264l.027.017q-.282-.135-.564-.281zm40.828-28.314v-.037l.007.041z" transform="translate(.6974849 .7199239) scale(.9819843)"/>
  <path fill="url(#b)" d="M74.62 26.83c-1.684-4.052-5.1-8.427-7.775-9.81a40.27 40.27 0 0 1 3.925 11.76v.037l.007.041a35.1 35.1 0 0 1-1.206 26.16c-4.442 9.531-15.19 19.3-32.02 18.82-18.18-.515-34.2-14.01-37.19-31.68-.545-2.787 0-4.2.274-6.465a28.88 28.88 0 0 0-.623 5.348v.2a38.76 38.76 0 0 0 76.95 6.554c.065-.5.118-.995.176-1.5a39.86 39.86 0 0 0-2.514-19.47z" transform="translate(.6974849 .7199239) scale(.9819843)"/>
  <path fill="url(#c)" d="M74.62 26.83c-1.684-4.052-5.1-8.427-7.775-9.81a40.27 40.27 0 0 1 3.925 11.76v.037l.007.041a35.1 35.1 0 0 1-1.206 26.16c-4.442 9.531-15.19 19.3-32.02 18.82-18.18-.515-34.2-14.01-37.19-31.68-.545-2.787 0-4.2.274-6.465a28.88 28.88 0 0 0-.623 5.348v.2a38.76 38.76 0 0 0 76.95 6.554c.065-.5.118-.995.176-1.5a39.86 39.86 0 0 0-2.514-19.47z" transform="translate(.6974849 .7199239) scale(.9819843)"/>
  <path fill="url(#d)" d="M55.78 31.38c.084.059.162.118.241.177a21.1 21.1 0 0 0-3.6-4.695C40.371 14.812 49.264.742 50.763.022L50.778 0c-9.735 5.7-13.04 16.25-13.34 21.53.452-.031.9-.069 1.362-.069a19.56 19.56 0 0 1 16.98 9.917z" transform="translate(.6974849 .7199239) scale(.9819843)"/>
  <path fill="url(#e)" d="M38.82 33.79c-.064.964-3.47 4.289-4.661 4.289-11.02 0-12.81 6.667-12.81 6.667.488 5.614 4.4 10.24 9.129 12.68.216.112.435.213.654.312q.569.252 1.138.466a17.24 17.24 0 0 0 5.043.973c19.32.906 23.06-23.1 9.119-30.07a13.38 13.38 0 0 1 9.345 2.269 19.56 19.56 0 0 0-16.98-9.917c-.46 0-.91.038-1.362.069a19.39 19.39 0 0 0-10.67 4.111c.591.5 1.258 1.168 2.663 2.553 2.63 2.591 9.375 5.275 9.39 5.59z" transform="translate(.6974849 .7199239) scale(.9819843)"/>
  <path fill="url(#f)" d="M38.82 33.79c-.064.964-3.47 4.289-4.661 4.289-11.02 0-12.81 6.667-12.81 6.667.488 5.614 4.4 10.24 9.129 12.68.216.112.435.213.654.312q.569.252 1.138.466a17.24 17.24 0 0 0 5.043.973c19.32.906 23.06-23.1 9.119-30.07a13.38 13.38 0 0 1 9.345 2.269 19.56 19.56 0 0 0-16.98-9.917c-.46 0-.91.038-1.362.069a19.39 19.39 0 0 0-10.67 4.111c.591.5 1.258 1.168 2.663 2.553 2.63 2.591 9.375 5.275 9.39 5.59z" transform="translate(.6974849 .7199239) scale(.9819843)"/>
  <path fill="url(#g)" d="M24.96 24.36c.314.2.573.374.8.531a17.97 17.97 0 0 1-.109-9.473 28.7 28.7 0 0 0-9.329 7.21c.189-.005 5.811-.106 8.638 1.732z" transform="translate(.6974849 .7199239) scale(.9819843)"/>
  <path fill="url(#h)" d="M.354 42.16c2.991 17.67 19.01 31.17 37.19 31.68 16.83.476 27.58-9.294 32.02-18.82a35.1 35.1 0 0 0 1.206-26.16v-.037c0-.029-.006-.046 0-.037l.007.065c1.375 8.977-3.191 17.67-10.33 23.56l-.022.05c-13.91 11.33-27.22 6.834-29.91 5q-.282-.135-.564-.281c-8.109-3.876-11.46-11.26-10.74-17.6a9.953 9.953 0 0 1-9.181-5.775 14.62 14.62 0 0 1 14.25-.572 19.3 19.3 0 0 0 14.55.572c-.015-.315-6.76-3-9.39-5.59-1.405-1.385-2.072-2.052-2.663-2.553a11.59 11.59 0 0 0-1-.758c-.23-.157-.489-.327-.8-.531-2.827-1.838-8.449-1.737-8.635-1.732h-.018c-1.536-1.947-1.428-8.367-1.34-9.708a6.928 6.928 0 0 0-1.294.687 28.22 28.22 0 0 0-3.788 3.245 33.84 33.84 0 0 0-3.638 4.337v.006-.007a32.73 32.73 0 0 0-5.2 11.74c-.019.079-1.396 6.099-.717 9.221z" transform="translate(.6974849 .7199239) scale(.9819843)"/>
  <path fill="url(#i)" d="M52.42 26.86a21.1 21.1 0 0 1 3.6 4.7c.213.161.412.321.581.476 8.787 8.1 4.183 19.55 3.84 20.36 7.138-5.881 11.7-14.58 10.33-23.56-4.384-10.93-11.82-15.34-17.88-24.93-.307-.485-.614-.971-.913-1.484-.171-.293-.308-.557-.427-.8a7.053 7.053 0 0 1-.578-1.535.1.1 0 0 0-.088-.1.138.138 0 0 0-.073 0c-.005 0-.013.009-.019.011s-.019.011-.028.015c-1.499.711-10.39 14.79 1.66 26.83z" transform="translate(.6974849 .7199239) scale(.9819843)"/>
  <path fill="url(#j)" d="M56.6 32.04c-.169-.155-.368-.315-.581-.476-.079-.059-.157-.118-.241-.177a13.38 13.38 0 0 0-9.345-2.269c13.94 6.97 10.2 30.97-9.119 30.07a17.24 17.24 0 0 1-5.043-.973q-.569-.213-1.138-.466c-.219-.1-.438-.2-.654-.312l.027.017c2.694 1.839 16 6.332 29.91-5l.022-.05c.347-.81 4.951-12.26-3.84-20.36z" transform="translate(.6974849 .7199239) scale(.9819843)"/>
  <path fill="url(#k)" d="M21.35 44.74s1.789-6.667 12.81-6.667c1.191 0 4.6-3.325 4.661-4.289a19.3 19.3 0 0 1-14.55-.572 14.62 14.62 0 0 0-14.25.572 9.953 9.953 0 0 0 9.181 5.775c-.718 6.337 2.632 13.72 10.74 17.6.181.087.351.181.537.264-4.733-2.445-8.641-7.069-9.129-12.68z" transform="translate(.6974849 .7199239) scale(.9819843)"/>
  <path fill="url(#l)" d="M74.62 26.83c-1.684-4.052-5.1-8.427-7.775-9.81a40.27 40.27 0 0 1 3.925 11.76l.007.065c-4.382-10.92-11.81-15.33-17.88-24.92-.307-.485-.614-.971-.913-1.484-.171-.293-.308-.557-.427-.8a7.053 7.053 0 0 1-.578-1.535.1.1 0 0 0-.088-.1.138.138 0 0 0-.073 0c-.005 0-.013.009-.019.011s-.019.011-.028.015l.015-.026c-9.735 5.7-13.04 16.25-13.34 21.53.452-.031.9-.069 1.362-.069a19.56 19.56 0 0 1 16.98 9.917 13.38 13.38 0 0 0-9.345-2.269c13.94 6.97 10.2 30.97-9.119 30.07a17.24 17.24 0 0 1-5.043-.973q-.569-.213-1.138-.466c-.219-.1-.438-.2-.654-.312l.027.017q-.282-.135-.564-.281c.181.087.351.181.537.264-4.733-2.446-8.641-7.07-9.129-12.68 0 0 1.789-6.667 12.81-6.667 1.191 0 4.6-3.325 4.661-4.289-.015-.315-6.76-3-9.39-5.59-1.405-1.385-2.072-2.052-2.663-2.553a11.59 11.59 0 0 0-1-.758 17.97 17.97 0 0 1-.109-9.473 28.7 28.7 0 0 0-9.329 7.21h-.018c-1.536-1.947-1.428-8.367-1.34-9.708a6.928 6.928 0 0 0-1.294.687A28.22 28.22 0 0 0 9.9 16.858a33.84 33.84 0 0 0-3.623 4.347v.006-.007a32.73 32.73 0 0 0-5.2 11.74l-.052.256c-.073.341-.4 2.073-.447 2.445a45.09 45.09 0 0 0-.572 5.403v.2a38.76 38.76 0 0 0 76.95 6.554c.065-.5.118-.995.176-1.5a39.86 39.86 0 0 0-2.514-19.47zm-3.845 1.991.007.041z" transform="translate(.6974849 .7199239) scale(.9819843)"/>
</svg>
