<svg xmlns="http://www.w3.org/2000/svg" fill="none" viewBox="0 0 19 19">
  <path fill="currentColor" fill-rule="evenodd" d="M9.5 0C4.25125 0 0 4.25125 0 9.5c0 4.2038 2.71937 7.7544 6.49562 9.0131.475.0832.65313-.2018.65313-.4512 0-.2256-.01187-.9738-.01187-1.7694-2.38688.4394-3.00438-.5819-3.19438-1.1162-.10688-.2732-.57-1.1163-.97375-1.3419-.3325-.1781-.8075-.6175-.01187-.6294.74812-.0119 1.2825.6888 1.46062.9738.855 1.4368 2.22063 1.0331 2.76688.7837.08312-.6175.33249-1.0331.60562-1.2706-2.11375-.2375-4.3225-1.0569-4.3225-4.69065 0-1.03312.36813-1.88812.97375-2.55312-.095-.2375-.4275-1.21125.095-2.5175 0 0 .79563-.24938 2.6125.97375.76-.21375 1.5675-.32063 2.375-.32063.80755 0 1.61505.10688 2.37505.32063 1.8168-1.235 2.6125-.97375 2.6125-.97375.5225 1.30625.19 2.28.095 2.5175.6056.665.9737 1.50812.9737 2.55312 0 3.64565-2.2206 4.45315-4.3344 4.69065.3444.2969.6413.8669.6413 1.7575 0 1.2706-.0119 2.2919-.0119 2.6125 0 .2494.1781.5462.6531.4512C16.2806 17.2544 19 13.6919 19 9.5 19 4.25125 14.7488 0 9.5 0Z" clip-rule="evenodd"/>
</svg>
