<svg xmlns="http://www.w3.org/2000/svg" fill="none" viewBox="0 0 10 10">
  <path fill="currentColor" fill-rule="evenodd" d="M5 1.2C2.90132 1.2 1.2 2.90132 1.2 5S2.90132 8.8 5 8.8 8.8 7.09868 8.8 5 7.09868 1.2 5 1.2ZM0 5c0-2.76142 2.23858-5 5-5s5 2.23858 5 5-2.23858 5-5 5-5-2.23858-5-5Z" clip-rule="evenodd"/>
  <path fill="currentColor" fill-rule="evenodd" d="M5 .0418721 7.6 3.27887V4.456H9v1.2H7.6v.95232L5 9.98312l-2.6-3.3748V5.656H1v-1.2h1.4V3.27887L5 .0418721ZM3.6 5.656v.54368L5 8.01688l1.4-1.8172V5.656H3.6Zm2.8-1.2H3.6v-.75487l1.4-1.743 1.4 1.743V4.456Z" clip-rule="evenodd"/>
</svg>