<svg xmlns="http://www.w3.org/2000/svg" fill="none" viewBox="0 0 14 14" width="14" height="14">
  <path fill="currentColor" fill-rule="evenodd" d="M7 2.1C4.2938 2.1 2.1 4.2938 2.1 7c0 2.70619 2.1938 4.9 4.9 4.9 2.70619 0 4.9-2.19381 4.9-4.9 0-2.7062-2.19381-4.9-4.9-4.9ZM0 7c0-3.86599 3.13401-7 7-7 3.866 0 7 3.13401 7 7 0 3.866-3.134 7-7 7-3.86599 0-7-3.134-7-7Z" clip-rule="evenodd"/>
  <path fill="currentColor" fill-rule="evenodd" d="M5.95312 10.7817V6.52783h2.1v4.25387h-2.1Zm0-5.53248V3.42334h2.1v1.82588h-2.1Z" clip-rule="evenodd"/>
</svg>