<svg xmlns="http://www.w3.org/2000/svg" fill="none" viewBox="0 0 22 22">
  <path fill="currentColor" d="M6.38 0h9.24C19.14 0 22 2.86 22 6.38v9.24c0 1.6921-.6722 3.3149-1.8687 4.5113C18.9349 21.3278 17.3121 22 15.62 22H6.38C2.86 22 0 19.14 0 15.62V6.38c0-1.69208.672177-3.31486 1.86866-4.51134C3.06514.672177 4.68792 0 6.38 0Zm-.22 2.2c-1.05026 0-2.0575.41721-2.80014 1.15986C2.61721 4.1025 2.2 5.10974 2.2 6.16v9.68c0 2.189 1.771 3.96 3.96 3.96h9.68c1.0503 0 2.0575-.4172 2.8001-1.1599.7427-.7426 1.1599-1.7498 1.1599-2.8001V6.16c0-2.189-1.771-3.96-3.96-3.96H6.16Zm10.615 1.65c.3647 0 .7144.14487.9723.40273.2578.25786.4027.6076.4027.97227 0 .36467-.1449.71441-.4027.97227-.2579.25786-.6076.40273-.9723.40273s-.7144-.14487-.9723-.40273c-.2578-.25786-.4027-.6076-.4027-.97227 0-.36467.1449-.71441.4027-.97227.2579-.25786.6076-.40273.9723-.40273ZM11 5.5c1.4587 0 2.8576.57946 3.8891 1.61091C15.9205 8.14236 16.5 9.54131 16.5 11c0 1.4587-.5795 2.8576-1.6109 3.8891C13.8576 15.9205 12.4587 16.5 11 16.5c-1.45869 0-2.85764-.5795-3.88909-1.6109C6.07946 13.8576 5.5 12.4587 5.5 11c0-1.45869.57946-2.85764 1.61091-3.88909S9.54131 5.5 11 5.5Zm0 2.2c-.8752 0-1.71458.34768-2.33345.96655S7.7 10.1248 7.7 11s.34768 1.7146.96655 2.3335C9.28542 13.9523 10.1248 14.3 11 14.3s1.7146-.3477 2.3335-.9665c.6188-.6189.9665-1.4583.9665-2.3335s-.3477-1.71458-.9665-2.33345C12.7146 8.04768 11.8752 7.7 11 7.7Z"/>
</svg>
