<svg xmlns="http://www.w3.org/2000/svg" fill="none" viewBox="0 0 10 10">
  <path fill="currentColor" fill-rule="evenodd" d="M5.00366 6.68359c.92969 0 1.68335-.75366 1.68335-1.68335 0-.92968-.75366-1.68335-1.68335-1.68335-.92969 0-1.68335.75367-1.68335 1.68335 0 .92969.75366 1.68335 1.68335 1.68335Zm0 1c1.48198 0 2.68335-1.20137 2.68335-2.68335 0-1.48197-1.20137-2.68335-2.68335-2.68335-1.48197 0-2.68335 1.20138-2.68335 2.68335 0 1.48198 1.20138 2.68335 2.68335 2.68335ZM1.36932 5.51367H0v-1h1.36932v1Zm8.63278 0H8.63281v-1h1.36929v1ZM4.50781 1.36932V-4e-8l1 4e-8v1.36932h-1ZM4.5 9.99994V8.63062h1v1.36932h-1ZM2.07365 2.8011l-.96826-.96826.70711-.70711.96826.96826-.70711.70711ZM8.1674 8.89753l-.96826-.96826.70711-.7071.96826.96826-.70711.7071Zm-.96776-6.80728.96825-.96826.70711.70711-.96826.96826-.7071-.70711ZM1.10589 8.18742l.96825-.96826.70711.70711-.96826.96826-.7071-.70711Z" clip-rule="evenodd"/>
</svg>