<svg xmlns="http://www.w3.org/2000/svg" fill="none" viewBox="0 0 18 18">
  <path fill="currentColor" d="M16 0c.5304 0 1.0391.210714 1.4142.585786C17.7893.960859 18 1.46957 18 2v14c0 .5304-.2107 1.0391-.5858 1.4142S16.5304 18 16 18H2c-.53043 0-1.039141-.2107-1.414214-.5858C.210714 17.0391 0 16.5304 0 16V2C0 1.46957.210714.960859.585786.585786.960859.210714 1.46957 0 2 0h14Zm-.5 15.5v-5.3c0-.86461-.3435-1.6938-.9548-2.30517C13.9338 7.28346 13.1046 6.94 12.24 6.94c-.85 0-1.84.52-2.32 1.3V7.13H7.13v8.37h2.79v-4.93c0-.77.62-1.4 1.39-1.4.3713 0 .7274.1475.9899.41005.2626.26255.4101.61865.4101.98995v4.93h2.79ZM3.88 5.56c.44556 0 .87288-.177 1.18794-.49206S5.56 4.32556 5.56 3.88c0-.93-.75-1.69-1.68-1.69-.44822 0-.87807.17805-1.19501.49499C2.36805 3.00193 2.19 3.43178 2.19 3.88c0 .93.76 1.68 1.69 1.68Zm1.39 9.94V7.13H2.5v8.37h2.77Z"/>
</svg>