<svg xmlns="http://www.w3.org/2000/svg" fill="none" viewBox="0 0 10 10">
  <path fill="currentColor" d="M6.38066 3.99209c0 .76311-.61863 1.38173-1.38174 1.38173S3.61719 4.7552 3.61719 3.99209s.61862-1.38174 1.38173-1.38174 1.38174.61863 1.38174 1.38174Z"/>
  <path fill="currentColor" fill-rule="evenodd" d="M6.10947 7.37038C7.06793 6.30922 7.8 5.09904 7.8 4c0-1.5464-1.2536-2.8-2.8-2.8-1.5464 0-2.8 1.2536-2.8 2.8 0 .448.15978.98171.4817 1.5799.31791.59074.75665 1.17537 1.2205 1.70428.39688.45255.79651.84665 1.12382 1.14917.31808-.27852.70209-.64074 1.08345-1.06297ZM5 9.99695S9 7.13665 9 4c0-2.20914-1.79086-4-4-4S1 1.79086 1 4c0 2.87181 4 5.99695 4 5.99695Z" clip-rule="evenodd"/>
</svg>