<svg xmlns="http://www.w3.org/2000/svg" fill="none" viewBox="0 0 116 27">
  <path fill="#fff" stroke="#fff" stroke-miterlimit="10" stroke-width=".2" d="M36.0128 5.60844c-.33.12-.97.31-1.73.31-.85 0-1.56-.22-2.11-.75-.49-.47-.79-1.22-.79-2.1 0-1.68 1.16-2.920002 3.06-2.920002.65 0 1.16.14 1.41.26l-.18.59c-.3-.13-.68-.24-1.25-.24-1.37 0-2.27.850002-2.27 2.270002s.86 2.28 2.18 2.28c.48 0 .8-.07.97-.15v-1.68h-1.15v-.59h1.86v2.72Zm4.1963-2.3975h-2.2v2.04h2.45v.61h-3.17V.210938h3.05v.61h-2.32V2.60094h2.2v.6l-.01.01ZM42.7903.830937h-1.72V.210938h4.18v.619999h-1.73V5.86094h-.74V.830937h.01Zm5.9319-.619999V5.86094h-.73V.210938h.73Zm2.5134.619999h-1.72V.210938h4.18v.619999h-1.73V5.86094h-.74V.830937h.01Zm10.026 2.146253c0 1.94-1.18 2.97-2.62 2.97-1.44 0-2.54-1.16-2.54-2.86 0-1.79 1.11-2.970002 2.62-2.970002s2.54 1.180002 2.54 2.860002Zm-4.38.09c0 1.21.65 2.29 1.8 2.29s1.81-1.06 1.81-2.35c0-1.12-.59-2.300003-1.8-2.300003s-1.81 1.110003-1.81 2.350003v.01Zm5.5012 2.79375V.210938h.8l1.81 2.860002c.42.66.75 1.26 1.01 1.83h.02c-.07-.76-.08-1.45-.08-2.33V.210938h.69V5.86094h-.74l-1.79-2.87c-.39-.63-.77-1.27-1.06-1.88h-.03c.04.72.06 1.4.06 2.34v2.41h-.69Z"/>
  <path fill="#fff" d="M58.1681 14.6084c-2.35 0-4.27 1.79-4.27 4.25s1.92 4.25 4.27 4.25c2.35 0 4.27-1.8 4.27-4.25s-1.92-4.25-4.27-4.25Zm0 6.83c-1.29 0-2.4-1.06-2.4-2.58s1.11-2.58 2.4-2.58c1.29 0 2.4 1.05 2.4 2.58s-1.11 2.58-2.4 2.58Zm-9.31-6.83c-2.35 0-4.27 1.79-4.27 4.25s1.92 4.25 4.27 4.25c2.35 0 4.27-1.8 4.27-4.25s-1.92-4.25-4.27-4.25Zm0 6.83c-1.29 0-2.4-1.06-2.4-2.58s1.11-2.58 2.4-2.58c1.29 0 2.4 1.05 2.4 2.58s-1.11 2.58-2.4 2.58Zm-11.08-5.53v1.8h4.32c-.13 1.01-.47 1.76-.98 2.27-.63.63-1.61 1.32-3.33 1.32-2.66 0-4.74-2.14-4.74-4.8 0-2.66 2.08-4.8 4.74-4.8 1.43 0 2.48.56 3.25 1.29l1.27-1.27c-1.08-1.03-2.51-1.81996-4.53-1.81996-3.64 0-6.7 2.95996-6.7 6.60996s3.06 6.61 6.7 6.61c1.97 0 3.45-.64 4.61-1.85 1.19-1.19 1.56-2.87 1.56-4.22 0-.42-.03-.81-.1-1.13h-6.07v-.01Zm45.31 1.4c-.35-.95-1.43-2.71-3.64-2.71s-4.01 1.72-4.01 4.25c0 2.38 1.8 4.25 4.22 4.25 1.95 0 3.08-1.19 3.54-1.88l-1.45-.97c-.48.71-1.14 1.18-2.09 1.18s-1.63-.43-2.06-1.29l5.69-2.35-.19-.48h-.01Zm-5.8 1.42c-.05-1.64 1.27-2.48 2.22-2.48.74 0 1.37.37 1.58.9l-3.8 1.58Zm-4.62 4.12h1.87v-12.5h-1.87v12.5Zm-3.06-7.3h-.06c-.42-.5-1.22-.95-2.24-.95-2.13 0-4.08 1.87-4.08 4.27 0 2.4 1.95 4.24 4.08 4.24 1.01 0 1.82-.45 2.24-.97h.06v.61c0 1.63-.87 2.5-2.27 2.5-1.14 0-1.85-.82-2.14-1.51l-1.63.68c.47 1.13 1.71 2.51 3.77 2.51 2.19 0 4.04-1.29 4.04-4.43v-7.64h-1.77v.69Zm-2.14 5.88c-1.29 0-2.37-1.08-2.37-2.56s1.08-2.59 2.37-2.59 2.27 1.1 2.27 2.59c0 1.49-1 2.56-2.27 2.56Zm24.38-11.08h-4.47v12.5h1.87v-4.74h2.61c2.07 0 4.1-1.5 4.1-3.88s-2.03-3.88-4.1-3.88h-.01Zm.05 6.03h-2.65v-4.29h2.65c1.4 0 2.19 1.16 2.19 2.14 0 .98-.79 2.14-2.19 2.14v.01Zm11.5299-1.8c-1.35 0-2.75.6-3.33 1.91l1.66.69c.35-.69 1.01-.92 1.7-.92.96 0 1.95.58 1.96 1.61v.13c-.34-.19-1.06-.48-1.95-.48-1.79 0-3.5999.98-3.5999 2.81 0 1.67 1.4599 2.75 3.0999 2.75 1.25 0 1.95-.56 2.38-1.22h.06v.96h1.8v-4.79c0-2.22-1.66-3.46-3.8-3.46l.02.01Zm-.23 6.85c-.61 0-1.46-.31-1.46-1.06 0-.96 1.06-1.33 1.98-1.33.82 0 1.21.18 1.7.42-.14 1.16-1.14 1.98-2.22 1.98v-.01Zm10.58-6.58-2.14 5.42h-.06l-2.22-5.42h-2.01l3.33 7.58-1.9 4.21h1.95l5.13-11.79h-2.08Zm-16.8099 8h1.87v-12.5h-1.87v12.5Z"/>
  <path fill="#EA4335" d="m10.7516 12.2756-10.650038 11.3c.330001 1.23 1.449998 2.13 2.779998 2.13.53 0 1.03-.14 1.46-.4l.03-.02 11.98004-6.91-5.61-6.11.01.01Z"/>
  <path fill="#FBBC04" d="M21.5178 10.3616h-.01l-5.17-3.01004-5.83 5.19004 5.85 5.85 5.15-2.97c.9-.49 1.51-1.44 1.51-2.53 0-1.09-.6-2.04-1.5-2.52v-.01Z"/>
  <path fill="#4285F4" d="M.0999994 2.14062C.0399994 2.38062 0 2.62063 0 2.88063V22.8506c0 .26.0299994.5.0999994.74L11.11 12.5806.0999994 2.14062Z"/>
  <path fill="#34A853" d="m10.8316 12.86 5.51-5.51L4.37156.41c-.43-.26-.94-.41-1.49-.41-1.33 0-2.449997.910001-2.779998 2.13L10.8316 12.85v.01Z"/>
</svg>