<svg xmlns="http://www.w3.org/2000/svg" fill="none" viewBox="0 0 18 20">
  <path fill="currentColor" fill-rule="evenodd" d="M9.17781 9.82268.164921.578125C.0614054.792695 0 1.05595 0 1.3751v16.8988c0 .3227.0631597.5914.170184.806L9.17781 9.82268ZM.191406.525458C.194847.516367.200008.509091.205168.5.200008.509091.196567.518185.191406.525458ZM9.70022 9.29143l2.77558-2.85252L1.89268.259649C1.59266.0829436 1.31018 0 1.05753 0 .929454 0 .811904.0234378.703125.0649094L9.70022 9.29143Zm6.68598-.56824-3.244-1.89507-2.9195 3.00038 2.9195 2.9932 3.244-1.8951c1.0387-.604 1.0387-1.59756 0-2.20341ZM9.70827 10.3672.730469 19.5973c.321071.1118.722861.0577 1.163241-.1983l10.59019-6.1865-2.77563-2.8453ZM.183594 19.1094c.042108.0793.089481.1514.14387.2127-.054389-.0649-.105271-.1334-.14387-.2127Z" clip-rule="evenodd"/>
</svg>