<svg width="21" height="24" viewBox="0 0 21 24" fill="none" xmlns="http://www.w3.org/2000/svg">
  <path fill-rule="evenodd" clip-rule="evenodd" d="M11.2081 11.9927L0.201405 0.703125C0.0749894 0.965162 0 1.28666 0 1.67641V22.3135C0 22.7076 0.0771318 23.0357 0.207832 23.2978L11.2081 11.9927Z" fill="currentColor"/>
  <path fill-rule="evenodd" clip-rule="evenodd" d="M0.234375 0.640465C0.238577 0.629363 0.244879 0.620477 0.251182 0.609375C0.244879 0.620477 0.240677 0.631583 0.234375 0.640465Z" fill="currentColor"/>
  <path fill-rule="evenodd" clip-rule="evenodd" d="M11.8468 11.3469L15.2364 7.86331L2.31208 0.317087C1.94569 0.101292 1.60072 0 1.29218 0C1.13577 0 0.992218 0.0286227 0.859375 0.0792685L11.8468 11.3469Z" fill="currentColor"/>
  <path fill-rule="evenodd" clip-rule="evenodd" d="M20.0114 10.6502L16.0497 8.33594L12.4844 12L16.0497 15.6554L20.0114 13.3411C21.2799 12.6034 21.2799 11.3901 20.0114 10.6502Z" fill="currentColor"/>
  <path fill-rule="evenodd" clip-rule="evenodd" d="M11.8564 12.6641L0.892578 23.9361C1.28468 24.0726 1.77534 24.0065 2.31314 23.6938L15.2461 16.1388L11.8564 12.6641Z" fill="currentColor"/>
  <path fill-rule="evenodd" clip-rule="evenodd" d="M0.224609 23.3359C0.276033 23.4328 0.333885 23.5209 0.400307 23.5958C0.333885 23.5165 0.271747 23.4328 0.224609 23.3359Z" fill="currentColor"/>
</svg>
