<svg width="16" height="16" viewBox="0 0 16 16" fill="none" xmlns="http://www.w3.org/2000/svg">
<path d="M8 14C7.48571 14 7.14286 13.6571 7.14286 13.1429V8.85714H2.85714C2.34286 8.85714 2 8.51428 2 8C2 7.48571 2.34286 7.14286 2.85714 7.14286H7.14286V2.85714C7.14286 2.34286 7.48571 2 8 2C8.51428 2 8.85714 2.34286 8.85714 2.85714V7.14286H13.1429C13.6571 7.14286 14 7.48571 14 8C14 8.51428 13.6571 8.85714 13.1429 8.85714H8.85714V13.1429C8.85714 13.6571 8.51428 14 8 14Z" fill="currentColor"/>
</svg>
