<svg xmlns="http://www.w3.org/2000/svg" fill="none" viewBox="0 0 25 25">
  <path fill="currentColor" d="M10.7188 13.524c0-.6982-.5758-1.274-1.27405-1.274-.69825 0-1.274.5758-1.274 1.274 0 .3379.13423.6619.37315.9009.23892.2389.56296.3731.90085.3731s.66195-.1342.90085-.3731c.2389-.239.3732-.563.3732-.9009Zm4.0915 2.9033c-.5513.5512-1.7273.7472-2.5603.7472-.833 0-2.009-.196-2.56025-.7472-.0298-.0319-.06584-.0574-.10587-.0748-.04004-.0174-.08323-.0263-.12688-.0263-.04365 0-.08684.0089-.12688.0263-.04004.0174-.07607.0429-.10587.0748-.0319.0297-.05733.0658-.07472.1058-.01739.0401-.02636.0832-.02636.1269 0 .0437.00897.0868.02636.1269.01739.04.04282.0761.07472.1059.86975.8697 2.53575.9432 3.02575.9432.49 0 2.156-.0735 3.0258-.9432.0319-.0298.0573-.0659.0747-.1059.0174-.0401.0263-.0832.0263-.1269 0-.0437-.0089-.0868-.0263-.1269-.0174-.04-.0428-.0761-.0747-.1058-.1225-.1225-.3308-.1225-.4655 0Zm.245-4.1773c-.6983 0-1.274.5758-1.274 1.274 0 .6983.5757 1.274 1.274 1.274.6982 0 1.274-.5757 1.274-1.274 0-.6982-.5635-1.274-1.274-1.274Z"/>
  <path fill="currentColor" d="M12.25 0C5.488 0 0 5.488 0 12.25S5.488 24.5 12.25 24.5 24.5 19.012 24.5 12.25 19.012 0 12.25 0Zm7.105 13.8793c.0245.1715.0368.3552.0368.539 0 2.744-3.1973 4.9735-7.1418 4.9735s-7.14175-2.2295-7.14175-4.9735c0-.1838.01225-.3675.03675-.539-.62475-.2818-1.0535-.9065-1.0535-1.6293-.00182-.3513.10021-.6953.29326-.9887.19304-.2935.46851-.5234.79179-.6608.32328-.1375.67997-.1763 1.02525-.1117.34528.0647.66377.2299.91545.4749 1.23725-.8942 2.95225-1.4577 4.85105-1.51895l.9065-4.27525c.0122-.08575.0612-.15925.1347-.196.0735-.049.1592-.06125.245-.049l2.9645.637c.1005-.20387.2538-.37712.4439-.50179.19-.12467.41-.19621.6371-.20721.227-.011.4528.03894.6541.14465.2012.10572.3705.26334.4903.45653.1198.19319.1857.41491.1909.64217.0052.22725-.0505.45175-.1613.65022-.1108.19847-.2727.36368-.4689.47849-.1962.11481-.4195.17504-.6468.17444-.686 0-1.2373-.539-1.274-1.21275l-2.6583-.5635-.8085 3.822c1.8743.06125 3.5525.63695 4.7775 1.51895.1878-.1793.4125-.3154.6584-.3988.2459-.0834.507-.1121.7652-.084.2581.028.507.1122.7292.2465.2223.1343.4125.3155.5573.531.1449.2155.2409.46.2814.7165.0405.2565.0245.5187-.047.7684-.0714.2496-.1966.4806-.3666.6768-.1701.1962-.381.3529-.6179.4592Z"/>
</svg>
