<svg viewBox="0 0 10 10" fill="none" xmlns="http://www.w3.org/2000/svg">
<path d="M9.7 2.58524C9.24458 2.07618 8.7055 1.68081 8.0831 1.39944C7.42039 1.09985 6.72587 0.95 6 0.95C4.59119 0.95 3.39609 1.43945 2.41777 2.41777C1.43945 3.39609 0.95 4.59119 0.95 6C0.95 7.40881 1.43945 8.60391 2.41777 9.58223C3.39609 10.5606 4.59119 11.05 6 11.05C7.15686 11.05 8.18853 10.6974 9.09323 9.99257C9.99775 9.28789 10.5976 8.37745 10.8921 7.26277L10.9087 7.2H10.8438H9.53125H9.49568L9.48402 7.2336C9.227 7.97379 8.78026 8.56943 8.14294 9.02172C7.50568 9.47398 6.79186 9.7 6 9.7C4.97144 9.7 4.09879 9.34058 3.37911 8.62089C2.65942 7.90121 2.3 7.02856 2.3 6C2.3 4.97144 2.65942 4.09879 3.37911 3.37911C4.09879 2.65942 4.97144 2.3 6 2.3C6.66887 2.3 7.28795 2.46443 7.85814 2.79331C8.4034 3.10781 8.8381 3.53482 9.16275 4.075H6.625H6.575V4.125V5.375V5.425H6.625H11H11.05V5.375V1V0.95H11H9.75H9.7V1V2.58524Z" fill="currentColor" stroke="currentColor" stroke-width="0.1"/>
</svg>
