<svg width="14" height="14" viewBox="0 0 14 14" fill="none" xmlns="http://www.w3.org/2000/svg">
<path d="M13.5 0C13.75 0 14 0.25 14 0.5V5.5C14 5.78125 13.75 6 13.5 6H8.5C8.21875 6 8 5.78125 8 5.5C8 5.25 8.21875 5 8.5 5H12.0938C11.2812 2.90625 9.25 1.5 7 1.5C4.28125 1.5 2 3.4375 1.5625 6.09375C1.53125 6.34375 1.3125 6.5 1.0625 6.5C1.03125 6.5 1 6.5 1 6.5C0.71875 6.46875 0.53125 6.21875 0.5625 5.9375C1.09375 2.78125 3.8125 0.5 7 0.5C9.625 0.5 12 2.125 13 4.5625V0.5C13 0.25 13.2188 0 13.5 0ZM12.9688 7.53125C13.25 7.5625 13.4375 7.8125 13.4062 8.09375C12.875 11.25 10.1562 13.5 7 13.5C4.34375 13.5 1.96875 11.9062 1 9.46875V13.5C1 13.7812 0.75 14 0.5 14C0.21875 14 0 13.7812 0 13.5V8.5C0 8.25 0.21875 8 0.5 8H5.5C5.75 8 6 8.25 6 8.5C6 8.78125 5.75 9 5.5 9H1.84375C2.65625 11.125 4.6875 12.5 6.96875 12.5C9.6875 12.5 11.9688 10.5938 12.375 7.9375C12.4375 7.65625 12.6875 7.46875 12.9688 7.53125Z" fill="currentColor"/>
</svg>
