<svg xmlns="http://www.w3.org/2000/svg" fill="none" viewBox="0 0 10 10">
  <path fill="currentColor" fill-rule="evenodd" d="M9.15054 2.54182 4.57527 0 0 2.54182l.058233.43675.000266.00197.000637.00468.00226.01625.008577.05905c.007559.05077.018864.12388.034241.21614.030734.18441.07784.44598.143955.75916.131742.62404.341208 1.46377.651475 2.30996.307546.83876.728726 1.72484 1.301526 2.4122C2.77796 9.45013 3.56253 10 4.57527 10s1.79731-.54987 2.37411-1.24202c.5728-.68736.99398-1.57344 1.30152-2.4122.31027-.84619.51973-1.68592.65148-2.30996.06611-.31318.11322-.57475.14395-.75916.01538-.09226.02668-.16537.03424-.21614l.00858-.05905.00226-.01625.00063-.00468.00032-.00233.05818-.43639Zm-.69862.35099c.64044.0854.64046.0852.64044.0854l-.64044-.0854Zm-7.753295 0-.640392.08576c-.000025-.0002-.000048-.00036.640392-.08576Zm.813895.87609c-.04306-.20397-.07737-.38395-.10374-.5315l2.52031-1.40017v6.71299c-.25363-.12806-.4976-.33436-.73522-.6195-.43674-.52409-.79627-1.25328-1.081-2.02979-.28199-.76909-.47634-1.54462-.60035-2.13203Zm3.70879 4.78139c.25368-.12806.49769-.33437.73536-.61957.43674-.52409.79628-1.25328 1.081-2.02979.282-.76909.47635-1.54462.60036-2.13203.04306-.20397.07736-.38395.10373-.5315L5.22131 1.83715v6.71314Z" clip-rule="evenodd"/>
</svg>