<svg xmlns="http://www.w3.org/2000/svg" fill="none" viewBox="0 0 11 12">
  <g clip-path="url(#a)">
    <path stroke="currentColor" stroke-width="1.2" d="M5.01815 5.46069v3.94303m0 0L.939453 11.9488M5.01815 9.40372l4.07859 2.54508"/>
  </g>
  <path fill="currentColor" d="m5.1204 5.15532-.58491.13371.08396.36724.36724.08396.13371-.58491ZM9.41079.864927 9.9957.731211l-.08395-.36724-.36724-.083954-.13372.58491ZM5.70532 5.0216c-.19578-.85639.08394-1.90301.87635-2.69541l-.84853-.84853C4.67476 2.53604 4.2398 3.99561 4.53549 5.28903l1.16983-.26743Zm.87635-2.69541c.7924-.7924 1.83902-1.07213 2.69541-.87635L9.54451.280017c-1.29343-.29569-2.753.139268-3.81137 1.197643l.84853.84853ZM8.82588.998643c.19578.856387-.08394 1.903007-.87635 2.695417l.84853.84852C9.85644 3.48421 10.2914 2.02464 9.9957.731211L8.82588.998643ZM7.94953 3.69406c-.7924.7924-1.83902 1.07212-2.69541.87635l-.26743 1.16982c1.29343.29569 2.753-.13927 3.81137-1.19765l-.84853-.84852Z"/>
  <path fill="currentColor" d="m.635566 3.61468-.339443-.49475-.27249.18695.012353.33023.59958-.02243ZM4.92683 5.77316l.33945.49475.27249-.18696-.01236-.33022-.59958.02243ZM.97501 4.10943c.61892-.42464 1.44827-.50716 2.17223-.14296l.53928-1.072c-1.12727-.56709-2.42256-.43857-3.390397.22546l.678887.9895Zm2.17223-.14296c.72388.36415 1.15196 1.07914 1.18001 1.82911l1.19916-.04485c-.04387-1.17278-.71274-2.28923-1.83989-2.85626l-.53928 1.072Zm1.44015 1.31194c-.61892.42463-1.44827.50716-2.17223.14296l-.53928 1.07199c1.12727.56709 2.42256.43857 3.3904-.22545l-.67889-.9895Zm-2.17223.14296c-.72388-.36416-1.15196-1.07915-1.18001-1.82912l-1.199164.04486c.04387 1.17277.71274 2.28922 1.839894 2.85625l.53928-1.07199Z"/>
  <defs>
    <clipPath id="a">
      <path fill="#fff" d="M1 5h8v7H1z"/>
    </clipPath>
  </defs>
</svg>
