<svg xmlns="http://www.w3.org/2000/svg" width="24" height="24" viewBox="0 0 24 24" fill="none">
  <path d="M22.0882 7.33336C22.666 8.71114 22.9771 10.1334 22.9771 11.6445C22.9771 13.1556 22.666 14.5778 22.0882 15.9556C21.5104 17.3334 20.7104 18.4889 19.7327 19.5111C18.7549 20.4889 17.5549 21.2889 16.1771 21.8667C14.7993 22.4445 13.3771 22.7556 11.866 22.7556C10.3549 22.7556 8.93266 22.4445 7.55488 21.8667C6.1771 21.2889 5.02155 20.4889 3.99933 19.5111C3.02155 18.5334 2.22155 17.3334 1.64377 15.9556C1.06599 14.5778 0.754883 13.1556 0.754883 11.6445C0.754883 10.1334 1.06599 8.71114 1.64377 7.33336C2.22155 5.95559 3.02155 4.80003 3.99933 3.77781C4.9771 2.80003 6.1771 2.00003 7.55488 1.42225C8.93266 0.844474 10.3549 0.533363 11.866 0.533363C13.3771 0.533363 14.7993 0.844474 16.1771 1.42225C17.5549 2.00003 18.7104 2.80003 19.7327 3.77781C20.7104 4.80003 21.466 6.00003 22.0882 7.33336ZM15.466 16.7556L17.2882 8.17781C17.3771 7.82225 17.3327 7.55559 17.1549 7.37781C16.9771 7.20003 16.7993 7.20003 16.5327 7.28892L5.82155 11.4223C5.59933 11.5111 5.42155 11.6 5.33266 11.7334C5.24377 11.8667 5.24377 11.9556 5.28822 12.0445C5.33266 12.1334 5.46599 12.2223 5.68822 12.2667L8.44377 13.1111L14.7993 9.11114C14.9771 8.97781 15.1104 8.97781 15.1993 9.02225C15.2438 9.0667 15.2438 9.11114 15.1549 9.20003L9.99933 13.9111L9.7771 16.7556C9.95488 16.7556 10.1327 16.6667 10.3549 16.4889L11.6882 15.2L14.4438 17.2445C15.0215 17.5556 15.3327 17.3778 15.466 16.7556Z" fill="currentColor"/>
</svg>