<svg xmlns="http://www.w3.org/2000/svg" fill="none" viewBox="0 0 16 18">
  <path fill="currentColor" d="M14.0075 3.84956c-.1246-.06279-.2459-.13162-.3634-.20624-.3418-.22032-.6552-.47992-.9334-.77321-.6961-.77659-.956-1.56443-1.0518-2.116023h.0038C11.5827.296235 11.6158 0 11.6208 0H8.45036v11.9537c0 .1604 0 .3191-.00692.4758 0 .0195-.00192.0375-.00308.0585 0 .0086 0 .0176-.00192.0266v.0068c-.03342.4289-.17442.8432-.41061 1.2065-.23618.3633-.56031.6644-.94387.8769-.39975.2217-.85188.338-1.31179.3375-1.47717 0-2.67436-1.1745-2.67436-2.6249 0-1.4504 1.19719-2.62488 2.67436-2.62488.27962-.00026.55751.04265.82338.12711l.00384-3.14759c-.80709-.10165-1.62702-.03911-2.40808.18368-.78106.22279-1.50629.601-2.12993 1.11076-.54646.46295-1.00587 1.01533-1.35756 1.63229-.133833.22499-.6387834 1.12903-.69993121 2.59633C-.0345689 13.028.221944 13.8908.34424 14.2474v.0075c.076915.21.374963.9266.86068 1.5307.39167.4846.85441.9102 1.37333 1.2633v-.0075l.00769.0075c1.53485 1.0169 3.23661.9502 3.23661.9502.29458-.0116 1.28141 0 2.40207-.5178 1.24295-.5741 1.95058-1.4295 1.95058-1.4295.4521-.511.8115-1.0935 1.063-1.7223.2869-.7353.3826-1.6173.3826-1.9697V6.01807c.0385.0225.5507.35286.5507.35286s.738.46123 1.8895.76159c.826.21374 1.939.25874 1.939.25874V4.32241c-.39.04125-1.1818-.07875-1.9925-.47285Z"/>
</svg>
