<svg xmlns="http://www.w3.org/2000/svg" fill="none" viewBox="0 0 11 11">
  <path fill="currentColor" fill-rule="evenodd" d="M5.2478 4.24072c.5597 0 1.01343-.45372 1.01343-1.01343 0-.5597-.45373-1.01342-1.01343-1.01342-.5597 0-1.01342.45372-1.01342 1.01342 0 .55971.45372 1.01343 1.01342 1.01343Zm0 1.5c1.38813 0 2.51343-1.1253 2.51343-2.51343 0-1.38812-1.1253-2.513423-2.51343-2.513423S2.73438 1.83917 2.73438 3.22729c0 1.38813 1.12529 2.51343 2.51342 2.51343Zm2.00135 1.90967H3.26562c-.82842 0-1.5.67157-1.5 1.5v.06348h6.98353v-.06348c0-.82843-.67158-1.5-1.5-1.5Zm-3.98353-1.5c-1.65685 0-2.999995 1.34315-2.999995 3v1.56351H10.2491V9.15039c0-1.65685-1.3431-3-2.99995-3H3.26562Z" clip-rule="evenodd"/>
</svg>