<svg width="18" height="18" viewBox="0 0 18 18" fill="none" xmlns="http://www.w3.org/2000/svg">
<path fill-rule="evenodd" clip-rule="evenodd" d="M1.17157 1.17157C0 2.34315 0 4.22876 0 8V10C0 13.7712 0 15.6569 1.17157 16.8284C2.34315 18 4.22876 18 8 18H10C13.7712 18 15.6569 18 16.8284 16.8284C18 15.6569 18 13.7712 18 10V8C18 4.22876 18 2.34315 16.8284 1.17157C15.6569 0 13.7712 0 10 0H8C4.22876 0 2.34315 0 1.17157 1.17157ZM4.64031 2.79688H13.3603V4.55688H15.8403L15.3203 6.31688H14.8803V13.4369C15.1012 13.4369 15.2803 13.616 15.2803 13.8369V14.3169H15.3603C15.5812 14.3169 15.7603 14.496 15.7603 14.7169V15.1969H13.3603H12.0803H11.2803V14.7169C11.2803 14.496 11.4594 14.3169 11.6803 14.3169H11.7603V13.8369C11.7603 13.6434 11.8977 13.4819 12.0803 13.4449V9.51688H12.0678C11.9263 7.94706 10.607 6.71688 9.00031 6.71688C7.39366 6.71688 6.07433 7.94706 5.93287 9.51688H5.92031V13.4369H6.00031C6.22123 13.4369 6.40031 13.616 6.40031 13.8369V14.3169H6.48031C6.70123 14.3169 6.88031 14.496 6.88031 14.7169V15.1969H5.92031H4.64031H2.40031V14.7169C2.40031 14.496 2.5794 14.3169 2.80031 14.3169H2.88031V13.8369C2.88031 13.616 3.0594 13.4369 3.28031 13.4369V6.31688H2.84031L2.32031 4.55688H4.64031V2.79688Z" fill="currentColor"/>
</svg>
