<svg width="23" height="17" viewBox="0 0 23 17" fill="none" xmlns="http://www.w3.org/2000/svg">
<path d="M9.2 11.5966L15.1685 8.11765L9.2 4.63866V11.5966ZM22.494 2.51647C22.6435 3.06151 22.747 3.7921 22.816 4.71983C22.8965 5.64756 22.931 6.44773 22.931 7.14353L23 8.11765C23 10.6573 22.816 12.5244 22.494 13.7188C22.2065 14.7625 21.5395 15.4351 20.5045 15.725C19.964 15.8758 18.975 15.9802 17.457 16.0497C15.962 16.1309 14.5935 16.1657 13.3285 16.1657L11.5 16.2353C6.6815 16.2353 3.68 16.0497 2.4955 15.725C1.4605 15.4351 0.7935 14.7625 0.506 13.7188C0.3565 13.1738 0.253 12.4432 0.184 11.5155C0.1035 10.5877 0.0689999 9.78756 0.0689999 9.09176L0 8.11765C0 5.57798 0.184 3.71092 0.506 2.51647C0.7935 1.47277 1.4605 0.800168 2.4955 0.510252C3.036 0.359496 4.025 0.255126 5.543 0.185546C7.038 0.10437 8.4065 0.0695798 9.6715 0.0695798L11.5 0C16.3185 0 19.32 0.185546 20.5045 0.510252C21.5395 0.800168 22.2065 1.47277 22.494 2.51647Z" fill="currentColor"/>
</svg>
