<svg width="16" height="16" viewBox="0 0 16 16" fill="none" xmlns="http://www.w3.org/2000/svg">
    <path d="M15.0312 12.9688C15.6406 13.5312 15.6406 14.5156 15.0312 15.0781C14.75 15.3594 14.375 15.5 14 15.5C13.5781 15.5 13.2031 15.3594 12.9219 15.0781L8 10.1562L3.03125 15.0781C2.75 15.3594 2.375 15.5 2 15.5C1.57812 15.5 1.20312 15.3594 0.921875 15.0781C0.3125 14.5156 0.3125 13.5312 0.921875 12.9688L5.84375 8L0.921875 3.07812C0.3125 2.51562 0.3125 1.53125 0.921875 0.96875C1.48438 0.359375 2.46875 0.359375 3.03125 0.96875L8 5.89062L12.9219 0.96875C13.4844 0.359375 14.4688 0.359375 15.0312 0.96875C15.6406 1.53125 15.6406 2.51562 15.0312 3.07812L10.1094 8.04688L15.0312 12.9688Z"
          fill="currentColor"/>
</svg>
