<svg width="847" height="981" viewBox="0 0 847 981" fill="none" xmlns="http://www.w3.org/2000/svg">
<path d="M11.3423 725.016L423.907 491.953L839.367 725.016L423.907 974.003L11.3423 725.016Z" stroke="#BAF24A" stroke-width="13.894" stroke-linecap="round" stroke-linejoin="round"/>
<path d="M11.3415 725.008L423.906 973.994" stroke="#D075FF" stroke-width="13.894" stroke-linecap="round" stroke-linejoin="round"/>
<path d="M7 241.5V719.207" stroke="#D075FF" stroke-width="13.894" stroke-linecap="round" stroke-linejoin="round"/>
<path d="M425.352 8.45312L425.352 242.964" stroke="white" stroke-width="13.894" stroke-linecap="round" stroke-linejoin="round"/>
<path d="M425.352 494.836L425.352 729.347" stroke="white" stroke-width="13.894" stroke-linecap="round" stroke-linejoin="round"/>
<path d="M839.367 241.5V719.207" stroke="#89B0FF" stroke-width="13.894" stroke-linecap="round" stroke-linejoin="round"/>
<path d="M11.3423 240.063L423.907 7L839.367 240.063L423.907 489.049L11.3423 240.063Z" stroke="white" stroke-width="13.894" stroke-linecap="round" stroke-linejoin="round"/>
<path d="M839.367 240.07L631.637 364.564" stroke="#89B0FF" stroke-width="13.894" stroke-linecap="round" stroke-linejoin="round"/>
<path d="M425.352 738.035L425.352 972.546" stroke="#D075FF" stroke-width="13.894" stroke-linecap="round" stroke-linejoin="round"/>
<path d="M839.367 719.224V480.371" stroke="#BAF24A" stroke-width="13.894" stroke-linecap="round" stroke-linejoin="round"/>
<path d="M425.352 248.738L425.352 480.354" stroke="#FF5C16" stroke-width="13.894" stroke-linecap="round" stroke-linejoin="round"/>
<path d="M423.906 491.953L11.3415 725.016" stroke="#FF5C16" stroke-width="13.894" stroke-linecap="round" stroke-linejoin="round"/>
<path d="M11.3426 725.012L217.625 608.48" stroke="#D075FF" stroke-width="13.894" stroke-linecap="round" stroke-linejoin="round"/>
<path d="M11.3415 240.07L423.906 489.057" stroke="#FF5C16" stroke-width="13.894" stroke-linecap="round" stroke-linejoin="round"/>
</svg>
