<svg width="32" height="32" viewBox="0 0 32 32" fill="none" xmlns="http://www.w3.org/2000/svg">
<path d="M19.4188 5.83215L19.4189 5.83239L26.7752 19.9167C27.655 21.6035 27.7103 23.1556 27.0678 24.3226C26.4314 25.4786 25.158 26.1666 23.3564 26.1666H8.64362C6.84205 26.1666 5.56858 25.4786 4.93217 24.3226C4.28999 23.1561 4.3446 21.6163 5.22515 19.9161C5.22526 19.9159 5.22538 19.9157 5.22549 19.9155L12.5811 5.83239L12.5812 5.83215C13.5245 4.02377 14.755 3.16663 16 3.16663C17.245 3.16663 18.4755 4.02377 19.4188 5.83215Z" fill="#FFDF70" stroke="#FFC70A"/>
<path d="M16 10.308C15.5288 10.308 15.1379 10.7237 15.1379 11.2249V17.338C15.1379 17.8393 15.5288 18.255 16 18.255C16.4713 18.255 16.8621 17.8393 16.8621 17.338V11.2249C16.8621 10.7237 16.4713 10.308 16 10.308Z" fill="black"/>
<path d="M16.6437 22.0207L16.8161 21.874C17.023 21.6417 17.1495 21.3238 17.1495 21.0059C17.1495 20.688 17.023 20.3701 16.8161 20.1378L16.6437 19.9911C16.5747 19.9422 16.5058 19.9055 16.4368 19.8811C16.3678 19.8444 16.2989 19.82 16.2184 19.8077C16.0805 19.7711 15.9196 19.7711 15.7701 19.8077C15.7012 19.82 15.6322 19.8444 15.5632 19.8811C15.4943 19.9055 15.4253 19.9422 15.3563 19.9911L15.1839 20.1378C14.977 20.3701 14.8506 20.688 14.8506 21.0059C14.8506 21.3238 14.977 21.6417 15.1839 21.874L15.3563 22.0207C15.4253 22.0696 15.4943 22.1063 15.5632 22.1307C15.6322 22.1674 15.7012 22.1918 15.7701 22.2041C15.8506 22.2163 15.9311 22.2285 16 22.2285C16.069 22.2285 16.1494 22.2163 16.2184 22.2041C16.2989 22.1918 16.3678 22.1674 16.4368 22.1307C16.5058 22.1063 16.5747 22.0696 16.6437 22.0207Z" fill="black"/>
</svg>
